<svg width="16" height="16" viewBox="0 0 16 16" fill="none" xmlns="http://www.w3.org/2000/svg">
<path d="M6.42674 14.7203H4.09996C3.35403 14.7203 2.64231 14.426 2.11536 13.8922C1.58157 13.3653 1.2873 12.6604 1.2873 11.9076V4.10607C1.2873 3.36014 1.58157 2.64842 2.11536 2.12147C2.64231 1.58768 3.34718 1.30026 4.09996 1.30026H6.42674V14.7203ZM7.59697 0H4.09996C1.83478 0 0.000732422 1.83405 0.000732422 4.09923V11.9008C0.000732422 14.166 1.83478 16 4.09996 16H7.59697C7.6654 16 7.72015 15.9521 7.72015 15.8837V0.116339C7.72015 0.0479042 7.65856 0 7.59697 0ZM2.48491 4.79726C2.48491 5.62532 3.16241 6.30282 3.99047 6.30282C4.81852 6.30282 5.49603 5.62532 5.49603 4.79726C5.49603 3.9692 4.81852 3.2917 3.99047 3.2917C3.16241 3.2917 2.48491 3.9692 2.48491 4.79726ZM12.4832 7.18563C13.3728 7.18563 14.0983 7.91104 14.0983 8.80068C14.0983 9.69718 13.3728 10.4226 12.4832 10.4226C11.5867 10.4226 10.8613 9.69718 10.8613 8.80068C10.8613 7.91104 11.5867 7.18563 12.4832 7.18563ZM9.43101 16H11.9015C14.1667 16 16.0007 14.166 16.0007 11.9008V4.09923C16.0007 1.83405 14.1667 0 11.9015 0H9.42417C9.36942 0 9.31468 0.0410607 9.31468 0.0958084V15.8837C9.31468 15.9521 9.36258 16 9.43101 16Z" fill="#151210"/>
</svg>
