<svg width="16" height="10" viewBox="0 0 16 10" fill="none" xmlns="http://www.w3.org/2000/svg">
<path d="M-0.000244141 0.793407H4.22103C5.12883 0.793407 5.83238 1.02036 6.28628 1.47426C6.74018 1.92816 6.96713 2.56362 6.96713 3.40334C6.96713 4.26575 6.71749 4.9239 6.2182 5.4005C5.7189 5.87709 4.94727 6.12674 3.926 6.12674H2.5416V9.25866H-0.000244141V0.793407ZM2.5416 4.40192H3.17706C3.67635 4.40192 4.01678 4.31114 4.19834 4.12958C4.40259 3.94802 4.49337 3.72107 4.49337 3.44873C4.49337 3.17639 4.40259 2.94944 4.24373 2.76787C4.06217 2.58631 3.74444 2.49553 3.26784 2.49553H2.5416V4.40192ZM13.7756 5.80901L15.9998 6.51256C15.8409 7.14802 15.6139 7.6927 15.2962 8.1239C14.9785 8.55511 14.57 8.87284 14.0934 9.09979C13.6168 9.32674 13.004 9.44022 12.2778 9.44022C11.3927 9.44022 10.6437 9.30405 10.0764 9.03171C9.50898 8.75937 9.00968 8.28277 8.60117 7.62461C8.19266 6.94376 7.98841 6.08135 7.98841 5.03738C7.98841 3.63029 8.35153 2.56362 9.07777 1.81468C9.80401 1.06575 10.8253 0.679932 12.1416 0.679932C13.1856 0.679932 14.0026 0.884187 14.5927 1.31539C15.1827 1.7466 15.6366 2.40475 15.909 3.31256L13.6622 3.83454C13.5941 3.5849 13.5033 3.38064 13.4125 3.26717C13.2764 3.06291 13.0948 2.90405 12.8905 2.81326C12.6863 2.69979 12.4593 2.6544 12.2097 2.6544C11.6423 2.6544 11.1884 2.90405 10.8934 3.38064C10.6664 3.74376 10.5529 4.28844 10.5529 5.06007C10.5529 5.99057 10.6891 6.64873 10.9615 6.98915C11.2338 7.32958 11.6196 7.51114 12.1189 7.51114C12.5955 7.51114 12.9813 7.37497 13.231 7.07993C13.4806 6.7622 13.6622 6.35369 13.7756 5.80901Z" fill="#F9B611"/>
</svg>
