<svg width="64" height="27" viewBox="0 0 64 27" fill="none" xmlns="http://www.w3.org/2000/svg">
<path d="M0.75 13.4391C2.54574 13.4391 4.34148 13.4391 6.20193 13.4391C6.25047 13.5685 6.31518 13.7626 6.39607 13.9729C6.84905 15.2024 7.99767 15.8334 9.21101 15.526C10.3273 15.251 11.1038 14.1347 10.9744 12.9699C10.845 11.7566 9.8743 10.8668 8.62861 10.8506C7.07554 10.8344 5.52246 10.8506 3.69437 10.8506C5.49011 9.10339 7.12407 7.53414 8.74186 5.96489C8.69332 5.884 8.66097 5.81929 8.61243 5.7384C6.60638 5.7384 4.60033 5.7384 2.62663 5.7384C1.99569 2.87492 3.72672 0.674735 6.52549 0.658557C8.74185 0.642379 10.942 0.658557 13.1584 0.658557C13.3687 0.658557 13.579 0.674735 13.7732 0.690913C14.1776 3.52204 12.8672 5.156 9.51839 5.83547C9.98755 5.94871 10.2788 6.01342 10.57 6.07813C14.0644 6.95174 16.5558 10.2035 16.394 13.6655C16.2322 17.4026 13.5143 20.3955 9.80959 20.9132C5.63571 21.5118 1.94716 18.9395 1.0412 14.8465C0.97649 14.4744 0.847067 14.1185 0.75 13.7626C0.75 13.6494 0.75 13.5523 0.75 13.4391Z" fill="#151210"/>
<path d="M63.52 13.7626C63.4068 14.3127 63.3259 14.8789 63.1803 15.4127C62.4199 18.2762 59.605 21.3824 55.059 21.0588C51.7587 20.8323 48.6688 18.0336 48.1673 14.7009C47.5363 10.4462 50.416 6.43405 54.5413 5.85164C58.877 5.23689 62.7597 8.19743 63.3744 12.5816C63.4068 12.8243 63.4715 13.0508 63.52 13.2935C63.52 13.4391 63.52 13.6008 63.52 13.7626ZM58.1813 13.4876C58.1975 12.0963 57.1621 11.0286 55.787 10.9962C54.3957 10.98 53.328 12.0154 53.2956 13.3905C53.2795 14.7656 54.331 15.8657 55.7061 15.8657C57.0974 15.8981 58.1652 14.8627 58.1813 13.4876Z" fill="#151210"/>
<path d="M26.9743 18.1306C26.9743 16.5128 26.9743 15.0083 26.9743 13.5038C26.9743 12.1934 26.1169 11.1742 24.9035 11.0286C23.7387 10.883 22.5577 11.708 22.2989 12.8567C22.0239 14.0862 22.7033 15.2833 23.9976 15.6716C24.4505 15.801 24.5153 16.0113 24.5153 16.4158C24.4991 17.9688 24.5153 19.5381 24.5153 21.2044C25.8257 21.2044 27.0714 21.2044 28.3332 21.2044C29.5951 21.2044 30.857 21.2044 32.1027 21.2044C32.6204 23.987 30.8246 26.2195 28.1229 26.2195C24.6123 26.2195 21.1179 26.2195 17.6073 26.2195C17.3161 26.2195 17.0249 26.2195 16.7499 26.2195C16.2646 23.259 17.9794 21.2044 20.8752 21.2044C21.6841 21.2044 22.493 21.2044 23.3181 21.0912C23.0431 21.0103 22.7842 20.9456 22.5092 20.8647C19.1119 19.9911 16.6366 16.5937 16.8308 13.067C17.0411 9.28135 19.7428 6.20756 23.3181 5.68987C27.6214 5.05893 31.7467 8.40774 31.9732 12.7434C31.9894 13.0022 31.9085 13.3582 31.7467 13.5361C30.2746 15.0407 28.77 16.4967 27.2655 17.9688C27.217 18.0336 27.1361 18.0497 26.9743 18.1306Z" fill="#151210"/>
<path d="M40.1592 21.075C35.9045 21.075 32.5071 17.71 32.4909 13.4714C32.4909 9.20046 35.8721 5.80311 40.1107 5.81929C44.4625 5.83547 47.8275 9.21664 47.8113 13.5685C47.8113 17.7424 44.4302 21.0588 40.1592 21.075ZM40.1754 15.8819C41.5505 15.8657 42.6344 14.7818 42.6183 13.4229C42.6183 12.0963 41.4696 10.9962 40.1107 11.0124C38.7518 11.0124 37.6517 12.1286 37.6678 13.4714C37.684 14.798 38.8165 15.8981 40.1754 15.8819Z" fill="#151210"/>
</svg>
