<svg width="224" height="54" viewBox="0 0 224 54" fill="none" xmlns="http://www.w3.org/2000/svg">
<path d="M39.4672 53.301V40.9591H40.3894V52.4602H47.6319V53.301H39.4672Z" fill="white"/>
<path d="M58.8346 53.518C55.0913 53.518 52.65 50.5343 52.65 47.1708V47.1436C52.65 43.7801 55.1456 40.7692 58.8617 40.7692C62.605 40.7692 65.0463 43.753 65.0463 47.1165C65.0734 47.1436 65.0734 47.1436 65.0463 47.1436C65.0734 50.5071 62.5779 53.518 58.8346 53.518ZM64.124 47.1165C64.124 44.0785 61.8997 41.5558 58.8617 41.5558C55.8237 41.5558 53.6265 44.0242 53.6265 47.0622V47.0894C53.6265 50.1274 55.8508 52.65 58.8888 52.65C61.9269 52.65 64.124 50.1816 64.124 47.1436V47.1165Z" fill="white"/>
<path d="M75.815 53.4638C73.8348 53.4638 72.3158 52.8128 70.8511 51.4837L71.4478 50.8055C72.8041 52.0533 74.0518 52.65 75.8692 52.65C77.7137 52.65 78.9886 51.6193 78.9886 50.2088V50.1816C78.9886 48.8796 78.3105 48.1201 75.4895 47.5505C72.5328 46.9537 71.3393 45.9501 71.3393 44.0785V44.0514C71.3393 42.2068 73.0211 40.7963 75.2996 40.7963C77.0899 40.7963 78.2834 41.2846 79.5311 42.2882L78.9615 43.0206C77.7951 42.017 76.6287 41.6372 75.2725 41.6372C73.4551 41.6372 72.2616 42.668 72.2616 43.97V43.9971C72.2616 45.2991 72.9397 46.0857 75.8692 46.6825C78.7174 47.2521 79.938 48.2829 79.938 50.0731V50.1003C79.9109 52.1075 78.1749 53.4638 75.815 53.4638Z" fill="white"/>
<path d="M90.5168 41.7999V53.301H89.5946V41.7999H85.2817V40.9591H94.8026V41.7999H90.5168Z" fill="white"/>
<path d="M118.754 53.301V47.5234H110.861V53.301H109.938V40.9591H110.861V46.6825H118.754V40.9591H119.676V53.301H118.754Z" fill="white"/>
<path d="M137.172 53.301L135.599 49.8561H128.329L126.756 53.301H125.807L131.557 40.8777H132.425L138.176 53.301H137.172ZM131.991 41.8813L128.736 49.0153H135.246L131.991 41.8813Z" fill="white"/>
<path d="M147.751 53.3824H146.937L141.512 40.9591H142.543L147.371 52.3245L152.227 40.9591H153.203L147.751 53.3824Z" fill="white"/>
<path d="M159.306 53.301V40.9591H168.095V41.7999H160.229V46.6554H167.308V47.4962H160.229V52.4602H168.176V53.301H159.306Z" fill="white"/>
<path d="M184.234 53.301L175.554 42.3425V53.301H174.686V40.9591H175.554L184.072 51.7007V40.9591H184.94V53.301H184.234Z" fill="white"/>
<path d="M61.4115 28.9969H66.6738L54.4674 0.298371H49.3136L37.0802 28.9969H42.2611L51.8092 5.72341L61.4115 28.9969Z" fill="white"/>
<path d="M98.9257 0.488251H75.5437V5.20804H84.6307V28.9969H89.8387V5.20804H98.9257V0.488251Z" fill="white"/>
<path d="M126.458 0C117.913 0 111.241 6.48293 111.241 14.7561V14.8375C111.241 23.1921 117.751 29.5122 126.376 29.5122C134.921 29.5122 141.594 23.0293 141.594 14.7561V14.6747C141.594 6.29304 135.084 0 126.458 0ZM136.087 14.8375C136.087 20.5338 131.937 24.8196 126.458 24.8196C121.006 24.8196 116.747 20.3982 116.747 14.7561V14.6747C116.747 8.97844 120.897 4.69266 126.376 4.69266C131.829 4.69266 136.087 9.11408 136.087 14.7561V14.8375Z" fill="white"/>
<path d="M175.148 28.9969H181.224L174.795 18.4451L175.5 18.1468C177.941 17.0889 180.844 14.7561 180.844 9.76508V9.68371C180.844 3.93316 176.884 0.515386 170.265 0.515386H160.69L157.896 0.488251L157.923 0.515386L166.684 15.0002H157.326V28.9969H162.534V19.4488H169.37L175.148 28.9969ZM166.657 5.07242H169.722C173.384 5.07242 175.554 6.91694 175.554 10.0092V10.0906C175.554 11.9893 174.659 13.4812 173.005 14.3221L172.435 14.5934L166.657 5.07242Z" fill="white"/>
<path d="M24.0058 21.4832V21.4018C24.0058 18.0925 22.4597 16.0853 18.852 14.7019L17.4958 14.1865L18.7706 13.4812C21.2119 12.125 22.3512 10.2533 22.3512 7.62218V7.54081C22.3512 3.20077 18.8249 0.488251 13.1828 0.488251H0V4.88254H12.2063C15.3257 4.88254 17.1974 6.29305 17.1974 8.62582V8.70719C17.1974 10.1448 16.4921 12.5319 11.7995 12.5319H0.0271186V28.9426H13.5355C20.1812 28.9969 24.0058 26.2572 24.0058 21.4832ZM5.04528 16.6549H13.3185C18.1468 16.6549 18.852 19.1233 18.852 20.5609V20.6423C18.852 22.107 18.1468 24.5483 13.5355 24.5483H5.04528V16.6549Z" fill="white"/>
<path d="M218.738 28.9969H224L211.794 0.298371H206.64L194.406 28.9969H199.587L209.135 5.72341L218.738 28.9969Z" fill="white"/>
</svg>
