<svg width="78" height="19" viewBox="0 0 78 19" fill="none" xmlns="http://www.w3.org/2000/svg">
<path d="M36.4247 0.824219H1.62477C0.741119 0.824219 0.0247767 1.54056 0.0247767 2.42421V7.2242C0.0247767 8.10785 0.741119 8.82419 1.62477 8.82419H36.4247C37.3083 8.82419 38.0247 8.10785 38.0247 7.2242V2.42421C38.0247 1.54056 37.3083 0.824219 36.4247 0.824219Z" fill="white" fill-opacity="0.7"/>
<path fill-rule="evenodd" clip-rule="evenodd" d="M20.8209 10.8236C21.6494 10.8236 22.3209 11.2713 22.3209 11.8236V11.657C22.3209 13.4059 23.7387 14.8236 25.4876 14.8236C26.5235 14.8236 27.4432 14.3262 28.0209 13.5573V14.9236C28.0209 15.973 28.8716 16.8236 29.9209 16.8236C30.9702 16.8236 31.8209 15.973 31.8209 14.9236V11.3236C31.8209 11.0475 32.2686 10.8236 32.8209 10.8236H36.4209C37.3045 10.8236 38.0209 11.54 38.0209 12.4236V17.2236C38.0209 18.1073 37.3045 18.8236 36.4209 18.8236H1.62099C0.737338 18.8236 0.0209961 18.1073 0.0209961 17.2236V12.4236C0.0209961 11.54 0.737338 10.8236 1.62099 10.8236H20.8209Z" fill="white" fill-opacity="0.7"/>
<path d="M40.0993 0.824283H43.6601C44.5049 0.824283 45.1279 1.00542 45.5292 1.3677C45.9304 1.72998 46.1311 2.21363 46.1311 2.81867C46.1311 3.02782 46.1036 3.23137 46.0487 3.42932C45.9938 3.62726 45.9093 3.80653 45.7953 3.96713C45.6812 4.12773 45.5355 4.26405 45.3581 4.37609C45.1807 4.48814 44.9653 4.56657 44.7118 4.61138V4.63379C45.0075 4.6562 45.261 4.7253 45.4721 4.84108C45.6833 4.95686 45.8565 5.10064 45.9917 5.27245C46.1269 5.44425 46.2261 5.63286 46.2895 5.83827C46.3528 6.04369 46.3845 6.25097 46.3845 6.46012C46.3845 6.80372 46.3338 7.12118 46.2325 7.4125C46.1311 7.70381 45.9727 7.95404 45.7573 8.16319C45.5418 8.37234 45.261 8.53481 44.9146 8.65059C44.5682 8.76637 44.1501 8.82425 43.6601 8.82425H40.0993V0.824283ZM42.4563 7.32286H43.1152C43.3349 7.32286 43.5292 7.24256 43.6981 7.08196C43.8671 6.92137 43.9515 6.673 43.9515 6.33687C43.9515 6.02314 43.8671 5.78412 43.6981 5.61978C43.5292 5.45545 43.3349 5.37329 43.1152 5.37329H42.4563V7.32286ZM42.4563 3.96153H43.0265C43.2715 3.96153 43.4574 3.88123 43.5841 3.72063C43.7108 3.56003 43.7741 3.37143 43.7741 3.15481C43.7741 2.93072 43.7108 2.73651 43.5841 2.57218C43.4574 2.40784 43.2715 2.32568 43.0265 2.32568H42.4563V3.96153Z" fill="white" fill-opacity="0.7"/>
<path d="M46.8688 0.824347H49.2257V8.82432H46.8688V0.824347Z" fill="white" fill-opacity="0.7"/>
<path d="M53.3849 3.20594V3.0219C53.3849 2.79096 53.3318 2.5943 53.2257 2.43192C53.1196 2.26954 52.9564 2.18835 52.736 2.18835C52.4911 2.18835 52.3116 2.25871 52.1973 2.39944C52.083 2.54017 52.0259 2.69714 52.0259 2.87035C52.0259 3.12294 52.1177 3.32321 52.3014 3.47116C52.485 3.61911 52.7156 3.7472 52.9931 3.85546C53.2706 3.96371 53.5685 4.07377 53.8868 4.18563C54.2052 4.2975 54.5031 4.44364 54.7806 4.62406C55.0581 4.80449 55.2887 5.04084 55.4723 5.33313C55.656 5.62541 55.7478 6.0061 55.7478 6.47521C55.7478 7.29794 55.4825 7.89514 54.952 8.26681C54.4215 8.63848 53.6542 8.82432 52.6503 8.82432C52.1769 8.82432 51.7586 8.79004 51.3954 8.72148C51.0322 8.65292 50.7261 8.53384 50.4772 8.36424C50.2282 8.19464 50.0385 7.97272 49.9079 7.69848C49.7773 7.42423 49.712 7.08504 49.712 6.68089V6.41025H51.9157V6.59429C51.9157 6.92627 51.9851 7.15901 52.1238 7.29252C52.2626 7.42604 52.4422 7.49279 52.6625 7.49279C52.8992 7.49279 53.0808 7.42063 53.2074 7.27629C53.3339 7.13195 53.3971 6.95513 53.3971 6.74584C53.3971 6.49325 53.3094 6.29298 53.1339 6.14503C52.9584 5.99708 52.738 5.87079 52.4728 5.76614C52.2075 5.6615 51.9198 5.55505 51.6096 5.44679C51.2995 5.33854 51.0118 5.19781 50.7465 5.0246C50.4812 4.8514 50.2609 4.62406 50.0854 4.3426C49.9099 4.06114 49.8222 3.69308 49.8222 3.23841C49.8222 2.45176 50.0589 1.85276 50.5323 1.44139C51.0057 1.03003 51.7239 0.824347 52.687 0.824347C53.6828 0.824347 54.4031 1.01379 54.8479 1.39268C55.2928 1.77157 55.5152 2.37598 55.5152 3.20594H53.3849Z" fill="white" fill-opacity="0.7"/>
<path d="M59.9796 3.32501C59.9796 2.88478 59.9306 2.58528 59.8327 2.42651C59.7348 2.26773 59.5756 2.18835 59.3552 2.18835C59.1838 2.18835 59.0471 2.22804 58.9451 2.30743C58.8431 2.38681 58.7655 2.52754 58.7125 2.72962C58.6594 2.93169 58.6247 3.20413 58.6084 3.54694C58.5921 3.88974 58.5839 4.32095 58.5839 4.84057C58.5839 5.36019 58.5921 5.7914 58.6084 6.13421C58.6247 6.47701 58.6594 6.74945 58.7125 6.95152C58.7655 7.1536 58.8431 7.29433 58.9451 7.37372C59.0471 7.4531 59.1838 7.49279 59.3552 7.49279C59.494 7.49279 59.6082 7.46212 59.698 7.40078C59.7878 7.33944 59.8572 7.23659 59.9062 7.09225C59.9551 6.94792 59.9898 6.75486 60.0102 6.5131C60.0306 6.27133 60.0408 5.96641 60.0408 5.59835H62.2446V6.1721C62.2446 6.71337 62.163 7.15721 61.9997 7.50362C61.8365 7.85003 61.6202 8.12247 61.3508 8.32094C61.0815 8.5194 60.7734 8.65292 60.4265 8.72148C60.0796 8.79004 59.7225 8.82432 59.3552 8.82432C58.7186 8.82432 58.1962 8.75576 57.7881 8.61864C57.38 8.48151 57.0617 8.25238 56.8332 7.93122C56.6046 7.61007 56.4475 7.1951 56.3618 6.6863C56.2761 6.17751 56.2333 5.56227 56.2333 4.84057C56.2333 4.10444 56.2843 3.48018 56.3863 2.96778C56.4883 2.45537 56.6618 2.0404 56.9066 1.72285C57.1515 1.40531 57.4739 1.17617 57.8738 1.03544C58.2738 0.894711 58.7676 0.824347 59.3552 0.824347C59.8694 0.824347 60.3061 0.882081 60.6652 0.997553C61.0244 1.11302 61.3161 1.27721 61.5406 1.49011C61.7651 1.70301 61.9283 1.95921 62.0303 2.25871C62.1323 2.55822 62.1834 2.89561 62.1834 3.27089V3.75803H59.9796V3.32501Z" fill="white" fill-opacity="0.7"/>
<path d="M65.0491 0.824347V6.50709C65.0491 6.88962 65.1115 7.14524 65.2363 7.27398C65.3611 7.40272 65.5316 7.46708 65.748 7.46708C65.9643 7.46708 66.1348 7.40272 66.2596 7.27398C66.3844 7.14524 66.4468 6.88962 66.4468 6.50709V0.824347H68.768V5.98847C68.768 6.54019 68.7014 6.99996 68.5683 7.36777C68.4352 7.73559 68.2418 8.02984 67.988 8.25053C67.7343 8.47122 67.4202 8.62202 67.0458 8.70294C66.6714 8.78386 66.2388 8.82432 65.748 8.82432C65.2654 8.82432 64.8349 8.78386 64.4563 8.70294C64.0778 8.62202 63.7616 8.47122 63.5079 8.25053C63.2541 8.02984 63.0607 7.73559 62.9276 7.36777C62.7945 6.99996 62.7279 6.54019 62.7279 5.98847V0.824347H65.0491Z" fill="white" fill-opacity="0.7"/>
<path d="M69.2524 0.824347H71.6093V8.82432H69.2524V0.824347Z" fill="white" fill-opacity="0.7"/>
<path d="M73.8477 2.59465H72.099V0.824347H77.9786V2.59465H76.2046V8.82432H73.8477V2.59465Z" fill="white" fill-opacity="0.7"/>
<path d="M52.9622 10.824L54.9118 18.824H52.6933L52.4804 17.4235H50.8222L50.6093 18.824H48.4244L50.3404 10.824H52.9622ZM51.6401 12.4599L51.0687 15.8548H52.2339L51.6625 12.4599H51.6401Z" fill="white" fill-opacity="0.7"/>
<path d="M43.5167 10.8242H45.399L46.2169 16.3592H46.2394L46.7996 10.8242H48.8164L47.4494 18.8242H45.1637L44.469 13.4461H44.4466L43.752 18.8242H41.4663L40.0993 10.8242H42.1161L42.7436 16.3592H42.766L43.5167 10.8242Z" fill="white" fill-opacity="0.7"/>
<path d="M55.8041 15.6756L53.7985 10.824H56.0506L56.8349 13.6139H56.8573L57.6416 10.824H59.9273L57.8881 15.6756V18.824H55.8041V15.6756Z" fill="white" fill-opacity="0.7"/>
</svg>
