<svg width="132" height="27" viewBox="0 0 132 27" fill="none" xmlns="http://www.w3.org/2000/svg">
<path d="M65.9898 18.1893C82.7428 18.1893 99.4958 18.1893 116.249 18.1893C116.308 18.1893 116.368 18.1893 116.416 18.1893C116.595 18.2012 116.666 18.3086 116.607 18.4756C116.595 18.5114 116.547 18.5353 116.511 18.5472C116.452 18.5592 116.392 18.5472 116.344 18.5472C114.495 18.5472 112.645 18.5472 110.808 18.5472C109.077 18.5472 107.359 18.5472 105.629 18.5472C105.092 18.5472 104.555 18.5353 104.018 18.5353C103.422 18.5353 102.813 18.5472 102.216 18.5472C99.818 18.5472 97.4196 18.5472 95.0212 18.5472C93.8518 18.5472 92.6705 18.5472 91.5011 18.5472C90.5346 18.5472 89.5681 18.5472 88.6016 18.5472C86.8714 18.5472 85.1412 18.5472 83.411 18.5472C82.8502 18.5472 82.2774 18.5234 81.7166 18.5234C80.5592 18.5234 79.4137 18.5353 78.2562 18.5472C77.5284 18.5472 76.8124 18.5472 76.0846 18.5472C74.0919 18.5472 72.0872 18.5472 70.0945 18.5472C67.6365 18.5472 65.1903 18.5472 62.7323 18.5472C61.7419 18.5472 60.7515 18.5472 59.773 18.5472C58.7469 18.5472 57.7087 18.5472 56.6826 18.5472C55.5848 18.5472 54.487 18.5353 53.4012 18.5353C52.1841 18.5353 50.967 18.5472 49.7499 18.5472C49.1175 18.5472 48.4731 18.5353 47.8407 18.5353C47.6856 18.5353 47.5305 18.5472 47.3634 18.5472C45.8003 18.5472 44.2252 18.5472 42.6621 18.5472C41.3495 18.5472 40.025 18.5472 38.7125 18.5472C37.8175 18.5472 36.9226 18.5472 36.0277 18.5472C34.9896 18.5472 33.9514 18.5472 32.9133 18.5472C31.1712 18.5472 29.4172 18.5472 27.675 18.5472C26.625 18.5472 25.5749 18.5353 24.5249 18.5353C23.9283 18.5353 23.3197 18.5472 22.7231 18.5472C21.6731 18.5472 20.635 18.5353 19.5849 18.5353C18.6422 18.5353 17.7115 18.5472 16.7689 18.5472C16.3632 18.5472 15.9694 18.5472 15.5637 18.5472C15.3847 18.5472 15.3609 18.5114 15.3609 18.3444C15.3609 18.237 15.4086 18.1893 15.516 18.1893C15.5995 18.1893 15.683 18.1893 15.7785 18.1893C32.5076 18.1893 49.2487 18.1893 65.9898 18.1893Z" fill="#151210"/>
<path d="M9.59753 8.20189C9.59753 9.53831 9.43048 10.8509 9.04864 12.1396C8.78613 13.0345 8.42816 13.8936 7.85541 14.6454C7.34232 15.3255 6.69797 15.8386 5.87464 16.0892C5.60019 16.1727 5.30189 16.2324 5.01551 16.2443C4.35923 16.2682 3.70295 16.2085 3.04667 16.125C2.56938 16.0653 2.09209 15.9818 1.61479 16.0295C1.49547 16.0414 1.38808 16.0534 1.26875 16.0534C1.16136 16.0653 1.05397 16.0653 0.94658 16.0534C0.910783 16.0534 0.851122 16.0056 0.839189 15.9698C0.839189 15.934 0.886919 15.8863 0.922716 15.8625C0.958513 15.8386 1.00624 15.8386 1.04204 15.8267C1.29262 15.7789 1.44774 15.6357 1.48354 15.3971C1.53127 15.1226 1.59093 14.8482 1.59093 14.5738C1.61479 13.5118 1.62672 12.4379 1.63866 11.3759C1.65059 9.31159 1.66252 7.25923 1.66252 5.19493C1.66252 4.18069 1.65059 3.17837 1.62672 2.16412C1.62672 1.96127 1.59093 1.74649 1.55513 1.54364C1.5074 1.18567 1.26875 1.00668 0.922716 0.94702C0.886919 0.935088 0.851122 0.935088 0.815324 0.935088C0.755663 0.935088 0.672136 0.935088 0.660204 0.851562C0.648272 0.756103 0.731798 0.732238 0.803392 0.720306C0.874986 0.708373 0.94658 0.708373 1.01817 0.720306C1.38808 0.74417 1.75798 0.779968 2.12788 0.779968C2.50972 0.779968 2.90348 0.74417 3.28532 0.732238C3.76261 0.720306 4.23991 0.720306 4.7172 0.74417C5.03937 0.756103 5.36155 0.7919 5.67179 0.863494C6.7457 1.09021 7.5571 1.69876 8.16565 2.58175C8.66681 3.30962 8.97705 4.12102 9.20376 4.96822C9.37082 5.60064 9.49014 6.23305 9.52594 6.88933C9.56173 7.33082 9.57367 7.76039 9.59753 8.20189ZM2.58131 6.94899H2.56938C2.58131 8.81044 2.59324 10.6838 2.61711 12.5453C2.61711 13.1299 2.64097 13.7027 2.66484 14.2874C2.67677 14.7885 2.86769 15.1704 3.34498 15.3852C3.44044 15.4329 3.54783 15.4687 3.64329 15.4925C4.01319 15.5999 4.3831 15.6238 4.76493 15.6238C5.42121 15.6357 5.99396 15.421 6.49512 15.0391C7.22299 14.4902 7.71222 13.7743 8.01053 12.9271C8.44009 11.71 8.55942 10.4452 8.60715 9.16841C8.61908 8.78657 8.58328 8.3928 8.57135 8.01097C8.54748 7.19957 8.41623 6.4001 8.21338 5.6245C7.97473 4.70571 7.61676 3.83465 7.06787 3.04711C6.66217 2.46243 6.16102 1.98513 5.50474 1.68683C4.84846 1.38852 4.15638 1.31692 3.45237 1.32886C3.27339 1.32886 3.0944 1.36465 2.92735 1.41238C2.71257 1.46011 2.61711 1.59137 2.60518 1.80615C2.59324 2.15219 2.58131 2.51016 2.58131 2.8562C2.58131 4.22842 2.58131 5.5887 2.58131 6.94899Z" fill="#151210"/>
<path d="M54.8927 11.3282C54.9046 12.2827 54.9166 13.2373 54.9404 14.18C54.9524 14.4902 54.9882 14.8124 55.024 15.1226C55.0359 15.23 55.0717 15.3494 55.1194 15.4568C55.191 15.6357 55.3223 15.7431 55.5132 15.7789C55.6206 15.8028 55.7399 15.8147 55.8473 15.8386C55.895 15.8505 55.9428 15.8505 55.9666 15.8625C56.0024 15.8863 56.0382 15.9221 56.0263 15.9579C56.0263 15.9937 55.9786 16.0295 55.9547 16.0414C55.9308 16.0534 55.895 16.0534 55.8712 16.0534C55.5967 16.0534 55.3223 16.0414 55.0598 16.0295C54.6779 16.0295 54.2842 16.0295 53.9023 16.0295C53.7114 16.0295 53.5324 16.0414 53.3415 16.0414C53.2699 16.0414 53.2103 16.0295 53.1983 15.946C53.1864 15.8505 53.258 15.8267 53.3415 15.8147C53.6875 15.7909 53.8427 15.5761 53.8904 15.2539C53.9978 14.6454 54.0217 14.0249 54.0217 13.4163C54.0217 10.0753 54.0217 6.74614 54.0217 3.40508C54.0217 2.98745 54.0217 2.56982 54.0097 2.16412C53.9978 1.94934 53.9739 1.73456 53.9262 1.53171C53.8546 1.17373 53.616 0.982817 53.258 0.923156C53.2103 0.911223 53.1745 0.911223 53.1267 0.911223C53.0551 0.911223 52.9835 0.887359 52.9955 0.815765C53.0074 0.768035 53.079 0.708373 53.1267 0.708373C53.2341 0.696441 53.3534 0.696441 53.4728 0.708373C53.8188 0.732238 54.1529 0.768035 54.4989 0.768035C54.8689 0.768035 55.2268 0.732238 55.5967 0.720306C56.1217 0.696441 56.6468 0.720306 57.136 0.923156C57.7445 1.17373 58.1383 1.62716 58.3889 2.21185C58.7827 3.09484 58.8781 4.0017 58.8065 4.95629C58.7469 5.69609 58.6037 6.41203 58.3531 7.11604C58.1264 7.74846 57.8281 8.34507 57.482 8.90589C57.4224 9.00135 57.3985 9.08488 57.4462 9.2042C58.198 10.8628 58.9258 12.5214 59.7611 14.1323C59.952 14.4902 60.1668 14.8482 60.4293 15.1584C60.7038 15.4806 61.014 15.7312 61.4316 15.8147C61.5271 15.8386 61.6345 15.8386 61.7299 15.8625C61.7777 15.8744 61.8015 15.9221 61.8493 15.9579C61.8015 15.9937 61.7657 16.0295 61.718 16.0534C61.6942 16.0653 61.6464 16.0653 61.6106 16.0653C61.2527 16.0653 60.8947 16.0653 60.5367 16.0653C60.0117 16.0653 59.5941 15.8625 59.2838 15.4329C58.9855 15.0272 58.7707 14.5857 58.5679 14.1442C57.9713 12.772 57.3746 11.3878 56.778 10.0037C56.5513 9.49058 56.5752 9.55024 56.0859 9.53831C55.7757 9.52638 55.4655 9.51444 55.1672 9.50251C54.9285 9.50251 54.8808 9.53831 54.8688 9.78889C54.9046 10.302 54.9046 10.8151 54.8927 11.3282C54.9046 11.3282 54.9046 11.3282 54.8927 11.3282ZM54.9046 5.03981C54.9046 6.11373 54.9046 7.18764 54.9046 8.26155C54.9046 8.53599 55.012 8.70304 55.2626 8.7985C55.549 8.90589 55.8354 8.95362 56.1456 8.97749C56.6468 9.01329 57.0644 8.84623 57.315 8.3928C57.4343 8.17802 57.5417 7.93937 57.6133 7.71266C57.7803 7.19957 57.8519 6.65068 57.8877 6.11373C57.9593 5.2546 57.8997 4.41933 57.7445 3.57214C57.6372 3.03518 57.4701 2.52209 57.1599 2.06866C56.611 1.29306 55.9428 1.20953 55.1552 1.38852C55.012 1.42431 54.9285 1.50784 54.9166 1.65103C54.9046 1.74649 54.9046 1.84195 54.9046 1.92547C54.9046 2.96359 54.9046 4.0017 54.9046 5.03981Z" fill="#151210"/>
<path d="M80.4637 11.8413C80.4637 12.4617 80.4518 13.0703 80.4637 13.6908C80.4757 14.1919 80.5353 14.705 80.583 15.2062C80.595 15.2897 80.6308 15.3732 80.6546 15.4568C80.7262 15.6477 80.8694 15.7551 81.0723 15.7909C81.1797 15.8147 81.2871 15.8267 81.3944 15.8386C81.4183 15.8386 81.4541 15.8386 81.478 15.8505C81.5138 15.8863 81.5496 15.9221 81.5854 15.9698C81.5496 16.0056 81.5138 16.0414 81.478 16.0534C81.4302 16.0653 81.3825 16.0653 81.3348 16.0653C81.0365 16.0534 80.7501 16.0295 80.4518 16.0295C79.9984 16.0295 79.533 16.0534 79.0796 16.0653C79.0199 16.0653 78.9483 16.0653 78.8887 16.0653C78.8171 16.0653 78.7455 16.0414 78.7574 15.9579C78.7574 15.9221 78.8171 15.8744 78.8648 15.8505C78.8887 15.8267 78.9364 15.8386 78.9722 15.8267C79.2228 15.7789 79.3779 15.6357 79.4256 15.3852C79.4614 15.23 79.4972 15.063 79.5091 14.8959C79.533 14.6573 79.5569 14.4067 79.5569 14.1681C79.5688 13.1538 79.5927 12.1396 79.5927 11.1253C79.5927 8.38087 79.5927 5.63643 79.5927 2.90392C79.5927 2.49823 79.5569 2.09253 79.5211 1.68683C79.4733 1.2334 79.2347 1.01861 78.7813 0.958953C78.6977 0.94702 78.5903 0.982817 78.5784 0.851562C78.5665 0.768035 78.6381 0.720306 78.8171 0.732238C79.1512 0.74417 79.4853 0.768035 79.8194 0.768035C80.2609 0.768035 80.7024 0.756103 81.1439 0.732238C81.5615 0.708373 81.9791 0.732238 82.3848 0.827697C83.1366 1.01861 83.6258 1.50784 83.948 2.18798C84.2463 2.83233 84.3775 3.51247 84.4014 4.22842C84.4372 5.86315 83.9838 7.36662 83.1604 8.76271C82.9337 9.14454 82.9337 9.00135 83.1246 9.40705C83.7451 10.7673 84.3656 12.1276 85.01 13.476C85.2367 13.9413 85.4992 14.3948 85.7736 14.8363C85.9287 15.0749 86.1316 15.2778 86.3344 15.4806C86.5731 15.7073 86.8595 15.8147 87.1816 15.8505C87.2413 15.8505 87.301 15.8625 87.3487 15.8863C87.3845 15.8982 87.4203 15.946 87.4203 15.9698C87.4203 16.0056 87.3845 16.0534 87.3487 16.0534C87.301 16.0653 87.2413 16.0653 87.1816 16.0653C86.8356 16.0653 86.4896 16.0653 86.1555 16.0653C85.5827 16.0772 85.1531 15.8267 84.831 15.3613C84.5446 14.9556 84.3298 14.5141 84.127 14.0607C83.5184 12.6765 82.9218 11.2924 82.3371 9.90821C82.2178 9.63377 82.0746 9.51444 81.7763 9.53831C81.4541 9.55024 81.12 9.52638 80.7859 9.51444C80.4995 9.50251 80.4757 9.53831 80.4757 9.81275C80.4518 10.481 80.4518 11.1611 80.4637 11.8413C80.4518 11.8413 80.4518 11.8413 80.4637 11.8413ZM80.4518 5.05175C80.4518 6.13759 80.4518 7.2115 80.4518 8.29734C80.4518 8.50019 80.4995 8.65532 80.6904 8.73884C81.1677 8.96556 81.657 9.03715 82.1701 8.92976C82.5161 8.85816 82.7309 8.60759 82.9099 8.32121C83.1008 7.99904 83.2082 7.64107 83.2917 7.27116C83.4468 6.55522 83.4826 5.82735 83.4707 5.09948C83.4587 4.50286 83.3871 3.90624 83.244 3.32156C83.1246 2.8562 82.9695 2.40277 82.6712 2.009C82.1104 1.25726 81.4541 1.1976 80.6904 1.38852C80.5473 1.42431 80.4757 1.51977 80.4637 1.66296C80.4637 1.72262 80.4637 1.79422 80.4637 1.85388C80.4518 2.92779 80.4518 3.98977 80.4518 5.05175Z" fill="#151210"/>
<path d="M31.1115 0.469727C31.1473 0.58905 31.1951 0.708373 31.2189 0.827697C31.4695 1.91354 31.7082 2.99938 31.9468 4.08523C32.5196 6.61488 33.0804 9.14454 33.6531 11.6742C33.8321 12.4856 34.023 13.297 34.2259 14.0965C34.3214 14.4783 34.4765 14.8363 34.6316 15.2062C34.7509 15.4806 34.9538 15.6954 35.2521 15.7909C35.3356 15.8147 35.4191 15.8267 35.5027 15.8505C35.5623 15.8625 35.6458 15.8744 35.6339 15.9698C35.622 16.0534 35.5504 16.0653 35.4907 16.0653C35.0254 16.0653 34.56 16.0653 34.0946 16.0534C33.9157 16.0534 33.7367 16.0414 33.5577 16.0295C33.51 16.0295 33.4503 16.0295 33.4145 16.0176C33.319 15.9937 33.2832 15.9102 33.3429 15.8386C33.5219 15.6357 33.4861 15.409 33.4264 15.1823C33.2474 14.3351 33.0565 13.4879 32.8656 12.6526C32.6986 11.889 32.5315 11.1372 32.3644 10.3736C32.3525 10.3139 32.3406 10.2662 32.3167 10.2065C32.2929 10.1111 32.2213 10.0633 32.1258 10.0633C32.0781 10.0633 32.0423 10.0633 31.9945 10.0633C31.2667 10.0633 30.5507 10.0633 29.8229 10.0633C29.5484 10.0633 29.5126 10.0872 29.453 10.3736C29.274 11.2685 29.095 12.1515 28.9279 13.0464C28.8444 13.4641 28.7609 13.8698 28.6893 14.2874C28.6416 14.5738 28.6177 14.8601 28.5938 15.1346C28.5819 15.242 28.6058 15.3494 28.6296 15.4568C28.6893 15.6954 28.8325 15.8386 29.0831 15.8744C29.1546 15.8863 29.262 15.8625 29.2501 15.9818C29.2382 16.0892 29.1427 16.0772 29.0592 16.0772C28.9279 16.0772 28.7847 16.0534 28.6535 16.0534C28.3194 16.0534 27.9853 16.0414 27.6512 16.0534C27.3887 16.0534 27.1381 16.0653 26.8756 16.0772C26.8517 16.0772 26.8159 16.0772 26.792 16.0653C26.7562 16.0414 26.7204 16.0056 26.6847 15.9698C26.7204 15.934 26.7443 15.8863 26.7801 15.8744C26.8278 15.8505 26.8875 15.8505 26.9472 15.8505C27.1977 15.8267 27.4125 15.7193 27.5438 15.5164C27.6512 15.3494 27.7705 15.1584 27.8302 14.9675C27.9733 14.4783 28.1046 13.9771 28.212 13.476C28.7967 10.7554 29.3694 8.03483 29.9422 5.31426C30.2524 3.83465 30.5746 2.36697 30.8848 0.887359C30.9087 0.756103 30.9326 0.612915 31.0161 0.493591C31.0758 0.469727 31.0996 0.469727 31.1115 0.469727ZM30.8729 3.46475C30.7774 3.53634 30.7655 3.6318 30.7536 3.72726C30.4433 5.37392 30.1212 7.02058 29.8109 8.67918C29.7751 8.85817 29.7393 9.02522 29.7155 9.2042C29.7035 9.34739 29.7274 9.38319 29.8825 9.39512C29.9183 9.39512 29.9541 9.39512 29.9899 9.39512C30.6104 9.39512 31.2309 9.39512 31.8633 9.39512C32.1258 9.39512 32.1616 9.35932 32.1019 9.08488C32.1019 9.07295 32.09 9.06102 32.09 9.04908C31.911 8.16609 31.732 7.2831 31.553 6.4001C31.3741 5.50518 31.1831 4.61025 31.0042 3.71532C30.9803 3.61987 30.9803 3.52441 30.8729 3.46475Z" fill="#151210"/>
<path d="M131.439 13.3567C131.439 13.5237 131.451 13.6908 131.439 13.8698C131.403 14.3232 131.367 14.7647 131.319 15.2181C131.296 15.3971 131.272 15.588 131.236 15.767C131.176 16.0534 131.105 16.1011 130.818 16.125C130.592 16.1369 130.365 16.1369 130.126 16.125C129.541 16.113 128.969 16.0892 128.384 16.0653C127.895 16.0534 127.418 16.0414 126.928 16.0295C126.725 16.0295 126.535 16.0534 126.332 16.0653C126.284 16.0653 126.224 16.0772 126.188 16.0534C126.153 16.0414 126.117 15.9937 126.081 15.9698C126.117 15.934 126.141 15.8863 126.177 15.8505C126.2 15.8267 126.248 15.8386 126.284 15.8267C126.546 15.7909 126.714 15.6477 126.749 15.3971C126.809 15.063 126.869 14.7289 126.881 14.3948C126.916 13.4998 126.928 12.6049 126.928 11.71C126.928 9.12068 126.928 6.54329 126.928 3.95397C126.928 3.27383 126.904 2.59368 126.892 1.91354C126.892 1.84195 126.881 1.77035 126.869 1.69876C126.797 1.18567 126.558 0.958953 126.057 0.923156C125.986 0.923156 125.914 0.911223 125.914 0.827697C125.914 0.732238 125.986 0.708373 126.057 0.708373C126.117 0.708373 126.188 0.708373 126.248 0.708373C126.618 0.732238 126.976 0.768035 127.346 0.768035C127.692 0.768035 128.05 0.732238 128.396 0.720306C128.491 0.720306 128.599 0.708373 128.694 0.708373C128.766 0.708373 128.826 0.756103 128.814 0.827697C128.802 0.863494 128.742 0.911223 128.694 0.923156C128.611 0.94702 128.527 0.958953 128.444 0.970885C128.205 1.01861 128.05 1.14987 127.99 1.37658C127.943 1.54364 127.907 1.71069 127.895 1.87774C127.871 2.36697 127.847 2.86813 127.847 3.35735C127.847 6.41203 127.847 9.45478 127.859 12.5095C127.859 13.1299 127.931 13.7504 127.966 14.3709C127.966 14.4306 127.99 14.5022 128.002 14.5618C128.074 15.0153 128.336 15.2658 128.778 15.3374C129.255 15.421 129.744 15.4329 130.234 15.3494C130.651 15.2897 130.938 15.0511 131.081 14.6573C131.224 14.2874 131.307 13.8936 131.355 13.4879C131.367 13.4402 131.379 13.3805 131.391 13.3328C131.391 13.3447 131.415 13.3447 131.439 13.3567Z" fill="#151210"/>
<path d="M105.092 8.07063C105.092 6.19725 105.092 4.32387 105.092 2.4505C105.092 2.16412 105.056 1.87774 105.02 1.6033C104.973 1.2334 104.77 1.00668 104.388 0.958953C104.316 0.94702 104.233 0.94702 104.245 0.839629C104.257 0.74417 104.328 0.732238 104.4 0.732238C104.71 0.74417 105.032 0.768035 105.343 0.768035C105.725 0.768035 106.094 0.74417 106.476 0.732238C106.572 0.732238 106.667 0.720306 106.751 0.732238C106.798 0.74417 106.846 0.7919 106.858 0.839629C106.87 0.911223 106.822 0.935088 106.751 0.94702C106.739 0.94702 106.739 0.94702 106.727 0.94702C106.285 1.06634 106.13 1.1976 106.094 1.66296C106.047 2.21185 106.023 2.77267 106.011 3.33349C106.011 6.51943 106.011 9.70536 106.011 12.8913C106.011 13.5595 106.047 14.2158 106.094 14.884C106.106 15.063 106.154 15.2539 106.214 15.421C106.273 15.6357 106.429 15.7551 106.643 15.7909C106.751 15.8147 106.87 15.8267 106.977 15.8386C107.013 15.8505 107.061 15.8505 107.097 15.8744C107.168 15.9102 107.156 16.0056 107.085 16.0414C107.049 16.0534 107.013 16.0653 106.977 16.0534C106.703 16.0534 106.429 16.0414 106.166 16.0414C105.76 16.0414 105.367 16.0414 104.961 16.0414C104.77 16.0414 104.579 16.0534 104.376 16.0534C104.305 16.0534 104.245 16.0414 104.233 15.9579C104.221 15.8744 104.293 15.8386 104.352 15.8386C104.77 15.8147 104.913 15.5403 104.949 15.1823C104.997 14.6573 105.056 14.1442 105.056 13.6192C105.104 11.7697 105.092 9.92014 105.092 8.07063Z" fill="#151210"/>
<path d="M57.1957 20.6115C57.2195 20.6115 57.2315 20.6115 57.2553 20.6115C57.8877 20.6115 58.5082 20.5996 59.1406 20.6115C59.3673 20.6115 59.5941 20.6473 59.8208 20.707C60.2861 20.8263 60.6322 21.1127 60.7515 21.59C60.835 21.9002 60.7873 22.2105 60.656 22.5088C60.5248 22.8309 60.2981 23.0935 60.0475 23.3321C59.8685 23.5111 59.8685 23.5111 60.0356 23.702C60.4174 24.1554 60.7992 24.6089 61.1811 25.0623C61.2885 25.1816 61.4078 25.3009 61.5271 25.4203C61.7896 25.6708 62.0998 25.8498 62.4697 25.8856C62.5294 25.8856 62.5771 25.9095 62.6726 25.9214C62.3624 25.9214 62.0879 25.9214 61.8135 25.9214C61.4674 25.9214 61.1572 25.814 60.9305 25.5515C60.6083 25.1816 60.2981 24.7998 59.9878 24.4179C59.8327 24.227 59.6895 24.0361 59.5463 23.8333C59.4509 23.702 59.3435 23.6304 59.1764 23.6304C58.9616 23.6423 58.7469 23.6065 58.5321 23.6065C58.3173 23.6065 58.2934 23.6304 58.2934 23.8452C58.2934 24.2628 58.2934 24.6805 58.2934 25.0862C58.2934 25.2413 58.3173 25.3845 58.3412 25.5396C58.377 25.7424 58.4724 25.826 58.6872 25.8618C58.7707 25.8737 58.8543 25.8856 58.9378 25.9095C58.3889 25.9095 57.84 25.9095 57.2911 25.9095C57.2911 25.8976 57.3031 25.8976 57.3031 25.8976C57.6252 25.8021 57.7088 25.7066 57.7207 25.3487C57.7326 24.943 57.7565 24.5492 57.7565 24.1435C57.7565 23.3082 57.7565 22.473 57.7565 21.6258C57.7565 21.4229 57.7445 21.2081 57.7207 21.0053C57.6968 20.7666 57.6014 20.6593 57.3627 20.6235C57.3031 20.6115 57.2553 20.5996 57.1957 20.5877C57.1957 20.6235 57.1957 20.6115 57.1957 20.6115ZM58.2815 22.115C58.2815 22.461 58.2815 22.819 58.2815 23.165C58.2815 23.344 58.3173 23.4037 58.4963 23.4276C58.723 23.4634 58.9616 23.5111 59.2003 23.4992C59.7134 23.4872 60.0117 23.2486 60.1549 22.7593C60.2623 22.3775 60.2623 21.9837 60.131 21.6019C59.964 21.1127 59.6179 20.8382 59.1048 20.7786C58.9139 20.7547 58.723 20.7666 58.5321 20.7786C58.3412 20.7905 58.2934 20.8382 58.2934 21.0292C58.2815 21.3991 58.2815 21.757 58.2815 22.115Z" fill="#151210"/>
<path d="M45.9196 25.9333C45.4781 25.9333 45.0366 25.9333 44.5712 25.9333C44.6548 25.7663 44.5951 25.635 44.5354 25.5038C44.3445 25.0265 44.1536 24.5492 43.9627 24.0719C43.8792 23.8571 43.8672 23.8452 43.6286 23.8452C43.1871 23.8452 42.7575 23.8452 42.316 23.8452C42.1012 23.8452 42.0893 23.8571 42.0177 24.048C41.8626 24.4657 41.7194 24.8833 41.5643 25.3009C41.5404 25.3487 41.5285 25.4083 41.5166 25.468C41.445 25.7782 41.5046 25.8618 41.8507 25.9453C41.3495 25.9453 40.8722 25.9453 40.4068 25.9453C40.4068 25.9453 40.4068 25.9333 40.4188 25.9333C40.8245 25.9095 41.0393 25.6708 41.1824 25.3129C41.6597 24.06 42.149 22.819 42.6263 21.5661C42.7337 21.3036 42.8291 21.0292 42.9365 20.7666C42.9723 20.6951 43.0081 20.6115 43.0678 20.4922C43.1274 20.6115 43.1752 20.6712 43.199 20.7547C43.557 21.6377 43.915 22.5207 44.2729 23.4037C44.4877 23.9168 44.6906 24.4418 44.9053 24.9549C44.9769 25.1339 45.0605 25.3129 45.1559 25.4799C45.2991 25.7305 45.49 25.8976 45.7883 25.9333C45.848 25.9095 45.8838 25.9214 45.9196 25.9333ZM42.9484 21.4945C42.9007 21.59 42.853 21.6496 42.8291 21.7212C42.6382 22.2821 42.4353 22.8548 42.2444 23.4276C42.2206 23.4872 42.2206 23.5588 42.1967 23.6662C42.3996 23.6662 42.5666 23.6662 42.7337 23.6662C42.9007 23.6662 43.0678 23.6781 43.2229 23.6662C43.3899 23.6543 43.557 23.7139 43.736 23.6185C43.724 23.5588 43.724 23.5111 43.7002 23.4753C43.4854 22.8906 43.2706 22.294 43.0439 21.7093C43.0439 21.6258 42.9962 21.578 42.9484 21.4945Z" fill="#151210"/>
<path d="M91.9546 20.6235C91.9546 20.7786 91.9546 20.9098 91.9546 21.0411C91.9546 21.1723 91.9307 21.2917 91.9188 21.4468C91.9068 21.411 91.8949 21.3991 91.8949 21.3752C91.8353 20.9695 91.5608 20.7786 91.179 20.707C90.9403 20.6593 90.6897 20.6593 90.463 20.7308C89.9022 20.9098 89.6755 21.5422 90.0096 22.0315C90.1289 22.2105 90.284 22.3536 90.4511 22.4968C90.7494 22.7474 91.0716 22.9741 91.3818 23.2247C91.525 23.344 91.6563 23.4872 91.7875 23.6423C92.3722 24.3463 92.1694 25.5754 91.1193 25.9095C90.5824 26.0885 90.0335 26.0765 89.4965 25.8976C89.2937 25.826 89.2459 25.7663 89.2579 25.5515C89.2698 25.3129 89.2937 25.0742 89.3414 24.8236C89.3414 24.8714 89.3533 24.931 89.3533 24.9788C89.3891 25.2771 89.5323 25.5157 89.8067 25.6708C90.2124 25.8856 90.6301 25.9095 91.0477 25.7424C91.5608 25.5396 91.7875 24.931 91.5489 24.406C91.4415 24.1554 91.2506 23.9526 91.0358 23.7855C90.7494 23.5588 90.463 23.3321 90.1886 23.0935C90.0215 22.9383 89.8664 22.7713 89.7232 22.5923C89.4488 22.2582 89.4011 21.8525 89.4846 21.4587C89.6039 20.9456 89.9857 20.6712 90.475 20.5638C90.8807 20.4683 91.2864 20.5041 91.6921 20.5757C91.7637 20.5877 91.8472 20.5996 91.9546 20.6235Z" fill="#151210"/>
<path d="M76.2039 25.9333C75.655 25.9333 75.1061 25.9333 74.5572 25.9333C74.5691 25.9214 74.5692 25.9214 74.5692 25.9095C74.9033 25.814 74.9749 25.7305 74.9868 25.3606C75.0107 24.8714 75.0226 24.3941 75.0226 23.9049C75.0226 23.0219 75.0226 22.1269 75.0226 21.2439C75.0226 21.1843 75.0226 21.1246 75.0226 21.0769C75.0226 20.8621 74.9868 20.8263 74.772 20.8382C74.3663 20.8502 73.9606 20.8621 73.5549 20.874C73.3043 20.886 73.1134 20.9934 72.9941 21.2201C72.9702 21.2678 72.9464 21.3036 72.8867 21.3275C72.9464 21.065 73.0179 20.8024 73.0776 20.5519C74.3902 20.707 75.6789 20.6115 76.9676 20.6354C77.1704 20.6354 77.3613 20.5996 77.588 20.5877C77.6238 20.8502 77.588 21.1127 77.588 21.3633C77.5642 21.3633 77.5522 21.3513 77.5522 21.3513C77.5403 21.0888 77.3613 20.9695 77.1346 20.9337C76.9556 20.8979 76.7647 20.886 76.5857 20.874C76.3113 20.8621 76.0368 20.8502 75.7743 20.8502C75.6311 20.8502 75.5953 20.886 75.5834 21.0292C75.5834 21.0888 75.5834 21.1485 75.5834 21.1962C75.5834 22.3298 75.5834 23.4753 75.5953 24.6089C75.5953 24.9191 75.6192 25.2293 75.655 25.5277C75.6908 25.8021 75.7743 25.8618 76.0488 25.8976C76.1084 25.9095 76.1681 25.9214 76.2277 25.9333C76.2039 25.9214 76.2039 25.9333 76.2039 25.9333Z" fill="#151210"/>
</svg>
