<svg width="18" height="14" viewBox="0 0 18 14" fill="none" xmlns="http://www.w3.org/2000/svg">
<path d="M5.31453 4.2175H4.64458V3.54755C4.64458 3.40866 4.55671 3.28494 4.42554 3.23918C4.22118 3.16791 4.0066 3.13176 3.78776 3.13176C3.56891 3.13176 3.35433 3.16791 3.14997 3.23918C3.0188 3.28494 2.93093 3.40866 2.93093 3.54755V4.2175H2.26106C2.12217 4.2175 1.99849 4.30537 1.95273 4.4365C1.88142 4.64082 1.84527 4.85544 1.84527 5.07433C1.84527 5.29321 1.88142 5.50783 1.95273 5.71215C1.99849 5.84328 2.12221 5.93112 2.26106 5.93112H2.93101V6.60106C2.93101 6.73996 3.01887 6.86363 3.15001 6.90939C3.35433 6.9807 3.56895 7.01686 3.78783 7.01686C4.00672 7.01686 4.22134 6.9807 4.42566 6.90939C4.55679 6.86363 4.64466 6.73996 4.64466 6.60106V5.93112H5.31461C5.4535 5.93112 5.57721 5.84325 5.62297 5.71211C5.69424 5.50779 5.7304 5.29321 5.7304 5.07433C5.7304 4.85548 5.69424 4.6409 5.62297 4.43654C5.57714 4.30537 5.45346 4.2175 5.31453 4.2175ZM5.06126 5.27796H4.31804C4.13769 5.27796 3.99146 5.42419 3.99146 5.60454V6.34775C3.85772 6.369 3.71791 6.36896 3.58416 6.34775V5.60454C3.58416 5.42419 3.43793 5.27796 3.25758 5.27796H2.51437C2.50376 5.21107 2.49842 5.14306 2.49842 5.07433C2.49842 5.00559 2.50376 4.93755 2.51437 4.87065H3.25758C3.43793 4.87065 3.58416 4.72442 3.58416 4.54408V3.8009C3.71794 3.77965 3.85772 3.77965 3.99146 3.8009V4.54408C3.99146 4.72442 4.13769 4.87065 4.31804 4.87065H5.06122C5.07182 4.93755 5.07716 5.00555 5.07716 5.07433C5.07716 5.14306 5.07182 5.2111 5.06126 5.27796Z" fill="#F9B611"/>
<path d="M9.77169 4.39628H9.77277C10.08 4.39594 10.3283 4.14651 10.3276 3.8393C10.3268 3.53243 10.0778 3.28415 9.77058 3.28454C9.46371 3.28527 9.21505 3.5347 9.21582 3.84153C9.21651 4.14835 9.46517 4.39628 9.77169 4.39628Z" fill="#F9B611"/>
<path d="M15.8931 4.79494C15.3148 4.17106 14.3711 4.09928 13.6978 4.62819C13.5138 4.77273 13.2991 4.89645 13.0625 4.99799C12.8026 3.49634 12.1204 2.11849 11.0729 0.988908C10.4947 0.36495 9.55098 0.293102 8.87746 0.822007C8.32035 1.25989 7.48661 1.51105 6.59006 1.51105C5.69327 1.51105 4.85942 1.25989 4.30228 0.821968C3.62937 0.293141 2.68563 0.364911 2.10693 0.988869C0.74825 2.45483 0 4.36328 0 6.36267C0 7.11184 0.104966 7.85379 0.312056 8.56796C0.463435 9.08987 0.865396 9.49625 1.38723 9.65501C1.54261 9.70227 1.70132 9.72544 1.8587 9.72544C2.23053 9.72544 2.59461 9.59615 2.88769 9.35044C3.52636 8.81455 4.27031 8.42607 5.06624 8.20815C4.90426 8.8429 4.82027 9.50082 4.82027 10.169C4.82027 10.9186 4.9252 11.6605 5.13213 12.3741C5.28351 12.8961 5.68547 13.3026 6.20746 13.4613C6.36276 13.5085 6.52136 13.5316 6.67866 13.5316C7.05053 13.5316 7.41469 13.4023 7.70765 13.1565C8.74237 12.2884 10.0573 11.8103 11.4101 11.8103C12.763 11.8103 14.0779 12.2884 15.1126 13.1565C15.5295 13.5063 16.0903 13.6202 16.6128 13.4613C17.1348 13.3026 17.5367 12.8962 17.6881 12.3742C17.895 11.6606 18 10.9187 18 10.1691C18 8.16934 17.2517 6.26082 15.8931 4.79494ZM2.39386 8.76168C2.17336 8.94652 1.88797 9.00419 1.61092 8.91986C1.3344 8.83576 1.12996 8.62944 1.05005 8.35396C0.863168 7.70937 0.768421 7.03938 0.768421 6.36267C0.768421 4.55761 1.44394 2.83466 2.67046 1.51128C2.97456 1.18332 3.47196 1.1467 3.82747 1.4261C4.5174 1.96841 5.52433 2.27943 6.5901 2.27943C7.65559 2.27943 8.66241 1.96841 9.35219 1.42622C9.70816 1.14674 10.2054 1.18336 10.5094 1.51128C11.4775 2.55526 12.0996 3.83383 12.3213 5.22648C12.0612 5.27947 11.7876 5.30974 11.5069 5.31543C11.5435 5.241 11.5644 5.15752 11.5641 5.06892C11.5634 4.76209 11.3136 4.51377 11.0064 4.51489C10.6995 4.51562 10.4516 4.76539 10.4524 5.07261C10.4526 5.12424 10.4603 5.174 10.4737 5.22141C9.94767 5.11091 9.47852 4.90786 9.12247 4.62819C8.44925 4.09932 7.50552 4.17102 6.9272 4.79494C6.22951 5.54764 5.69327 6.4173 5.33619 7.35585C4.25579 7.56617 3.24262 8.04947 2.39386 8.76168ZM16.9501 12.1601C16.8702 12.4357 16.6658 12.642 16.3892 12.7261C16.1122 12.8103 15.8269 12.7527 15.6065 12.5677C14.4336 11.5837 12.9433 11.0418 11.4101 11.0418C9.87694 11.0418 8.38667 11.5837 7.21379 12.5677C6.99344 12.7526 6.70824 12.8103 6.43103 12.7261C6.15452 12.642 5.95004 12.4357 5.87016 12.1601C5.6834 11.516 5.58869 10.8461 5.58869 10.169C5.58869 8.36364 6.26421 6.64061 7.49076 5.31731C7.65786 5.13704 7.88343 5.0449 8.1118 5.0449C8.29876 5.0449 8.48764 5.10669 8.64774 5.23248C9.33786 5.7746 10.3447 6.08554 11.4101 6.08554C12.4755 6.08554 13.4824 5.7746 14.1725 5.23248C14.5282 4.95304 15.0255 4.98942 15.3294 5.31731C16.556 6.64065 17.2315 8.36368 17.2315 10.169C17.2316 10.8462 17.1369 11.516 16.9501 12.1601Z" fill="#F9B611"/>
<path d="M10.1346 8.02422H9.46461V7.35431C9.46461 7.21542 9.37674 7.0917 9.24561 7.04595C9.04129 6.97467 8.82671 6.93852 8.60782 6.93852C8.38898 6.93852 8.1744 6.97467 7.97004 7.04595C7.83887 7.0917 7.751 7.21542 7.751 7.35431V8.02426H7.08109C6.9422 8.02426 6.81852 8.11213 6.77276 8.24326C6.70146 8.44758 6.6653 8.6622 6.6653 8.88109C6.6653 9.09997 6.70146 9.31459 6.77276 9.51892C6.81852 9.65005 6.9422 9.73792 7.08109 9.73792H7.751V10.4078C7.751 10.5467 7.83887 10.6704 7.97 10.7162C8.17436 10.7875 8.38898 10.8236 8.60782 10.8236C8.82671 10.8236 9.04133 10.7875 9.24565 10.7162C9.37678 10.6704 9.46461 10.5467 9.46461 10.4078V9.73792H10.1346C10.2734 9.73792 10.3971 9.65009 10.4429 9.51895C10.5142 9.31467 10.5503 9.10005 10.5503 8.88109C10.5503 8.66213 10.5142 8.44751 10.4429 8.24322C10.3971 8.11205 10.2734 8.02422 10.1346 8.02422ZM9.88125 9.08472H9.13803C8.95769 9.08472 8.81145 9.23095 8.81145 9.4113V10.1545C8.67771 10.1757 8.5379 10.1757 8.40415 10.1545V9.4113C8.40415 9.23095 8.25793 9.08472 8.07758 9.08472H7.3344C7.3238 9.01783 7.31846 8.94982 7.31846 8.88105C7.31846 8.81228 7.3238 8.74427 7.3344 8.67738H8.07758C8.25793 8.67738 8.40415 8.53115 8.40415 8.3508V7.60762C8.53794 7.58638 8.67771 7.58641 8.81145 7.60762V8.35084C8.81145 8.53119 8.95769 8.67742 9.13803 8.67742H9.88125C9.89185 8.74431 9.89719 8.81231 9.89719 8.88109C9.89719 8.94986 9.89185 9.01783 9.88125 9.08472Z" fill="#F9B611"/>
<path d="M15.8285 9.43298H15.83C16.1372 9.43186 16.3852 9.18244 16.3844 8.87523C16.3833 8.56841 16.1339 8.3201 15.8267 8.32121C15.5198 8.32194 15.2715 8.57171 15.2727 8.87858C15.2734 9.18505 15.522 9.43298 15.8285 9.43298Z" fill="#F9B611"/>
<path d="M13.3595 8.32617C13.0526 8.32656 12.804 8.57556 12.8044 8.88277C12.8048 9.1896 13.0538 9.4383 13.361 9.43791C13.6679 9.43753 13.9165 9.18853 13.9161 8.88166C13.9157 8.57448 13.6667 8.32583 13.3595 8.32617Z" fill="#F9B611"/>
<path d="M14.5976 9.55914C14.5942 9.55914 14.5913 9.55914 14.5879 9.55914C14.2841 9.56283 14.0387 9.81003 14.0387 10.115C14.0387 10.4218 14.2877 10.6709 14.5946 10.6709H14.602C14.9088 10.6698 15.1568 10.4196 15.1557 10.1128C15.1542 9.80557 14.9044 9.55764 14.5976 9.55914Z" fill="#F9B611"/>
<path d="M14.5919 8.2022H14.593C14.9002 8.20147 15.1485 7.95208 15.1478 7.64522C15.147 7.338 14.8976 7.08969 14.5908 7.09045C14.2836 7.09118 14.0353 7.34061 14.036 7.64744C14.0363 7.95393 14.2854 8.2022 14.5919 8.2022Z" fill="#F9B611"/>
</svg>
