<svg width="24" height="24" viewBox="0 0 24 24" fill="none" xmlns="http://www.w3.org/2000/svg">
<path d="M17 15.4C16.3667 15.4 15.8 15.65 15.3667 16.0417L9.425 12.5833C9.46667 12.3917 9.5 12.2 9.5 12C9.5 11.8 9.46667 11.6083 9.425 11.4167L15.3 7.99166C15.75 8.40832 16.3417 8.66666 17 8.66666C18.3833 8.66666 19.5 7.54999 19.5 6.16666C19.5 4.78332 18.3833 3.66666 17 3.66666C15.6167 3.66666 14.5 4.78332 14.5 6.16666C14.5 6.36666 14.5333 6.55832 14.575 6.74999L8.7 10.175C8.25 9.75832 7.65833 9.49999 7 9.49999C5.61667 9.49999 4.5 10.6167 4.5 12C4.5 13.3833 5.61667 14.5 7 14.5C7.65833 14.5 8.25 14.2417 8.7 13.825L14.6333 17.2917C14.5917 17.4667 14.5667 17.65 14.5667 17.8333C14.5667 19.175 15.6583 20.2667 17 20.2667C18.3417 20.2667 19.4333 19.175 19.4333 17.8333C19.4333 16.4917 18.3417 15.4 17 15.4Z" fill="#151210"/>
</svg>
