<svg width="14" height="14" viewBox="0 0 14 14" fill="none" xmlns="http://www.w3.org/2000/svg">
<path d="M12.4895 6.75496L7.23949 1.50496C7.02949 1.29496 6.73783 1.16663 6.41699 1.16663H2.33366C1.69199 1.16663 1.16699 1.69163 1.16699 2.33329V6.41663C1.16699 6.73746 1.29533 7.02913 1.51116 7.24496L6.76116 12.495C6.97116 12.705 7.26283 12.8333 7.58366 12.8333C7.90449 12.8333 8.19616 12.705 8.40616 12.4891L12.4895 8.40579C12.7053 8.19579 12.8337 7.90413 12.8337 7.58329C12.8337 7.26246 12.6995 6.96496 12.4895 6.75496ZM3.20866 4.08329C2.72449 4.08329 2.33366 3.69246 2.33366 3.20829C2.33366 2.72413 2.72449 2.33329 3.20866 2.33329C3.69283 2.33329 4.08366 2.72413 4.08366 3.20829C4.08366 3.69246 3.69283 4.08329 3.20866 4.08329Z" fill="#151210"/>
</svg>
