<svg width="24" height="24" viewBox="0 0 24 24" fill="none" xmlns="http://www.w3.org/2000/svg">
<path d="M7.90503 8.90829H7.16065V8.1639C7.16065 8.00958 7.06301 7.87212 6.91727 7.82127C6.6902 7.74208 6.45178 7.70191 6.20862 7.70191C5.96546 7.70191 5.72703 7.74208 5.49996 7.82127C5.35422 7.87212 5.25659 8.00958 5.25659 8.1639V8.90829H4.51229C4.35796 8.90829 4.22054 9.00592 4.1697 9.15162C4.09047 9.37865 4.0503 9.61712 4.0503 9.86032C4.0503 10.1035 4.09047 10.342 4.1697 10.569C4.22054 10.7147 4.35801 10.8123 4.51229 10.8123H5.25667V11.5567C5.25667 11.711 5.35431 11.8484 5.50001 11.8993C5.72703 11.9785 5.9655 12.0187 6.2087 12.0187C6.45191 12.0187 6.69037 11.9785 6.9174 11.8993C7.0631 11.8484 7.16073 11.711 7.16073 11.5567V10.8123H7.90512C8.05944 10.8123 8.1969 10.7147 8.24775 10.569C8.32694 10.342 8.36711 10.1035 8.36711 9.86032C8.36711 9.61716 8.32694 9.37874 8.24775 9.15167C8.19682 9.00592 8.0594 8.90829 7.90503 8.90829ZM7.62362 10.0866H6.79782C6.59744 10.0866 6.43496 10.2491 6.43496 10.4494V11.2752C6.28636 11.2989 6.13101 11.2988 5.9824 11.2752V10.4494C5.9824 10.2491 5.81992 10.0866 5.61954 10.0866H4.79374C4.78196 10.0123 4.77603 9.9367 4.77603 9.86032C4.77603 9.78395 4.78196 9.70835 4.79374 9.63402H5.61954C5.81992 9.63402 5.9824 9.47154 5.9824 9.27116V8.4454C6.13105 8.4218 6.28636 8.4218 6.43496 8.4454V9.27116C6.43496 9.47154 6.59744 9.63402 6.79782 9.63402H7.62358C7.63536 9.70835 7.64129 9.78391 7.64129 9.86032C7.64129 9.9367 7.63536 10.0123 7.62362 10.0866Z" fill="#151210"/>
<path d="M12.8574 9.10694H12.8586C13.2 9.10656 13.4759 8.82942 13.4751 8.48807C13.4742 8.1471 13.1975 7.87124 12.8562 7.87167C12.5152 7.87248 12.2389 8.14962 12.2398 8.49054C12.2406 8.83147 12.5169 9.10694 12.8574 9.10694Z" fill="#151210"/>
<path d="M19.659 9.54989C19.0165 8.85669 17.9679 8.77694 17.2198 9.36462C17.0153 9.52522 16.7768 9.66268 16.5139 9.77551C16.2251 8.10701 15.4671 6.57606 14.3032 5.32097C13.6608 4.62768 12.6122 4.54785 11.8638 5.13552C11.2448 5.62206 10.3185 5.90113 9.32229 5.90113C8.32586 5.90113 7.39936 5.62206 6.78031 5.13548C6.03263 4.5479 4.98404 4.62764 4.34104 5.32093C2.83139 6.94977 2 9.07027 2 11.2918C2 12.1242 2.11663 12.9486 2.34673 13.7421C2.51493 14.322 2.96155 14.7736 3.54137 14.95C3.71401 15.0025 3.89036 15.0282 4.06522 15.0282C4.47837 15.0282 4.8829 14.8846 5.20854 14.6116C5.91818 14.0161 6.74479 13.5845 7.62916 13.3423C7.44917 14.0476 7.35585 14.7787 7.35585 15.5211C7.35585 16.354 7.47244 17.1783 7.70237 17.9712C7.87057 18.5512 8.31719 19.0028 8.89718 19.1791C9.06973 19.2316 9.24596 19.2573 9.42073 19.2573C9.83393 19.2573 10.2385 19.1136 10.5641 18.8405C11.7137 17.8759 13.1748 17.3447 14.6779 17.3447C16.1811 17.3447 17.6421 17.8759 18.7918 18.8405C19.255 19.2291 19.8781 19.3557 20.4586 19.1792C21.0386 19.0028 21.4852 18.5513 21.6534 17.9713C21.8834 17.1784 22 16.354 22 15.5212C22 13.2992 21.1686 11.1786 19.659 9.54989ZM4.65985 13.9574C4.41485 14.1628 4.09775 14.2268 3.78991 14.1331C3.48267 14.0397 3.25551 13.8104 3.16672 13.5044C2.95908 12.7881 2.8538 12.0437 2.8538 11.2918C2.8538 9.28619 3.60438 7.3718 4.96717 5.90138C5.30507 5.53698 5.85773 5.4963 6.25274 5.80674C7.01933 6.40931 8.13815 6.75489 9.32233 6.75489C10.5062 6.75489 11.6249 6.40931 12.3913 5.80687C12.7868 5.49634 13.3394 5.53702 13.6771 5.90138C14.7528 7.06136 15.444 8.482 15.6903 10.0294C15.4013 10.0883 15.0973 10.1219 14.7854 10.1282C14.8261 10.0455 14.8494 9.95276 14.849 9.85431C14.8482 9.51339 14.5706 9.23748 14.2293 9.23872C13.8884 9.23953 13.6129 9.51706 13.6137 9.85841C13.614 9.91579 13.6226 9.97107 13.6374 10.0238C13.053 9.90097 12.5317 9.67536 12.1361 9.36462C11.3881 8.77699 10.3395 8.85665 9.69689 9.54989C8.92168 10.3862 8.32586 11.3525 7.9291 12.3954C6.72865 12.629 5.60291 13.166 4.65985 13.9574ZM20.8335 17.7334C20.7447 18.0396 20.5175 18.2688 20.2102 18.3623C19.9025 18.4559 19.5854 18.3918 19.3406 18.1863C18.0374 17.093 16.3815 16.4909 14.6779 16.4909C12.9744 16.4909 11.3185 17.093 10.0153 18.1863C9.77049 18.3918 9.4536 18.4559 9.14559 18.3623C8.83835 18.2688 8.61116 18.0396 8.5224 17.7334C8.31489 17.0178 8.20966 16.2734 8.20966 15.5211C8.20966 13.5151 8.96023 11.6006 10.3231 10.1303C10.5087 9.93 10.7594 9.82763 11.0131 9.82763C11.2208 9.82763 11.4307 9.89628 11.6086 10.036C12.3754 10.6384 13.4941 10.9839 14.6779 10.9839C15.8616 10.9839 16.9804 10.6384 17.7472 10.036C18.1424 9.72556 18.695 9.76599 19.0327 10.1303C20.3955 11.6007 21.1461 13.5152 21.1461 15.5211C21.1462 16.2735 21.041 17.0178 20.8335 17.7334Z" fill="#151210"/>
<path d="M13.2606 13.138H12.5162V12.3936C12.5162 12.2393 12.4186 12.1019 12.2729 12.051C12.0459 11.9718 11.8075 11.9316 11.5642 11.9316C11.3211 11.9316 11.0827 11.9718 10.8556 12.051C10.7099 12.1019 10.6122 12.2393 10.6122 12.3936V13.138H9.86788C9.71356 13.138 9.57614 13.2357 9.52529 13.3814C9.44606 13.6084 9.40589 13.8469 9.40589 14.0901C9.40589 14.3333 9.44606 14.5717 9.52529 14.7988C9.57614 14.9445 9.71356 15.0421 9.86788 15.0421H10.6122V15.7864C10.6122 15.9408 10.7099 16.0782 10.8556 16.129C11.0826 16.2083 11.3211 16.2484 11.5642 16.2484C11.8075 16.2484 12.0459 16.2083 12.2729 16.129C12.4186 16.0782 12.5162 15.9407 12.5162 15.7864V15.0421H13.2606C13.4149 15.0421 13.5524 14.9445 13.6032 14.7988C13.6824 14.5718 13.7226 14.3334 13.7226 14.0901C13.7226 13.8468 13.6824 13.6083 13.6032 13.3813C13.5524 13.2356 13.4149 13.138 13.2606 13.138ZM12.9792 14.3163H12.1534C11.953 14.3163 11.7905 14.4788 11.7905 14.6792V15.5049C11.6419 15.5285 11.4866 15.5285 11.3379 15.5049V14.6792C11.3379 14.4788 11.1755 14.3163 10.9751 14.3163H10.1493C10.1376 14.242 10.1316 14.1664 10.1316 14.09C10.1316 14.0136 10.1376 13.938 10.1493 13.8637H10.9751C11.1755 13.8637 11.3379 13.7012 11.3379 13.5009V12.6751C11.4866 12.6515 11.6419 12.6515 11.7905 12.6751V13.5009C11.7905 13.7013 11.953 13.8638 12.1534 13.8638H12.9792C12.9909 13.9381 12.9969 14.0136 12.9969 14.0901C12.9969 14.1665 12.9909 14.242 12.9792 14.3163Z" fill="#151210"/>
<path d="M19.5872 14.7033H19.5889C19.9303 14.702 20.2057 14.4249 20.2049 14.0836C20.2037 13.7426 19.9266 13.4667 19.5852 13.468C19.2443 13.4688 18.9684 13.7463 18.9696 14.0873C18.9704 14.4278 19.2467 14.7033 19.5872 14.7033Z" fill="#151210"/>
<path d="M16.8439 13.4735C16.5029 13.4739 16.2266 13.7506 16.2271 14.0919C16.2275 14.4329 16.5042 14.7092 16.8455 14.7088C17.1865 14.7083 17.4628 14.4317 17.4624 14.0907C17.4619 13.7494 17.1852 13.4731 16.8439 13.4735Z" fill="#151210"/>
<path d="M18.2195 14.8435C18.2158 14.8435 18.2125 14.8435 18.2088 14.8435C17.8712 14.8475 17.5986 15.1222 17.5986 15.4611C17.5986 15.802 17.8752 16.0787 18.2162 16.0787H18.2245C18.5654 16.0775 18.8409 15.7995 18.8396 15.4586C18.838 15.1173 18.5605 14.8418 18.2195 14.8435Z" fill="#151210"/>
<path d="M18.2132 13.3357H18.2144C18.5558 13.3349 18.8317 13.0578 18.8309 12.7169C18.83 12.3755 18.5529 12.0996 18.212 12.1005C17.8707 12.1013 17.5947 12.3784 17.5956 12.7193C17.5959 13.0599 17.8727 13.3357 18.2132 13.3357Z" fill="#151210"/>
</svg>
