<svg width="24" height="24" viewBox="0 0 24 24" fill="none" xmlns="http://www.w3.org/2000/svg">
<path fill-rule="evenodd" clip-rule="evenodd" d="M24 5.71875C24 2.25 21.75 0 18.2812 0H5.71875C2.25 0 0 2.25 0 5.71875V18.2812C0 21.75 2.25 24 5.71875 24H18.2812C21.75 24 24 21.75 24 18.2812V5.71875ZM6.89274 20.9173C7.22317 20.9173 7.49101 20.6495 7.49101 20.319V9.64338C7.49101 9.31295 7.22317 9.04511 6.89274 9.04511H4.34604C4.01561 9.04511 3.74777 9.31295 3.74777 9.64338V20.319C3.74777 20.6495 4.01561 20.9173 4.34604 20.9173H6.89274ZM3.20001 5.61939C3.20001 6.95556 4.28321 8.03877 5.61939 8.03877C6.95562 8.03877 8.03877 6.95556 8.03877 5.61939C8.03877 4.28321 6.95556 3.20001 5.61939 3.20001C4.28321 3.20001 3.20001 4.28321 3.20001 5.61939ZM20.2499 20.9173C20.5537 20.9173 20.8 20.671 20.8 20.3672L20.8 15.1623C20.8001 12.9082 20.8004 8.86597 16.4491 8.86597C14.473 8.86597 13.5449 9.58936 12.9204 10.5266V9.59519C12.9204 9.29141 12.6741 9.04511 12.3703 9.04511H9.72726C9.42349 9.04511 9.17718 9.29141 9.17718 9.59519V20.3672C9.17718 20.671 9.42349 20.9173 9.72726 20.9173H12.3703C12.6742 20.9173 12.9204 20.671 12.9204 20.3672V14.5916C12.989 13.8156 13.3306 12.0863 15.0148 12.0863C17.0262 12.0863 16.9863 14.2542 16.9695 15.1674C16.9682 15.24 16.967 15.3047 16.967 15.3597V20.3672C16.967 20.671 17.2133 20.9173 17.5171 20.9173H20.2499Z" fill="#F9B611"/>
</svg>
