<svg width="179" height="64" viewBox="0 0 179 64" fill="none" xmlns="http://www.w3.org/2000/svg">
<g clip-path="url(#clip0_2101_2832)">
<path d="M79.079 19.8088C78.6881 19.4863 78.2874 19.2517 77.8965 19.0954C77.5056 18.939 77.1147 18.8608 76.7531 18.8608C76.284 18.8608 75.9029 18.9683 75.6097 19.1931C75.3166 19.4179 75.17 19.7013 75.17 20.0629C75.17 20.3072 75.2482 20.5124 75.3947 20.6785C75.5413 20.8349 75.7368 20.9815 75.9811 21.0987C76.2254 21.216 76.4893 21.3137 76.7922 21.4017C77.0951 21.4896 77.3981 21.5776 77.6913 21.6753C78.8737 22.0662 79.7435 22.5939 80.2908 23.2585C80.838 23.923 81.1116 24.783 81.1116 25.8384C81.1116 26.5518 80.9944 27.2065 80.7501 27.7831C80.5057 28.3597 80.1539 28.8581 79.6946 29.2783C79.2353 29.6888 78.6685 30.0112 77.9942 30.236C77.3199 30.4608 76.5577 30.578 75.7075 30.578C73.9386 30.578 72.3066 30.0503 70.8017 29.0047L72.3555 26.0827C72.9028 26.5616 73.4402 26.9231 73.968 27.1577C74.4957 27.3922 75.0234 27.5095 75.5413 27.5095C76.1374 27.5095 76.5772 27.3727 76.8606 27.099C77.144 26.8254 77.3004 26.5225 77.3004 26.1707C77.3004 25.9654 77.2613 25.7798 77.1929 25.6234C77.1147 25.467 76.9974 25.3302 76.8215 25.1934C76.6456 25.0664 76.4209 24.9393 76.1472 24.8318C75.8736 24.7243 75.5316 24.5973 75.1407 24.4605C74.6716 24.3139 74.2123 24.1478 73.7627 23.9719C73.3132 23.7959 72.9125 23.5516 72.5607 23.2585C72.2089 22.9653 71.9255 22.5939 71.7105 22.1346C71.4955 21.6851 71.388 21.1183 71.388 20.4244C71.388 19.7306 71.5053 19.1052 71.7301 18.5481C71.9548 17.9911 72.2773 17.5025 72.6878 17.1018C73.0982 16.7011 73.6064 16.3884 74.2025 16.1636C74.7986 15.9389 75.4729 15.8314 76.2156 15.8314C76.9095 15.8314 77.6326 15.9291 78.3851 16.1148C79.1376 16.3102 79.8608 16.5839 80.5546 16.9552L79.079 19.8088Z" fill="#F9B611"/>
<path d="M89.086 19.3104V30.1969H85.4604V19.3104H82.4798V16.2418H92.0666V19.3104H89.086Z" fill="#F9B611"/>
<path d="M92.5943 23.2096C92.5943 22.1737 92.7898 21.2062 93.1709 20.3169C93.552 19.4179 94.0797 18.6459 94.7638 17.9716C95.4381 17.307 96.2492 16.7793 97.1971 16.408C98.1451 16.0366 99.181 15.8412 100.315 15.8412C101.438 15.8412 102.474 16.0268 103.422 16.408C104.37 16.7891 105.191 17.307 105.875 17.9716C106.559 18.6361 107.097 19.4179 107.478 20.3169C107.859 21.216 108.054 22.1737 108.054 23.2096C108.054 24.2455 107.859 25.213 107.478 26.1023C107.097 26.9915 106.559 27.7733 105.875 28.4476C105.191 29.1219 104.37 29.6399 103.422 30.0112C102.474 30.3924 101.438 30.578 100.315 30.578C99.181 30.578 98.1353 30.3924 97.1971 30.0112C96.2492 29.6399 95.4381 29.1122 94.7638 28.4476C94.0895 27.7831 93.552 27.0013 93.1709 26.1023C92.7898 25.2032 92.5943 24.2455 92.5943 23.2096ZM96.386 23.2096C96.386 23.7666 96.4935 24.2748 96.6988 24.7439C96.9137 25.213 97.1874 25.6234 97.549 25.9654C97.9105 26.3075 98.321 26.5811 98.7998 26.7668C99.2787 26.9622 99.7771 27.0502 100.305 27.0502C100.833 27.0502 101.341 26.9525 101.81 26.7668C102.289 26.5713 102.709 26.3075 103.07 25.9654C103.432 25.6234 103.725 25.213 103.93 24.7439C104.145 24.2748 104.243 23.7666 104.243 23.2096C104.243 22.6526 104.136 22.1444 103.93 21.6753C103.725 21.2062 103.432 20.7958 103.07 20.4538C102.709 20.1117 102.289 19.8381 101.81 19.6524C101.331 19.457 100.833 19.369 100.305 19.369C99.7771 19.369 99.2689 19.4667 98.7998 19.6524C98.321 19.8479 97.9105 20.1117 97.549 20.4538C97.1874 20.7958 96.904 21.2062 96.6988 21.6753C96.4935 22.1444 96.386 22.6526 96.386 23.2096Z" fill="#F9B611"/>
<path d="M121.951 30.1871H117.436L113.977 24.8221V30.1871H110.351V16.2321H115.999C116.781 16.2321 117.456 16.3493 118.032 16.5741C118.609 16.7989 119.088 17.1116 119.469 17.5122C119.85 17.9031 120.133 18.3625 120.319 18.8804C120.514 19.3983 120.602 19.9554 120.602 20.5417C120.602 21.6069 120.348 22.4669 119.83 23.1216C119.322 23.7862 118.56 24.2259 117.563 24.4605L121.951 30.1871ZM113.967 22.4669H114.651C115.364 22.4669 115.911 22.3203 116.302 22.0271C116.693 21.734 116.879 21.304 116.879 20.7469C116.879 20.1899 116.683 19.7697 116.302 19.4667C115.921 19.1736 115.374 19.027 114.651 19.027H113.967V22.4669Z" fill="#F9B611"/>
<path d="M122.84 30.1871L125.205 16.2321H128.801L131.596 23.6689L134.372 16.2321H137.958L140.323 30.1871H136.717L135.515 22.1542L132.222 30.1871H130.775L127.648 22.1542L126.446 30.1871H122.84Z" fill="#F9B611"/>
<path d="M146.255 16.2321V30.1871H142.629V16.2321H146.255Z" fill="#F9B611"/>
<path d="M149.177 30.1871V16.2321H152.803L159.507 24.7634V16.2321H163.113V30.1871H159.507L152.803 21.6558V30.1871H149.177Z" fill="#F9B611"/>
<path d="M166.044 16.2321H171.409C172.357 16.2321 173.247 16.4275 174.087 16.8086C174.918 17.1898 175.651 17.6979 176.266 18.3331C176.892 18.9683 177.38 19.7111 177.742 20.5515C178.104 21.4017 178.279 22.2812 178.279 23.2096C178.279 24.1184 178.104 24.998 177.752 25.8482C177.4 26.6984 176.911 27.4411 176.286 28.0763C175.66 28.7213 174.937 29.2294 174.107 29.6106C173.276 29.9917 172.377 30.1871 171.409 30.1871H166.044V16.2321ZM169.67 27.1186H170.501C171.126 27.1186 171.693 27.0209 172.181 26.8254C172.67 26.63 173.09 26.3563 173.432 26.0143C173.774 25.6723 174.028 25.2618 174.214 24.783C174.39 24.3041 174.478 23.7862 174.478 23.2194C174.478 22.6623 174.39 22.1444 174.204 21.6655C174.019 21.1867 173.755 20.7665 173.423 20.4244C173.08 20.0824 172.67 19.8088 172.172 19.6133C171.673 19.4179 171.126 19.3202 170.51 19.3202H169.68V27.1186H169.67Z" fill="#F9B611"/>
<path d="M78.2092 38.5231H85.4115C85.4115 39.2658 85.3822 39.9401 85.3236 40.5362C85.2649 41.1421 85.1379 41.6991 84.9522 42.2171C84.6884 42.95 84.3366 43.595 83.8968 44.152C83.457 44.709 82.9293 45.1781 82.3332 45.5593C81.7371 45.9404 81.0726 46.2238 80.3592 46.4192C79.6458 46.6147 78.8933 46.7124 78.1017 46.7124C77.017 46.7124 76.0202 46.5365 75.1309 46.1749C74.2318 45.8133 73.4696 45.3149 72.8246 44.67C72.1796 44.025 71.6812 43.2432 71.3294 42.3343C70.9678 41.4255 70.7919 40.4287 70.7919 39.3244C70.7919 38.2397 70.9678 37.2429 71.3196 36.334C71.6714 35.4252 72.1698 34.6532 72.8148 34.0082C73.4598 33.3632 74.2416 32.8648 75.1602 32.513C76.069 32.1514 77.0952 31.9755 78.219 31.9755C79.6751 31.9755 80.9553 32.2882 82.0498 32.9234C83.1443 33.5489 84.0141 34.5261 84.6591 35.8454L81.2094 37.282C80.8869 36.5197 80.4667 35.9725 79.9585 35.6304C79.4503 35.2884 78.864 35.132 78.2092 35.132C77.662 35.132 77.1733 35.2297 76.7238 35.435C76.284 35.6402 75.9029 35.9334 75.5902 36.3047C75.2775 36.6858 75.0234 37.1354 74.8475 37.6631C74.6716 38.1908 74.5836 38.7869 74.5836 39.4417C74.5836 40.0378 74.6618 40.5851 74.8182 41.0932C74.9745 41.6014 75.1993 42.0412 75.512 42.4125C75.8247 42.7839 76.2059 43.0673 76.6554 43.2725C77.1147 43.4777 77.6424 43.5754 78.2483 43.5754C78.6099 43.5754 78.9519 43.5363 79.2842 43.4582C79.6165 43.38 79.9194 43.2529 80.1833 43.0673C80.4471 42.8816 80.6719 42.6568 80.838 42.3734C81.0139 42.09 81.1312 41.748 81.1898 41.3375H78.2092V38.5231Z" fill="#F9B611"/>
<path d="M95.7411 43.9077H90.5616L89.731 46.3313H85.8611L91.1773 32.3762H95.1352L100.451 46.3313H96.5815L95.7411 43.9077ZM94.7736 41.1519L93.1416 36.5099L91.5096 41.1519H94.7736Z" fill="#F9B611"/>
<path d="M101.399 46.3313L103.764 32.3762H107.361L110.155 39.813L112.931 32.3762H116.517L118.882 46.3313H115.276L114.074 38.2983L110.781 46.3313H109.335L106.207 38.2983L105.005 46.3313H101.399Z" fill="#F9B611"/>
<path d="M129.134 35.4545H124.824V37.7901H128.899V40.8587H124.824V43.2627H129.134V46.3313H121.189V32.3762H129.134V35.4545Z" fill="#F9B611"/>
<path d="M139.072 35.9529C138.681 35.6304 138.281 35.3959 137.89 35.2395C137.499 35.0832 137.108 35.005 136.746 35.005C136.277 35.005 135.896 35.1125 135.603 35.3372C135.31 35.562 135.163 35.8454 135.163 36.207C135.163 36.4513 135.241 36.6565 135.388 36.8227C135.535 36.979 135.73 37.1256 135.974 37.2429C136.219 37.3601 136.483 37.4579 136.785 37.5458C137.088 37.6338 137.391 37.7217 137.685 37.8194C138.867 38.2103 139.737 38.7381 140.284 39.4026C140.831 40.0671 141.105 40.9271 141.105 41.9825C141.105 42.6959 140.988 43.3507 140.743 43.9272C140.499 44.5038 140.147 45.0022 139.688 45.4224C139.229 45.8329 138.662 46.1554 137.987 46.3801C137.313 46.6049 136.551 46.7222 135.701 46.7222C133.932 46.7222 132.3 46.1945 130.795 45.1488L132.349 42.2268C132.896 42.7057 133.434 43.0673 133.961 43.3018C134.489 43.5363 135.017 43.6536 135.535 43.6536C136.131 43.6536 136.57 43.5168 136.854 43.2432C137.147 42.9695 137.294 42.6666 137.294 42.3148C137.294 42.1096 137.255 41.9239 137.186 41.7675C137.108 41.6112 136.991 41.4744 136.815 41.3375C136.639 41.2105 136.414 41.0835 136.14 40.976C135.867 40.8685 135.525 40.7414 135.134 40.6046C134.665 40.458 134.206 40.2919 133.756 40.116C133.306 39.9401 132.906 39.6958 132.554 39.4026C132.202 39.1094 131.919 38.7381 131.704 38.2788C131.489 37.8292 131.381 37.2624 131.381 36.5686C131.381 35.8747 131.499 35.2493 131.723 34.6923C131.948 34.1352 132.271 33.6466 132.681 33.2459C133.091 32.8453 133.6 32.5325 134.196 32.3078C134.792 32.083 135.466 31.9755 136.209 31.9755C136.903 31.9755 137.626 32.0732 138.378 32.2589C139.131 32.4544 139.854 32.728 140.548 33.0993L139.072 35.9529Z" fill="#F9B611"/>
<path d="M145.327 33.7346C145.327 34.2232 145.161 34.6336 144.818 34.9757C144.476 35.3177 144.066 35.4838 143.587 35.4838C143.108 35.4838 142.698 35.3079 142.356 34.9757C142.014 34.6336 141.848 34.2232 141.848 33.7346C141.848 33.4609 141.906 33.2166 142.014 33.0016C142.121 32.7671 142.278 32.5619 142.483 32.4055C142.805 32.1416 143.167 32.0048 143.577 32.0048C143.841 32.0048 144.086 32.0537 144.301 32.1612C144.613 32.298 144.858 32.513 145.043 32.8062C145.229 33.0798 145.327 33.3925 145.327 33.7346ZM143.568 32.2394C143.167 32.2394 142.835 32.386 142.541 32.6791C142.258 32.9723 142.111 33.3241 142.111 33.7248C142.111 34.1352 142.258 34.487 142.541 34.79C142.825 35.0832 143.167 35.2297 143.577 35.2297C143.978 35.2297 144.32 35.0832 144.603 34.79C144.887 34.4968 145.033 34.145 145.033 33.7248C145.033 33.5 144.975 33.2753 144.867 33.0407C144.76 32.8159 144.613 32.64 144.428 32.513C144.183 32.3371 143.89 32.2394 143.568 32.2394ZM143.753 33.9007L144.408 34.7411H143.939L143.343 33.9398V34.7411H142.962V32.728H143.362C143.646 32.728 143.851 32.7769 143.978 32.8746C144.125 32.9918 144.193 33.1384 144.193 33.3241C144.193 33.4512 144.154 33.5684 144.076 33.6759C143.998 33.7834 143.9 33.8518 143.783 33.8811L143.753 33.9007ZM143.343 33.6271H143.411C143.685 33.6271 143.822 33.5293 143.822 33.3437C143.822 33.1678 143.685 33.0798 143.421 33.0798H143.343V33.6271Z" fill="#F9B611"/>
<path fill-rule="evenodd" clip-rule="evenodd" d="M29.9722 63.5211L3.43014 51.2078C1.3486 50.2892 0 48.237 0 45.96V8.69751C0 3.89922 3.89922 0 8.69751 0H55.84C60.6383 0 64.5375 3.88945 64.5375 8.69751V45.96C64.5375 48.237 63.1889 50.299 61.1073 51.2078L34.5653 63.5211C33.0994 64.1661 31.4381 64.1661 29.9722 63.5211ZM54.8138 22.0272L62.5536 6.74304H54.677L47.504 26.6789H52.7323L51.5987 29.8647C50.4357 28.6823 48.6962 27.9005 45.9209 28.1643C45.3712 28.0494 43.8302 27.6432 42.2894 27.2371C40.8169 26.8489 39.3446 26.4608 38.7381 26.3271C38.6501 26.3076 38.5622 26.2782 38.4742 26.2489L38.4857 26.1844C38.5582 25.776 38.6135 25.4647 38.6599 25.4183C38.7869 25.2912 39.2365 24.8417 39.2072 24.5583C39.1947 24.4375 39.3366 24.0239 39.5164 23.4998C39.7586 22.794 40.0695 21.8876 40.1649 21.2259C40.2724 20.4636 39.7056 20.0727 39.2951 20.5027C39.344 20.3072 39.4222 19.9261 39.5003 19.4766C39.6372 18.988 39.6958 18.3918 39.686 17.7469C39.8596 17.5778 40.0246 17.4003 40.1911 17.2212L40.1912 17.2211L40.1912 17.2211L40.1913 17.221L40.1914 17.2209C40.381 17.0169 40.5724 16.8109 40.7805 16.6132C41.3249 16.0961 41.9282 16.017 42.5905 15.9301L42.5907 15.9301L42.5913 15.93C42.6421 15.9233 42.6933 15.9166 42.7448 15.9096C41.9141 14.9617 40.7219 14.2288 39.4515 13.789L39.6274 13.4958C40.0371 12.8676 40.6079 12.6466 41.2293 12.4059L41.3084 12.3752L41.3669 12.3524C39.9596 11.3459 37.9856 10.9159 36.1777 11.0332L36.207 10.8279C36.326 10.0776 36.762 9.64425 37.2342 9.17493L37.3308 9.07866C35.1907 8.64867 33.5391 9.06889 31.8485 10.6716C31.3012 11.2775 31.0862 11.9029 30.881 12.587C32.1807 12.2352 32.8453 12.0788 34.2037 11.854C31.4674 14.7174 30.4803 16.4569 29.5129 19.9261C29.5519 17.6003 29.6204 16.6817 30.1285 14.561C28.8092 14.9617 28.174 15.1962 26.9329 15.724C27.4997 14.2972 28.4965 12.1277 30.2262 10.4077C30.1247 9.77972 30.3198 9.25644 30.5313 8.68944L30.5683 8.59004C28.4379 9.08844 26.3759 10.867 25.3889 12.802C25.2325 13.1049 25.125 13.4665 25.0468 13.8379C24.6117 13.6514 24.2815 13.3439 23.9315 13.018L23.9309 13.0174L23.9292 13.0158L23.9286 13.0153C23.8944 12.9834 23.86 12.9514 23.8253 12.9192C23.5126 14.776 24.0794 16.9455 25.125 18.5677C25.1543 18.9 25.2032 19.2127 25.2814 19.4864C25.3596 19.9359 25.4377 20.317 25.4866 20.5125C25.0859 20.0825 24.5093 20.4734 24.6168 21.2356C24.707 21.9006 25.0214 22.8093 25.2658 23.5157C25.4452 24.0343 25.587 24.4439 25.5745 24.5681C25.5452 24.8515 25.9948 25.301 26.1218 25.428C26.168 25.4742 26.2142 25.7386 26.2768 26.0975L26.2879 26.161C26.1316 26.2391 25.9752 26.3076 25.7993 26.3466C25.1928 26.4804 23.7205 26.8685 22.2479 27.2566L22.2477 27.2567C20.707 27.6628 19.1662 28.0689 18.6165 28.1839C15.8607 27.92 14.131 28.6823 12.968 29.855L11.854 26.6985H17.0823L9.90925 6.76258H2.03263L9.77244 22.0272L5.43346 21.9197L11.5901 31.8681C11.3947 32.2688 11.2285 32.6792 11.082 33.0897C10.5738 34.4871 10.3002 36.2657 11.0917 38.8945C11.0935 38.9032 11.032 38.9888 10.9265 39.1359L10.9264 39.136L10.9264 39.136C10.4362 39.8191 8.99595 41.8262 8.52156 43.5951C8.17952 44.8655 7.88635 46.3411 8.33588 47.9732L19.0856 42.0413L19.6036 40.5656C19.6036 40.5656 19.8674 39.0606 20.2876 38.787C20.4516 38.6802 20.5397 38.432 20.6425 38.1423C20.8031 37.6897 20.9997 37.1359 21.5776 36.8618C22.5255 36.4123 23.278 36.3537 23.7471 36.5589C23.7471 36.5589 24.1184 36.7055 24.9002 37.0475C24.9784 36.4807 25.125 35.9237 25.3791 35.4937C25.6136 35.093 25.897 34.8682 26.1902 34.751C26.4052 34.6533 26.6397 34.5849 26.8938 34.5849C27.2652 34.5849 27.6072 34.7119 27.8809 34.9171H36.6761C36.9497 34.7119 37.2918 34.5849 37.6631 34.5849C37.9172 34.5849 38.1517 34.6435 38.3667 34.751C38.6501 34.8682 38.9335 35.0832 39.1778 35.4937C39.4417 35.9432 39.5883 36.5198 39.6665 37.1159C40.546 36.725 40.9662 36.5687 40.9662 36.5687C41.4353 36.3634 42.1878 36.4221 43.1357 36.8716C43.7136 37.1457 43.9102 37.6995 44.0708 38.152C44.1736 38.4418 44.2617 38.69 44.4257 38.7968C44.8459 39.0802 45.1097 40.5754 45.1097 40.5754L45.6277 42.051L56.2504 47.9145C56.6022 46.3509 56.3579 44.8069 56.0354 43.6049C55.561 41.836 54.1208 39.8289 53.6306 39.1458C53.525 38.9987 53.4635 38.9129 53.4652 38.9043C54.2568 36.2657 53.9929 34.4969 53.475 33.0994C53.3284 32.7085 53.172 32.3079 52.9864 31.917L59.1626 21.9295L54.8138 22.0272ZM28.0177 36.2657C28.0177 36.9026 27.5014 37.4189 26.8645 37.4189C26.2276 37.4189 25.7114 36.9026 25.7114 36.2657C25.7114 35.6288 26.2276 35.1126 26.8645 35.1126C27.5014 35.1126 28.0177 35.6288 28.0177 36.2657ZM38.9238 36.2657C38.9238 36.9026 38.4075 37.4189 37.7706 37.4189C37.1337 37.4189 36.6175 36.9026 36.6175 36.2657C36.6175 35.6288 37.1337 35.1126 37.7706 35.1126C38.4075 35.1126 38.9238 35.6288 38.9238 36.2657ZM42.2187 46.1842C42.883 46.3904 43.7418 46.6571 44.0152 46.5855C44.0152 46.5855 46.644 48.9699 48.149 50.8756C48.4422 51.2372 48.706 51.5694 48.9308 51.8724C41.9239 55.0875 32.2589 59.5242 32.2589 59.5242C32.2589 59.5242 22.6819 55.1364 15.6946 51.931C15.9389 51.6085 16.2125 51.2567 16.5252 50.8658C18.0497 48.9797 20.6785 46.5952 20.6785 46.5952C20.9451 46.6667 21.8042 46.4009 22.4703 46.1948C22.8055 46.0911 23.0918 46.0025 23.2291 45.9796C23.6396 45.9209 24.695 45.5398 24.695 45.5398C25.8677 45.8916 26.4932 45.1782 26.4932 45.1782L26.9231 44.3769C27.5095 44.4844 27.8809 44.0544 28.0568 43.7123C28.2327 43.3605 28.0665 42.4908 28.0665 42.4908C29.3272 41.4451 27.9493 40.507 26.5029 39.8718H26.63C28.0665 40.2724 29.6594 40.5461 29.9233 39.9304C30.0992 39.5395 29.8549 39.3245 29.337 39.0704C30.1872 38.9141 31.184 38.8163 32.2687 38.8163C33.4023 38.8163 34.448 38.9141 35.3177 39.09C34.8291 39.3343 34.6043 39.5493 34.7705 39.9206C35.0343 40.5265 36.6272 40.2529 38.0638 39.862H38.1908C36.7445 40.4972 35.3764 41.4354 36.6272 42.481C36.6272 42.481 36.4611 43.3605 36.637 43.7026C36.8129 44.0544 37.1843 44.4746 37.7706 44.3671L38.2006 45.1684C38.2006 45.1684 38.826 45.8818 39.9987 45.53C39.9987 45.53 41.0542 45.9014 41.4646 45.9698C41.6016 45.9926 41.8855 46.0808 42.2184 46.1841L42.2185 46.1842L42.2187 46.1842Z" fill="#FFB600"/>
</g>
<defs>
<clipPath id="clip0_2101_2832">
<rect width="178.279" height="64" fill="white"/>
</clipPath>
</defs>
</svg>
