<svg width="24" height="24" viewBox="0 0 24 24" fill="none" xmlns="http://www.w3.org/2000/svg">
<path d="M3.99976 7.79347H8.22103C9.12883 7.79347 9.83238 8.02042 10.2863 8.47432C10.7402 8.92822 10.9671 9.56368 10.9671 10.4034C10.9671 11.2658 10.7175 11.924 10.2182 12.4006C9.7189 12.8772 8.94727 13.1268 7.926 13.1268H6.5416V16.2587H3.99976V7.79347ZM6.5416 11.402H7.17706C7.67635 11.402 8.01678 11.3112 8.19834 11.1296C8.40259 10.9481 8.49337 10.7211 8.49337 10.4488C8.49337 10.1764 8.40259 9.9495 8.24373 9.76794C8.06217 9.58638 7.74444 9.4956 7.26784 9.4956H6.5416V11.402ZM17.7756 12.8091L19.9998 13.5126C19.8409 14.1481 19.6139 14.6928 19.2962 15.124C18.9785 15.5552 18.57 15.8729 18.0934 16.0999C17.6168 16.3268 17.004 16.4403 16.2778 16.4403C15.3927 16.4403 14.6437 16.3041 14.0764 16.0318C13.509 15.7594 13.0097 15.2828 12.6012 14.6247C12.1927 13.9438 11.9884 13.0814 11.9884 12.0374C11.9884 10.6303 12.3515 9.56368 13.0778 8.81474C13.804 8.06581 14.8253 7.67999 16.1416 7.67999C17.1856 7.67999 18.0026 7.88425 18.5927 8.31545C19.1827 8.74666 19.6366 9.40482 19.909 10.3126L17.6622 10.8346C17.5941 10.585 17.5033 10.3807 17.4125 10.2672C17.2764 10.063 17.0948 9.90411 16.8905 9.81333C16.6863 9.69985 16.4593 9.65446 16.2097 9.65446C15.6423 9.65446 15.1884 9.90411 14.8934 10.3807C14.6664 10.7438 14.5529 11.2885 14.5529 12.0601C14.5529 12.9906 14.6891 13.6488 14.9615 13.9892C15.2338 14.3296 15.6196 14.5112 16.1189 14.5112C16.5955 14.5112 16.9813 14.375 17.231 14.08C17.4806 13.7623 17.6622 13.3538 17.7756 12.8091Z" fill="#151210"/>
</svg>
