<svg width="24" height="24" viewBox="0 0 24 24" fill="none" xmlns="http://www.w3.org/2000/svg">
<path d="M11.8499 0C5.60375 0 0.487691 4.86284 0 11.0387L6.3728 13.6975C6.91208 13.3271 7.56389 13.1067 8.26729 13.1067C8.32825 13.1067 8.3939 13.1067 8.45487 13.1114L11.2872 8.966C11.2872 8.94724 11.2872 8.92849 11.2872 8.90504C11.2872 6.41032 13.2989 4.37984 15.7702 4.37984C18.2415 4.37984 20.2532 6.41032 20.2532 8.90504C20.2532 11.3998 18.2415 13.4302 15.7702 13.4302C15.7374 13.4302 15.7046 13.4302 15.6671 13.4302L11.6295 16.3423C11.6295 16.3939 11.6342 16.4502 11.6342 16.5018C11.6342 18.3728 10.1243 19.8968 8.26729 19.8968C6.64009 19.8968 5.2755 18.7245 4.966 17.1676L0.407972 15.2685C1.81946 20.3048 6.40563 24 11.8499 24C18.4197 24 23.7421 18.626 23.7421 12C23.7421 5.37397 18.4197 0 11.8499 0Z" fill="#F9B611"/>
<path d="M7.45135 18.2087L5.98828 17.5991C6.24619 18.143 6.69637 18.5979 7.29191 18.8464C8.57679 19.3857 10.0586 18.7714 10.5932 17.4725C10.8511 16.8441 10.8558 16.1501 10.5979 15.5217C10.34 14.8933 9.85698 14.4009 9.23329 14.1383C8.6143 13.8804 7.95311 13.8898 7.37163 14.1102L8.88159 14.7386C9.82884 15.1372 10.279 16.2345 9.88511 17.1911C9.49121 18.1524 8.39859 18.6073 7.45135 18.2087Z" fill="#F9B611"/>
<path d="M13.5334 8.90035C13.5334 7.6483 14.5369 6.6354 15.7796 6.6354C17.0176 6.6354 18.0258 7.6483 18.0258 8.90035C18.0258 10.1524 17.0223 11.1653 15.7796 11.1653C14.5416 11.1653 13.5334 10.1524 13.5334 8.90035ZM18.762 8.90504C18.762 7.24033 17.4209 5.8898 15.7749 5.8898C14.129 5.8898 12.7878 7.24502 12.7878 8.90504C12.7878 10.5698 14.129 11.9203 15.7749 11.9203C17.4209 11.9203 18.762 10.5698 18.762 8.90504Z" fill="#F9B611"/>
</svg>
