<svg width="121" height="24" viewBox="0 0 121 24" fill="none" xmlns="http://www.w3.org/2000/svg">
<path d="M77.0747 19.3879L72.4771 13.147L67.8843 19.3879H65.9903L71.518 11.8458L66.4674 4.99277H68.3614L72.4771 10.5831L76.5927 4.99277H78.4819L73.4361 11.8458L78.9638 19.3879H77.0747ZM41.2385 19.3831L35.706 11.8458L40.7566 4.99277H38.8626L34.747 10.5831L30.6361 4.99277H28.747L33.7928 11.8458L28.2602 19.3831H30.1542L34.747 13.1422L39.3446 19.3831H41.2385Z" fill="#F9B611"/>
<path d="M51.7638 12.3904C51.4795 12.1494 51.1614 11.947 50.8193 11.7879C51.8843 11.2193 52.5494 10.1108 52.5494 8.90602C52.5494 7.98554 52.212 4.98795 47.8699 4.98795H42.0241V11.1952H40.0771C39.8265 11.5229 39.253 12.3132 39.0313 12.641H42.0241V19.3831H47.8699C51.0361 19.3831 53.0024 17.7735 53.0024 15.1807C53.0072 14.0482 52.5783 13.0891 51.7638 12.3904ZM43.6434 6.49156H47.8747C49.0169 6.49156 50.9349 6.7759 50.9349 8.78072C50.9349 10.294 49.8169 11.1952 47.8747 11.1952H43.6434V6.49156ZM47.8699 17.8843H43.6385V12.6458H47.8699C49.4747 12.6458 51.3928 13.0891 51.3928 15.1518C51.3928 17.5277 49.1855 17.8843 47.8699 17.8843ZM60.612 4.66024C56.5687 4.66024 53.7397 7.75421 53.7397 12.1831C53.7397 16.6169 56.5638 19.706 60.612 19.706C64.6506 19.706 67.4699 16.6169 67.4699 12.1831C67.4699 7.75421 64.6506 4.66024 60.612 4.66024ZM60.612 18.1831C57.5325 18.1831 55.3735 15.7157 55.3735 12.1831C55.3735 8.6506 57.5325 6.18313 60.612 6.18313C63.6867 6.18313 65.8361 8.6506 65.8361 12.1831C65.8361 15.7157 63.6867 18.1831 60.612 18.1831ZM3.58074 3.4506L3.5711 3.46024C1.28195 5.71566 -0.00479919 8.79036 2.00832e-05 12C-0.00479919 14.6265 0.857851 17.1807 2.45303 19.2675C2.46749 19.2867 2.4964 19.3012 2.51568 19.2867C2.53496 19.2723 2.53978 19.2482 2.53014 19.2241C1.61448 16.3952 6.28917 9.53734 8.70845 6.66506C8.71809 6.65542 8.72773 6.64578 8.72773 6.63132C8.72773 6.61686 8.71809 6.60241 8.70363 6.59277C4.63616 2.5494 3.55182 3.4747 3.56628 3.46024L3.58074 3.4506ZM20.4289 3.46024C22.7181 5.71084 24 8.79036 23.9952 12C24 14.6265 23.1374 17.1807 21.5422 19.2675C21.5277 19.2867 21.4988 19.3012 21.4795 19.2867C21.4602 19.2723 21.4602 19.2482 21.4651 19.2241C22.3807 16.3952 17.706 9.53252 15.2916 6.66024C15.2819 6.6506 15.2723 6.64096 15.2723 6.6265C15.2723 6.60722 15.2819 6.59759 15.2964 6.58795C19.3639 2.54458 20.4434 3.4747 20.4289 3.46024ZM12 0C14.4193 0 16.4145 0.66506 18.2506 1.75422C18.2747 1.76385 18.2795 1.79277 18.2699 1.81205C18.2603 1.83132 18.2362 1.83614 18.2121 1.83132C15.8892 1.33012 12.3566 3.33494 12.0241 3.53735C12.0145 3.54217 12.0097 3.54699 12 3.54699C11.9904 3.54699 11.9807 3.54217 11.9759 3.53735C11.0892 3.0265 7.82652 1.31566 5.76869 1.84578C5.74459 1.8506 5.7205 1.84578 5.71086 1.82651C5.70122 1.80241 5.71086 1.77831 5.73014 1.76867C7.56628 0.66506 9.58556 0 12 0ZM12 9.62409C12.0145 9.62409 12.0289 9.63373 12.0386 9.64337C15.6289 12.3759 21.7735 19.1229 19.8988 21.0313L19.9036 21.0265V21.0313H19.8988C17.7109 22.9494 14.9012 24.0048 11.9952 24C9.08917 24.0048 6.27953 22.9494 4.0964 21.0313C2.2217 19.1229 8.36628 12.3711 11.9566 9.64337C11.9663 9.63373 11.9856 9.62409 12 9.62409ZM106.901 4.99277V16.8048L98.1975 4.98313L96.771 4.97831V19.3638H98.371V7.81204L106.901 19.3735L108.506 19.3783V4.99277H106.901ZM88.4578 4.65542C84.4144 4.65542 81.5855 7.74939 81.5855 12.1783C81.5855 16.612 84.4144 19.706 88.4578 19.706C92.4963 19.706 95.3156 16.612 95.3156 12.1783C95.3156 7.75421 92.4963 4.65542 88.4578 4.65542ZM88.4578 18.1831C85.3783 18.1831 83.2192 15.7157 83.2192 12.1783C83.2192 8.64578 85.3783 6.17831 88.4578 6.17831C91.5325 6.17831 93.6819 8.64578 93.6819 12.1783C93.6771 15.7108 91.5325 18.1831 88.4578 18.1831ZM111.918 17.9663V12.6458H119.836V11.2385H111.918V6.39036H120.376V4.98313H110.308V19.3735H120.477V17.9663H111.918Z" fill="#F9B611"/>
</svg>
