<svg width="41" height="40" viewBox="0 0 41 40" fill="none" xmlns="http://www.w3.org/2000/svg">
<path d="M6.29406 5.76775V5.76986C4.40714 7.62763 2.90928 9.84273 1.88793 12.2858C0.866579 14.7289 0.342222 17.351 0.345478 19.9989C0.339503 24.3764 1.77614 28.6338 4.43316 32.1127C4.46049 32.1463 4.50255 32.1653 4.5404 32.1463C4.57614 32.1253 4.57825 32.0812 4.56353 32.0433C3.03906 27.329 10.8317 15.9028 14.8584 11.1129C14.871 11.096 14.8879 11.0771 14.8879 11.054C14.8879 11.0266 14.8689 11.0056 14.85 10.9888C8.07717 4.24749 6.26883 5.78878 6.29406 5.76775ZM34.3758 5.75093L34.3948 5.76775V5.76986C36.2815 7.62766 37.7791 9.84281 38.8001 12.2859C39.8211 14.729 40.345 17.3511 40.3413 19.9989C40.3472 24.3764 38.9106 28.6338 36.2536 32.1127C36.2283 32.1463 36.1842 32.1653 36.1463 32.1463C36.1127 32.1253 36.1106 32.0812 36.1232 32.0433C37.6477 27.329 29.8613 15.8944 25.8367 11.1023C25.822 11.0855 25.8073 11.0666 25.8073 11.0456C25.8073 11.0161 25.8241 10.9951 25.8451 10.9783C32.6201 4.23697 34.4158 5.78878 34.3927 5.76775L34.3758 5.75093ZM20.3444 0C24.3795 0 27.6997 1.10603 30.7613 2.92698C30.7991 2.94591 30.8096 2.98796 30.7949 3.02581C30.7802 3.06156 30.7381 3.06997 30.6982 3.05945C26.8271 2.22257 20.9416 5.56799 20.3865 5.90233C20.3739 5.91074 20.3612 5.91915 20.3444 5.91915C20.3255 5.91915 20.3129 5.91074 20.3003 5.90233C18.8242 5.05493 13.3844 2.20365 9.9591 3.08048C9.92125 3.08889 9.8792 3.08258 9.86237 3.04473C9.8552 3.02696 9.85465 3.00721 9.86082 2.98907C9.867 2.97092 9.87949 2.95561 9.89602 2.94591C12.9576 1.10603 16.3198 0 20.3444 0ZM20.3444 16.0395C20.3675 16.0395 20.3928 16.0584 20.4075 16.0711C26.3918 20.6213 36.6342 31.8709 33.5074 35.0523L33.5116 35.0481L33.5095 35.0523H33.5053C29.8653 38.2473 25.1856 40.0063 20.3423 40C15.4984 40.0058 10.8183 38.2469 7.1772 35.0523C4.05677 31.8709 14.297 20.6213 20.275 16.0711C20.2918 16.0584 20.3192 16.0395 20.3444 16.0395Z" fill="white"/>
</svg>
