<svg width="24" height="24" viewBox="0 0 24 24" fill="none" xmlns="http://www.w3.org/2000/svg">
<g clip-path="url(#clip0_244_4576)">
<path d="M10.4267 18.7203H8.09996C7.35403 18.7203 6.64231 18.426 6.11536 17.8922C5.58157 17.3653 5.2873 16.6604 5.2873 15.9076V8.10607C5.2873 7.36014 5.58157 6.64842 6.11536 6.12147C6.64231 5.58768 7.34718 5.30026 8.09996 5.30026H10.4267V18.7203ZM11.597 4H8.09996C5.83478 4 4.00073 5.83405 4.00073 8.09923V15.9008C4.00073 18.166 5.83478 20 8.09996 20H11.597C11.6654 20 11.7201 19.9521 11.7201 19.8837V4.11634C11.7201 4.0479 11.6586 4 11.597 4ZM6.48491 8.79726C6.48491 9.62532 7.16241 10.3028 7.99047 10.3028C8.81852 10.3028 9.49603 9.62532 9.49603 8.79726C9.49603 7.9692 8.81852 7.2917 7.99047 7.2917C7.16241 7.2917 6.48491 7.9692 6.48491 8.79726ZM16.4832 11.1856C17.3728 11.1856 18.0983 11.911 18.0983 12.8007C18.0983 13.6972 17.3728 14.4226 16.4832 14.4226C15.5867 14.4226 14.8613 13.6972 14.8613 12.8007C14.8613 11.911 15.5867 11.1856 16.4832 11.1856ZM13.431 20H15.9015C18.1667 20 20.0007 18.166 20.0007 15.9008V8.09923C20.0007 5.83405 18.1667 4 15.9015 4H13.4242C13.3694 4 13.3147 4.04106 13.3147 4.09581V19.8837C13.3147 19.9521 13.3626 20 13.431 20Z" fill="#151210"/>
</g>
<defs>
<clipPath id="clip0_244_4576">
<rect width="24" height="24" fill="white"/>
</clipPath>
</defs>
</svg>
