<svg width="25" height="24" viewBox="0 0 25 24" fill="none" xmlns="http://www.w3.org/2000/svg">
<path d="M4.08918 3.46065V3.46191C2.95703 4.57658 2.05831 5.90564 1.4455 7.37148C0.832692 8.83733 0.518077 10.4106 0.520031 11.9994C0.516446 14.6258 1.37843 17.1803 2.97264 19.2676C2.98904 19.2878 3.01427 19.2992 3.03698 19.2878C3.05843 19.2752 3.05969 19.2487 3.05086 19.226C2.13618 16.3974 6.81178 9.54171 9.2278 6.66771C9.23537 6.65762 9.24547 6.64627 9.24547 6.63239C9.24547 6.61599 9.23411 6.60337 9.22276 6.59328C5.15905 2.54849 4.07404 3.47327 4.08918 3.46065ZM20.9383 3.45056L20.9496 3.46065V3.46191C22.0816 4.57659 22.9802 5.90569 23.5928 7.37155C24.2054 8.83741 24.5198 10.4106 24.5175 11.9994C24.5211 14.6258 23.6591 17.1803 22.0649 19.2676C22.0497 19.2878 22.0233 19.2992 22.0005 19.2878C21.9804 19.2752 21.9791 19.2487 21.9867 19.226C22.9014 16.3974 18.2295 9.53666 15.8148 6.66141C15.8059 6.65131 15.7971 6.63996 15.7971 6.62734C15.7971 6.60968 15.8072 6.59706 15.8198 6.58697C19.8848 2.54218 20.9622 3.47327 20.9483 3.46065L20.9383 3.45056ZM12.5194 0C14.9405 0 16.9326 0.663617 18.7695 1.75619C18.7922 1.76754 18.7985 1.79278 18.7897 1.81549C18.7809 1.83693 18.7556 1.84198 18.7317 1.83567C16.409 1.33354 12.8777 3.3408 12.5446 3.5414C12.5371 3.54644 12.5295 3.55149 12.5194 3.55149C12.508 3.55149 12.5005 3.54644 12.4929 3.5414C11.6072 3.03296 8.3434 1.32219 6.2882 1.84829C6.26549 1.85333 6.24026 1.84955 6.23017 1.82684C6.22586 1.81618 6.22553 1.80432 6.22924 1.79344C6.23294 1.78255 6.24044 1.77336 6.25035 1.76754C8.08729 0.663617 10.1046 0 12.5194 0ZM12.5194 9.62371C12.5333 9.62371 12.5484 9.63507 12.5572 9.64264C16.1478 12.3728 22.2932 19.1225 20.4172 21.0314L20.4197 21.0288L20.4185 21.0314H20.4159C18.2319 22.9484 15.4241 24.0038 12.5181 24C9.6118 24.0035 6.80372 22.9482 4.61907 21.0314C2.74681 19.1225 8.89095 12.3728 12.4778 9.64264C12.4879 9.63507 12.5043 9.62371 12.5194 9.62371Z" fill="#F9B611"/>
</svg>
