<svg width="41" height="40" viewBox="0 0 41 40" fill="none" xmlns="http://www.w3.org/2000/svg">
<path d="M16.4063 36.8007H10.5894C8.72454 36.8007 6.94524 36.065 5.62788 34.7305C4.2934 33.4132 3.55773 31.651 3.55773 29.769V10.2652C3.55773 8.40034 4.2934 6.62104 5.62788 5.30368C6.94524 3.9692 8.70743 3.25064 10.5894 3.25064H16.4063V36.8007ZM19.3319 0H10.5894C4.92642 0 0.341309 4.58512 0.341309 10.2481V29.7519C0.341309 35.4149 4.92642 40 10.5894 40H19.3319C19.503 40 19.6399 39.8802 19.6399 39.7092V0.290847C19.6399 0.11976 19.4859 0 19.3319 0ZM6.55174 11.9932C6.55174 14.0633 8.2455 15.7571 10.3156 15.7571C12.3858 15.7571 14.0795 14.0633 14.0795 11.9932C14.0795 9.92301 12.3858 8.22926 10.3156 8.22926C8.2455 8.22926 6.55174 9.92301 6.55174 11.9932ZM31.5475 17.9641C33.7716 17.9641 35.5851 19.7776 35.5851 22.0017C35.5851 24.2429 33.7716 26.0565 31.5475 26.0565C29.3062 26.0565 27.4927 24.2429 27.4927 22.0017C27.4927 19.7776 29.3062 17.9641 31.5475 17.9641ZM23.917 40H30.0932C35.7562 40 40.3413 35.4149 40.3413 29.7519V10.2481C40.3413 4.58512 35.7562 0 30.0932 0H23.8999C23.763 0 23.6262 0.102652 23.6262 0.239521V39.7092C23.6262 39.8802 23.7459 40 23.917 40Z" fill="white"/>
</svg>
