<svg width="74" height="40" viewBox="0 0 74 40" fill="none" xmlns="http://www.w3.org/2000/svg">
<path d="M0.658722 0.518135H19.9333C24.0784 0.518135 27.2908 1.5544 29.3634 3.62694C31.4359 5.69948 32.4722 8.60104 32.4722 12.4352C32.4722 16.3731 31.3323 19.3782 29.0525 21.5544C26.7727 23.7306 23.2494 24.8705 18.5862 24.8705H12.2649V39.171H0.658722V0.518135ZM12.2649 16.9948H15.1665C17.4463 16.9948 19.0007 16.5803 19.8297 15.7513C20.7623 14.9223 21.1769 13.886 21.1769 12.6425C21.1769 11.399 20.7623 10.3627 20.037 9.53368C19.2079 8.70466 17.7572 8.29016 15.581 8.29016H12.2649V16.9948ZM63.5603 23.4197L73.7157 26.6321C72.9903 29.5337 71.9541 32.0207 70.5033 33.9896C69.0525 35.9586 67.1872 37.4093 65.0111 38.4456C62.8349 39.4819 60.037 40 56.7209 40C52.6794 40 49.2598 39.3782 46.6691 38.1347C44.0784 36.8912 41.7986 34.715 39.9333 31.7098C38.068 28.601 37.1354 24.6632 37.1354 19.8964C37.1354 13.4715 38.7934 8.60104 42.1095 5.18135C45.4256 1.76166 50.0888 0 56.0991 0C60.866 0 64.5965 0.932643 67.2908 2.90155C69.9851 4.87047 72.0577 7.87565 73.3012 12.0207L63.0421 14.4041C62.7313 13.2642 62.3168 12.3316 61.9022 11.8135C61.2805 10.8808 60.4515 10.1554 59.5188 9.74093C58.5862 9.2228 57.5499 9.01554 56.41 9.01554C53.8193 9.01554 51.7468 10.1554 50.3997 12.3316C49.3634 13.9896 48.8453 16.4767 48.8453 20C48.8453 24.2487 49.467 27.2539 50.7105 28.8083C51.9541 30.3627 53.7157 31.1917 55.9955 31.1917C58.1717 31.1917 59.9333 30.5699 61.0732 29.2228C62.2131 27.772 63.0421 25.9067 63.5603 23.4197Z" fill="white"/>
</svg>
