<svg width="115" height="24" viewBox="0 0 115 24" fill="none" xmlns="http://www.w3.org/2000/svg">
<path d="M9.63901 22.0804H6.14884C5.02994 22.0804 3.96236 21.639 3.17194 20.8383C2.37126 20.0479 1.92985 18.9906 1.92985 17.8614V6.15911C1.92985 5.04021 2.37126 3.97263 3.17194 3.18221C3.96236 2.38152 5.01967 1.95039 6.14884 1.95039H9.63901V22.0804ZM11.3944 0H6.14884C2.75107 0 0 2.75107 0 6.14885V17.8512C0 21.2489 2.75107 24 6.14884 24H11.3944C11.497 24 11.5791 23.9281 11.5791 23.8255V0.174508C11.5791 0.0718563 11.4867 0 11.3944 0ZM3.72626 7.19589C3.72626 8.43798 4.74251 9.45424 5.9846 9.45424C7.22669 9.45424 8.24294 8.43798 8.24294 7.19589C8.24294 5.95381 7.22669 4.93755 5.9846 4.93755C4.74251 4.93755 3.72626 5.95381 3.72626 7.19589ZM18.7237 10.7784C20.0582 10.7784 21.1463 11.8666 21.1463 13.201C21.1463 14.5458 20.0582 15.6339 18.7237 15.6339C17.379 15.6339 16.2908 14.5458 16.2908 13.201C16.2908 11.8666 17.379 10.7784 18.7237 10.7784ZM14.1454 24H17.8512C21.2489 24 24 21.2489 24 17.8512V6.14885C24 2.75107 21.2489 0 17.8512 0H14.1352C14.053 0 13.9709 0.0615911 13.9709 0.143713V23.8255C13.9709 23.9281 14.0428 24 14.1454 24Z" fill="#F9B611"/>
<path d="M95.2055 5.64153H93.7011V1.64545H95.2055C96.2868 1.64545 97.18 2.51518 97.18 3.61998C97.18 4.72478 96.2868 5.64153 95.2055 5.64153ZM95.135 0.211556H92.3142V7.07542H95.135C97.086 7.07542 98.6609 5.52399 98.6609 3.61998C98.6609 1.73947 97.086 0.211556 95.135 0.211556ZM86.4846 7.09892V0.235064H85.0977V4.72478L81.7363 0.235064H80.3495V7.09892H81.7363V2.49168L85.1212 7.09892H86.4846ZM69.8891 13.3516H74.0498V23.5534H76.8235V13.3516H80.8901V10.6014H69.8891V13.3516ZM89.8695 13.0695C91.3504 13.0695 92.6903 13.8217 93.4425 15.0676L95.5346 13.2341C94.2652 11.3066 92.1026 10.1783 89.799 10.1783C86.0145 10.1783 82.9117 13.2576 82.9117 17.0656C82.9117 20.8737 86.0145 24 89.799 24C92.1261 24 94.2652 22.8717 95.5346 20.9442L93.4425 19.1107C92.7138 20.333 91.3504 21.1087 89.8695 21.1087C87.6129 21.1087 85.7794 19.2987 85.7794 17.0656C85.7794 14.856 87.6129 13.0695 89.8695 13.0695ZM113.94 21.8844L113.517 23.1068L113.094 21.8844H112.647V23.5299H112.953V22.2605L113.376 23.5299H113.658L114.105 22.2605V23.5299H114.387V21.8844H113.94ZM111.002 22.2135H111.542V23.5534H111.871V22.2135H112.389V21.8844H111.002V22.2135ZM107.241 15.6787H101.2V10.5779H98.5199V23.5299H101.2V18.3585H107.241V23.5299H109.92V10.5779H107.241V15.6787ZM106.747 5.78257C105.595 5.78257 104.632 4.81881 104.632 3.64349C104.632 2.46817 105.595 1.52791 106.747 1.52791C107.946 1.52791 108.886 2.46817 108.886 3.64349C108.886 4.81881 107.946 5.78257 106.747 5.78257ZM106.747 0C104.749 0 103.104 1.64545 103.104 3.64349C103.104 5.68854 104.749 7.31048 106.747 7.31048C108.792 7.31048 110.414 5.66503 110.414 3.64349C110.414 1.64545 108.792 0 106.747 0ZM74.6374 5.82958H70.7119V4.20764H74.3553V2.9618H70.7119V1.45739H74.6374V0.211556H69.3015V7.07542L74.6374 7.05191V5.82958ZM34.8176 15.6787H34.7236C33.1487 15.3967 31.7853 15.1381 31.6678 14.2449C31.6443 14.0803 31.6443 13.7982 31.9028 13.5162C32.326 12.999 33.3132 12.764 34.8176 12.764C36.4866 12.764 38.179 13.4221 38.7667 13.6572L39.707 11.4241C39.0488 11.142 36.9567 10.4133 34.6766 10.4133C31.8793 10.4133 28.9175 11.8002 28.9175 14.3154C28.9175 16.3839 30.3514 17.4182 34.0889 18.0529C36.6981 18.4995 38.132 18.7581 38.1085 19.8864C38.085 20.4976 37.5914 21.5553 34.6531 21.5553C32.2789 21.5553 30.5865 20.6856 30.0223 20.333L28.8 22.5191C29.4582 22.8482 31.6208 23.906 34.465 23.906C38.6022 23.906 40.7647 22.4721 40.7647 19.7453C40.7647 17.8413 39.7775 16.572 34.8176 15.6787ZM30.751 2.49168L34.183 7.09892H35.5463V0.235064H34.1595V4.72478L30.751 0.211556H29.3642V7.07542H30.751V2.49168ZM42.2221 0.211556H40.6942V7.07542H42.2221V0.211556ZM55.3152 19.9804L52.5649 10.6014H50.2378L47.5346 19.9569L45.0429 10.6014H42.2221L45.8891 23.5534H49.0155L51.4131 15.0206L53.8108 23.5534H56.9606L60.6276 10.6014H57.8069L55.3152 19.9804ZM64.2946 0.211556H58.465V1.64545H60.6746V7.07542H62.1555V1.64545H64.2946V0.211556ZM48.7804 2.49168L52.2123 7.09892H53.5757V0.235064H52.1888V4.72478L48.7804 0.211556H47.3935V7.07542H48.7804V2.49168ZM63.848 23.5534H66.7393V10.6014H63.848V23.5534Z" fill="#F9B611"/>
</svg>
