<svg width="37" height="24" viewBox="0 0 37 24" fill="none" xmlns="http://www.w3.org/2000/svg">
<path d="M14.1038 0V22.3678L19.9614 24V5.25945C19.9614 4.35264 20.3798 3.80856 21.1469 3.98992C22.1232 4.23174 22.2626 5.01763 22.2626 5.92443V13.4207C25.8888 14.932 28.7479 13.4207 28.7479 9.43073C28.7479 5.3199 27.0742 3.44584 22.1232 1.99496C20.2403 1.32997 16.6142 0.423174 14.1038 0Z" fill="#F9B611"/>
<path d="M21.0771 20.6751L30.4912 17.7733C31.5372 17.471 31.7464 16.9874 30.8399 16.7456C30.0031 16.5038 28.3992 16.5642 27.3532 16.927L21.0771 18.8615V15.8388L21.4258 15.7179C21.4258 15.7179 23.2389 15.1738 25.7493 14.932C28.2597 14.6902 31.3977 14.9924 33.8384 15.7783C36.558 16.5038 36.9067 17.6524 36.2094 18.4383C35.512 19.2242 33.7687 19.7683 33.7687 19.7683L21.0074 23.7582V20.6751H21.0771Z" fill="#F9B611"/>
<path d="M3.43453 20.3728C0.575452 19.7078 0.15705 18.2569 1.41226 17.4106C2.59773 16.6247 4.62 16.0806 4.62 16.0806L12.988 13.4811V16.4433L6.99095 18.3174C5.94494 18.6801 5.73574 19.1033 6.64228 19.3451C7.47908 19.5869 9.08296 19.5264 10.129 19.1637L12.988 18.2569V20.8564C12.7788 20.8564 12.5696 20.9169 12.4302 20.9169C9.50136 21.4005 6.43308 21.2796 3.43453 20.3728Z" fill="#F9B611"/>
</svg>
