<svg width="24" height="24" viewBox="0 0 24 24" fill="none" xmlns="http://www.w3.org/2000/svg">
<g clip-path="url(#clip0_244_4564)">
<path d="M9.5027 4.31989V18.654L12.7569 19.7V7.69035C12.7569 7.10923 12.9894 6.76056 13.4155 6.87679C13.9579 7.03175 14.0354 7.53538 14.0354 8.1165V12.9204C16.0499 13.8889 17.6383 12.9204 17.6383 10.3635C17.6383 7.72909 16.7085 6.52812 13.9579 5.59834C12.9119 5.17219 10.8974 4.59107 9.5027 4.31989Z" fill="#151210"/>
<path d="M13.3768 17.5693L18.6068 15.7097C19.1879 15.516 19.3042 15.2061 18.8005 15.0511C18.3356 14.8962 17.4446 14.9349 16.8635 15.1673L13.3768 16.4071V14.47L13.5705 14.3925C13.5705 14.3925 14.5778 14.0439 15.9724 13.8889C17.3671 13.7339 19.1104 13.9276 20.4664 14.4313C21.9773 14.8962 22.171 15.6322 21.7836 16.1359C21.3962 16.6395 20.4276 16.9882 20.4276 16.9882L13.338 19.5451V17.5693H13.3768Z" fill="#151210"/>
<path d="M3.57534 17.3756C1.98696 16.9494 1.75451 16.0196 2.45185 15.4773C3.11045 14.9736 4.23393 14.625 4.23393 14.625L8.88284 12.9591V14.8574L5.55112 16.0584C4.97001 16.2908 4.85379 16.562 5.35742 16.717C5.82231 16.8719 6.71335 16.8332 7.29447 16.6008L8.88284 16.0196V17.6855C8.76662 17.6855 8.6504 17.7242 8.57292 17.7242C6.9458 18.0342 5.2412 17.9567 3.57534 17.3756Z" fill="#151210"/>
</g>
<defs>
<clipPath id="clip0_244_4564">
<rect width="24" height="24" fill="white"/>
</clipPath>
</defs>
</svg>
