<svg width="61" height="40" viewBox="0 0 61 40" fill="none" xmlns="http://www.w3.org/2000/svg">
<path d="M22.985 0V37.2796L32.7477 40V8.76574C32.7477 7.25441 33.4451 6.34761 34.7235 6.64987C36.3506 7.0529 36.5831 8.36272 36.5831 9.87406V22.3678C42.6267 24.8866 47.3918 22.3678 47.3918 15.7179C47.3918 8.8665 44.6025 5.74307 36.3506 3.32494C33.2126 2.21662 27.169 0.70529 22.985 0Z" fill="white"/>
<path d="M34.6073 34.4584L50.2974 29.6222C52.0407 29.1184 52.3894 28.3123 50.8785 27.9093C49.4838 27.5063 46.8107 27.6071 45.0674 28.2116L34.6073 31.4358V26.398L35.1884 26.1965C35.1884 26.1965 38.2102 25.2897 42.3942 24.8866C46.5782 24.4836 51.8083 24.9874 55.8761 26.2972C60.4088 27.5063 60.9899 29.4207 59.8276 30.7305C58.6654 32.0403 55.7598 32.9471 55.7598 32.9471L34.4911 39.597V34.4584H34.6073Z" fill="white"/>
<path d="M5.20294 33.9547C0.437805 32.8463 -0.259532 30.4282 1.83248 29.0176C3.80827 27.7078 7.17873 26.801 7.17873 26.801L21.1255 22.4685V27.4055L11.1303 30.529C9.38696 31.1335 9.03829 31.8388 10.5492 32.2418C11.9439 32.6448 14.617 32.5441 16.3603 31.9395L21.1255 30.4282V34.7607C20.7768 34.7607 20.4281 34.8615 20.1957 34.8615C15.3143 35.6675 10.2005 35.466 5.20294 33.9547Z" fill="white"/>
</svg>
