<svg width="116" height="24" viewBox="0 0 116 24" fill="none" xmlns="http://www.w3.org/2000/svg">
<path d="M112.786 18.9987H112.241V18.8143H113.547V18.9987H113.001V20.4738H112.786" fill="#F9B611"/>
<path d="M114.423 20.4738L113.977 19.1293V20.4738H113.754V18.8143H114.062L114.53 20.2279L115.014 18.8143H115.314V20.4738H115.099V19.1293L114.646 20.4738" fill="#F9B611"/>
<path d="M87.6187 5.68502H77.9464C75.1423 5.68502 73.7672 7.41357 73.7672 9.66453V16.5096C73.7672 17.9001 73.1065 18.9065 71.716 18.9065H62.6199C62.5661 18.9065 62.5201 18.9526 62.5201 19.0064V20.3816C62.5201 20.443 62.5662 20.4891 62.6276 20.4891H72.7685C75.5726 20.4891 76.9477 18.7606 76.9477 16.5096V9.66453C76.9477 8.27401 77.6084 7.26761 78.9989 7.26761H87.6187C87.6724 7.26761 87.7185 7.22151 87.7185 7.16773V5.78489C87.7185 5.73111 87.6724 5.68502 87.6187 5.68502Z" fill="#F9B611"/>
<path d="M59.0399 5.68502H41.5393C41.4855 5.68502 41.4317 5.73111 41.4317 5.78489V7.16005C41.4317 7.21383 41.4778 7.26761 41.5393 7.26761H57.9874C59.3779 7.26761 60.0463 8.27401 60.0463 9.66453C60.0463 11.0551 59.3856 12.0615 57.9874 12.0615H44.981C42.9605 12.0615 41.4394 13.7593 41.4394 16.0102V20.3816C41.4394 20.443 41.4855 20.4891 41.5469 20.4891H44.5124C44.5738 20.4891 44.6199 20.443 44.6199 20.3816V16.0102C44.6199 14.6197 45.4189 13.644 46.5789 13.644H59.0476C61.8517 13.644 63.2268 11.9232 63.2268 9.67222C63.2192 7.41357 61.844 5.68502 59.0399 5.68502Z" fill="#F9B611"/>
<path d="M110.574 17.3163H107.501H107.608C107.547 17.3163 107.501 17.2702 107.501 17.2164V7.25992C107.501 5.73111 106.441 5.23175 104.958 6.14597L87.127 17.0935C86.4279 17.5237 86.1897 18.0077 86.3587 18.3688C86.5047 18.6761 86.8888 18.8912 87.6647 18.8912H104.228C104.274 18.8912 104.313 18.9296 104.32 18.968V20.3662C104.32 20.4277 104.366 20.4738 104.42 20.4738H107.401C107.455 20.4738 107.509 20.4277 107.509 20.3662V18.9987C107.509 18.9373 107.555 18.8912 107.608 18.8912H110.574C110.635 18.8912 110.681 18.8451 110.681 18.7836V17.4085C110.681 17.37 110.635 17.3163 110.574 17.3163ZM104.32 17.2087C104.32 17.2702 104.274 17.3163 104.213 17.3163H90.3306C90.2153 17.3163 90.1615 17.2855 90.1462 17.2471C90.1308 17.1857 90.1692 17.1396 90.246 17.0781L104.067 8.57362C104.159 8.51216 104.32 8.52753 104.32 8.71191V17.2087Z" fill="#F9B611"/>
<path d="M11.6314 0V22.3944L16.7019 24V5.21639C16.7019 4.34059 17.0937 3.74904 17.7236 3.95647C18.5533 4.18694 18.7147 4.9936 18.7147 5.87708V13.3752C21.8722 14.904 24.3613 13.3752 24.3613 9.34955C24.3613 5.21639 22.9093 3.38796 18.6148 1.91293C16.9247 1.34443 13.7902 0.399488 11.6314 0Z" fill="#F9B611"/>
<path d="M17.6622 20.735L25.8133 17.8233C26.7352 17.493 26.8811 17.0243 26.1282 16.7785C25.3754 16.5327 24.0156 16.6018 23.0937 16.9321L17.6622 18.8451V15.8028L17.9772 15.6953C17.9772 15.6953 19.5444 15.1421 21.7492 14.8963C23.9541 14.6581 26.6583 14.927 28.7787 15.7337C31.1679 16.4866 31.4368 17.6005 30.8299 18.3688C30.223 19.137 28.7326 19.6825 28.7326 19.6825L17.6622 23.662" fill="#F9B611"/>
<path d="M2.33567 20.42C-0.115036 19.7286 -0.529889 18.2919 0.59175 17.4622C1.62888 16.694 3.38816 16.1178 3.38816 16.1178L10.6558 13.5365V16.4789L5.4317 18.3534C4.5098 18.6837 4.37152 19.1524 5.11672 19.3982C5.8696 19.644 7.22939 19.5749 8.15129 19.2446L10.6558 18.338V20.9731C10.4944 21.0038 10.3177 21.0269 10.1564 21.0576C7.64425 21.4571 4.97075 21.2881 2.33567 20.42Z" fill="#F9B611"/>
<path d="M28.2332 22.7785C28.2332 22.5173 28.3331 22.2714 28.5252 22.0794C28.7096 21.8873 28.9554 21.7875 29.2243 21.7875C29.4855 21.7875 29.7313 21.8873 29.9234 22.0794C30.1154 22.2638 30.2153 22.5096 30.2153 22.7785C30.2153 23.3239 29.7697 23.7618 29.232 23.7618C28.9708 23.7618 28.7172 23.662 28.5329 23.4699C28.3331 23.2855 28.2332 23.0397 28.2332 22.7785ZM29.2166 23.9616C29.5316 23.9616 29.8312 23.8387 30.054 23.6159C30.2768 23.3931 30.3997 23.0935 30.3997 22.7785C30.3997 22.4635 30.2768 22.1639 30.054 21.9411C29.8312 21.7106 29.5316 21.5877 29.2166 21.5877C28.5636 21.5877 28.0335 22.1255 28.0335 22.7785C28.0335 23.0935 28.1564 23.3931 28.3792 23.6159C28.602 23.8387 28.9016 23.9616 29.2166 23.9616Z" fill="#F9B611"/>
<path d="M29.5393 22.4789C29.5393 22.5557 29.5239 22.6018 29.4778 22.6325C29.4394 22.6556 29.3779 22.6709 29.3011 22.6709H28.9323V22.2945H29.3241C29.3779 22.2945 29.4163 22.3022 29.4548 22.3175C29.5162 22.3483 29.5393 22.3944 29.5393 22.4789ZM29.8005 23.3316C29.7851 23.3239 29.7697 23.3086 29.762 23.2702C29.762 23.2471 29.7544 23.2164 29.7544 23.1703L29.7467 23.0013C29.7467 22.9168 29.7313 22.863 29.7006 22.8246C29.6775 22.8015 29.6545 22.7785 29.6238 22.7554C29.6622 22.7324 29.7006 22.7017 29.7236 22.6633C29.762 22.6095 29.7774 22.5403 29.7774 22.4635C29.7774 22.3022 29.716 22.1946 29.5854 22.1408C29.5162 22.1101 29.4317 22.0948 29.3395 22.0948H28.7249V23.4161H28.9554V22.8707H29.3165C29.3779 22.8707 29.4317 22.8784 29.4624 22.8937C29.5085 22.9168 29.5316 22.9629 29.5393 23.032L29.5546 23.2394C29.5546 23.2855 29.5623 23.3239 29.5623 23.3393C29.5623 23.3624 29.57 23.3777 29.5777 23.3854L29.5854 23.4008H29.8389V23.3239L29.8005 23.3316Z" fill="#F9B611"/>
</svg>
