<svg width="25" height="24" viewBox="0 0 25 24" fill="none" xmlns="http://www.w3.org/2000/svg">
<path d="M10.1566 22.0804H6.66642C5.54752 22.0804 4.47994 21.639 3.68952 20.8383C2.88884 20.0479 2.44743 18.9906 2.44743 17.8614V6.15911C2.44743 5.04021 2.88884 3.97263 3.68952 3.18221C4.47994 2.38152 5.53725 1.95038 6.66642 1.95038H10.1566V22.0804ZM11.9119 0H6.66642C3.26865 0 0.517578 2.75107 0.517578 6.14885V17.8512C0.517578 21.2489 3.26865 24 6.66642 24H11.9119C12.0146 24 12.0967 23.9281 12.0967 23.8255V0.174508C12.0967 0.0718563 12.0043 0 11.9119 0ZM4.24384 7.19589C4.24384 8.43798 5.26009 9.45424 6.50218 9.45424C7.74427 9.45424 8.76052 8.43798 8.76052 7.19589C8.76052 5.95381 7.74427 4.93755 6.50218 4.93755C5.26009 4.93755 4.24384 5.95381 4.24384 7.19589ZM19.2413 10.7784C20.5757 10.7784 21.6639 11.8666 21.6639 13.201C21.6639 14.5458 20.5757 15.6339 19.2413 15.6339C17.8965 15.6339 16.8084 14.5458 16.8084 13.201C16.8084 11.8666 17.8965 10.7784 19.2413 10.7784ZM14.663 24H18.3687C21.7665 24 24.5176 21.2489 24.5176 17.8512V6.14885C24.5176 2.75107 21.7665 0 18.3687 0H14.6527C14.5706 0 14.4885 0.0615911 14.4885 0.143713V23.8255C14.4885 23.9281 14.5603 24 14.663 24Z" fill="#F9B611"/>
</svg>
