<svg width="44" height="24" viewBox="0 0 44 24" fill="none" xmlns="http://www.w3.org/2000/svg">
<path d="M0 0.310881H11.5648C14.0518 0.310881 15.9793 0.932642 17.2228 2.17617C18.4663 3.41969 19.0881 5.16062 19.0881 7.46114C19.0881 9.82383 18.4041 11.6269 17.0363 12.9326C15.6684 14.2383 13.5544 14.9223 10.7565 14.9223H6.96373V23.5026H0V0.310881ZM6.96373 10.1969H8.70466C10.0725 10.1969 11.0052 9.94819 11.5026 9.45078C12.0622 8.95337 12.3109 8.33161 12.3109 7.58549C12.3109 6.83938 12.0622 6.21762 11.6269 5.72021C11.1295 5.2228 10.2591 4.97409 8.95337 4.97409H6.96373V10.1969ZM37.7409 14.0518L43.8342 15.9793C43.399 17.7202 42.7772 19.2124 41.9067 20.3938C41.0363 21.5751 39.9171 22.4456 38.6114 23.0674C37.3057 23.6891 35.6269 24 33.6373 24C31.2124 24 29.1606 23.6269 27.6062 22.8808C26.0518 22.1347 24.6839 20.829 23.5648 19.0259C22.4456 17.1606 21.886 14.7979 21.886 11.9378C21.886 8.0829 22.8808 5.16062 24.8705 3.10881C26.8601 1.05699 29.658 0 33.2642 0C36.1244 0 38.3627 0.559586 39.9793 1.74093C41.5959 2.92228 42.8394 4.72539 43.5855 7.21243L37.43 8.64249C37.2435 7.95855 36.9948 7.39896 36.7461 7.08808C36.3731 6.5285 35.8756 6.09326 35.3161 5.84456C34.7565 5.53368 34.1347 5.40933 33.4508 5.40933C31.8964 5.40933 30.6528 6.09326 29.8446 7.39896C29.2228 8.39378 28.9119 9.88601 28.9119 12C28.9119 14.5492 29.285 16.3523 30.0311 17.285C30.7772 18.2176 31.8342 18.715 33.2021 18.715C34.5078 18.715 35.5648 18.342 36.2487 17.5337C36.9326 16.6632 37.43 15.544 37.7409 14.0518Z" fill="#F9B611"/>
</svg>
