<svg width="24" height="24" viewBox="0 0 24 24" fill="none" xmlns="http://www.w3.org/2000/svg">
<path d="M11.9 4C7.73583 4 4.32513 7.24189 4 11.3591L8.24853 13.1317C8.60805 12.8847 9.04259 12.7378 9.51153 12.7378C9.55217 12.7378 9.59594 12.7378 9.63658 12.7409L11.5248 9.97733C11.5248 9.96483 11.5248 9.95232 11.5248 9.93669C11.5248 8.27354 12.866 6.91989 14.5135 6.91989C16.161 6.91989 17.5021 8.27354 17.5021 9.93669C17.5021 11.5998 16.161 12.9535 14.5135 12.9535C14.4916 12.9535 14.4697 12.9535 14.4447 12.9535L11.753 14.8949C11.753 14.9293 11.7562 14.9668 11.7562 15.0012C11.7562 16.2485 10.7495 17.2646 9.51153 17.2646C8.42673 17.2646 7.517 16.483 7.31067 15.4451L4.27198 14.179C5.21297 17.5365 8.27042 20 11.9 20C16.2798 20 19.8281 16.4174 19.8281 12C19.8281 7.58265 16.2798 4 11.9 4Z" fill="#151210"/>
<path d="M8.96757 16.1391L7.99218 15.7327C8.16413 16.0953 8.46424 16.3986 8.86127 16.5643C9.71786 16.9238 10.7057 16.5143 11.0621 15.6483C11.2341 15.2294 11.2372 14.7667 11.0653 14.3478C10.8933 13.9289 10.5713 13.6006 10.1555 13.4256C9.74287 13.2536 9.30207 13.2599 8.91442 13.4068L9.92106 13.8257C10.5526 14.0914 10.8527 14.823 10.5901 15.4607C10.3275 16.1016 9.59906 16.4048 8.96757 16.1391Z" fill="#151210"/>
<path d="M13.0223 9.93357C13.0223 9.09887 13.6913 8.4236 14.5197 8.4236C15.3451 8.4236 16.0172 9.09887 16.0172 9.93357C16.0172 10.7683 15.3482 11.4435 14.5197 11.4435C13.6944 11.4435 13.0223 10.7683 13.0223 9.93357ZM16.508 9.93669C16.508 8.82689 15.6139 7.92653 14.5166 7.92653C13.4193 7.92653 12.5252 8.83001 12.5252 9.93669C12.5252 11.0465 13.4193 11.9469 14.5166 11.9469C15.6139 11.9469 16.508 11.0465 16.508 9.93669Z" fill="#151210"/>
</svg>
