<svg width="24" height="24" viewBox="0 0 24 24" fill="none" xmlns="http://www.w3.org/2000/svg">
<path d="M6.37993 6.30734V6.30818C5.62509 7.05137 5.02588 7.9375 4.6173 8.91484C4.20871 9.89217 3.99895 10.9411 4.00025 12.0004C3.99786 13.7516 4.57258 15.4547 5.6355 16.8464C5.64643 16.8599 5.66325 16.8674 5.6784 16.8599C5.6927 16.8515 5.69354 16.8338 5.68765 16.8187C5.0778 14.9327 8.19519 10.3618 9.80604 8.44561C9.81109 8.43888 9.81782 8.43131 9.81782 8.42206C9.81782 8.41112 9.81025 8.40271 9.80267 8.39598C7.09325 5.69917 6.36984 6.31575 6.37993 6.30734ZM17.6138 6.30061L17.6214 6.30734V6.30818C18.3762 7.05138 18.9753 7.93754 19.3837 8.91488C19.7922 9.89222 20.0017 10.9412 20.0002 12.0004C20.0026 13.7516 19.4279 15.4547 18.365 16.8464C18.3549 16.8599 18.3372 16.8674 18.3221 16.8599C18.3086 16.8515 18.3078 16.8338 18.3128 16.8187C18.9227 14.9327 15.8078 10.3584 14.1978 8.4414C14.1919 8.43467 14.186 8.4271 14.186 8.41869C14.186 8.40691 14.1928 8.3985 14.2012 8.39177C16.9114 5.69497 17.6298 6.31575 17.6206 6.30734L17.6138 6.30061ZM12.0007 4C13.6149 4 14.9431 4.44246 16.1678 5.17092C16.183 5.17849 16.1872 5.19531 16.1813 5.21045C16.1754 5.22475 16.1586 5.22811 16.1426 5.22391C14.594 4.88912 12.2396 6.22743 12.0175 6.36118C12.0124 6.36454 12.0074 6.36791 12.0007 6.36791C11.9931 6.36791 11.988 6.36454 11.983 6.36118C11.3925 6.02218 9.21638 4.88155 7.8461 5.23232C7.83096 5.23569 7.81414 5.23316 7.80741 5.21802C7.80454 5.21091 7.80432 5.20301 7.80679 5.19575C7.80926 5.18849 7.81426 5.18237 7.82087 5.17849C9.04562 4.44246 10.3907 4 12.0007 4ZM12.0007 10.4165C12.0099 10.4165 12.02 10.4241 12.0259 10.4291C14.4199 12.2494 18.5172 16.7497 17.2664 18.0224L17.2681 18.0207L17.2673 18.0224H17.2656C15.8094 19.3005 13.9374 20.0042 11.9998 20.0017C10.0621 20.004 8.18982 19.3004 6.73323 18.0224C5.48492 16.7497 9.58144 12.2494 11.9729 10.4291C11.9796 10.4241 11.9906 10.4165 12.0007 10.4165Z" fill="#151210"/>
</svg>
