<svg width="24" height="24" viewBox="0 0 24 24" fill="none" xmlns="http://www.w3.org/2000/svg">
<path d="M10.65 13.8L14.4 11.925L10.65 10.05V13.8Z" fill="#151210"/>
<path fill-rule="evenodd" clip-rule="evenodd" d="M21 7.28907C21 4.6875 19.3125 3 16.7109 3H7.28907C4.6875 3 3 4.6875 3 7.28907V16.7109C3 19.3125 4.6875 21 7.28907 21H16.7109C19.3125 21 21 19.3125 21 16.7109V7.28907ZM12.0644 7.2C8.8446 7.2 7.17587 7.35449 7.17587 7.35449C5.63709 7.50899 5.48442 8.82987 5.48442 8.82987C4.95697 12.1367 5.48442 15.1735 5.48442 15.1735C5.48442 15.1735 5.66534 16.3732 6.95319 16.5855C8.24105 16.7978 12.0644 16.8 12.0644 16.8C14.1529 16.8 16.3507 16.7107 17.0286 16.6295C17.7064 16.5484 18.0137 16.2509 18.0137 16.2509C18.0137 16.2509 18.4926 15.9534 18.7095 14.9348C18.9264 13.9161 18.8988 12 18.8988 12C18.8988 8.90487 18.4412 8.27007 18.4412 8.27007C17.9834 7.39518 16.8122 7.35449 16.8122 7.35449C16.8122 7.35449 15.2842 7.2 12.0644 7.2Z" fill="#151210"/>
</svg>
