<svg width="24" height="24" viewBox="0 0 24 24" fill="none" xmlns="http://www.w3.org/2000/svg">
<path d="M12.0352 9.8379C10.7828 9.8379 9.76757 10.8531 9.76757 12.1055C9.76757 13.3578 10.7828 14.3731 12.0352 14.3731C13.2875 14.3731 14.3027 13.3578 14.3027 12.1055C14.3027 10.8531 13.2875 9.8379 12.0352 9.8379Z" fill="#151210"/>
<path fill-rule="evenodd" clip-rule="evenodd" d="M9.1875 6.67383C7.7604 6.67383 6.60351 7.83072 6.60351 9.25781V14.8477C6.60351 16.2748 7.7604 17.4316 9.1875 17.4316H14.8477C16.2747 17.4316 17.4316 16.2748 17.4316 14.8477V9.25781C17.4316 7.83072 16.2747 6.67383 14.8477 6.67383H9.1875ZM8.5371 12.1055C8.5371 10.1735 10.1032 8.60743 12.0352 8.60743C13.9671 8.60743 15.5332 10.1736 15.5332 12.1055C15.5332 14.0374 13.9671 15.6035 12.0352 15.6035C10.1032 15.6035 8.5371 14.0374 8.5371 12.1055ZM16.4121 8.51954C16.4121 8.98553 16.0344 9.36329 15.5684 9.36329C15.1024 9.36329 14.7246 8.98553 14.7246 8.51954C14.7246 8.05355 15.1024 7.67579 15.5684 7.67579C16.0344 7.67579 16.4121 8.05355 16.4121 8.51954Z" fill="#151210"/>
<path fill-rule="evenodd" clip-rule="evenodd" d="M21 7.28907C21 4.6875 19.3125 3 16.7109 3H7.28907C4.6875 3 3 4.6875 3 7.28907V16.7109C3 19.3125 4.6875 21 7.28907 21H16.7109C19.3125 21 21 19.3125 21 16.7109V7.28907ZM5.37305 9.25781C5.37305 7.15115 7.08083 5.44336 9.1875 5.44336H14.8477C16.9543 5.44336 18.6621 7.15115 18.6621 9.25781V14.8477C18.6621 16.9543 16.9543 18.6621 14.8477 18.6621H9.1875C7.08083 18.6621 5.37305 16.9543 5.37305 14.8477V9.25781Z" fill="#151210"/>
</svg>
