<svg width="24" height="25" viewBox="0 0 24 25" fill="none" xmlns="http://www.w3.org/2000/svg">
<path d="M24 6.54297C24 3.07422 21.75 0.824219 18.2812 0.824219H5.71875C2.25 0.824219 0 3.07422 0 6.54297V19.1054C0 22.5742 2.25 24.8242 5.71875 24.8242L12.5544 24.8242V15.4097H9.53447V12.0669H12.5544V9.61571C12.5544 9.61571 12.3371 4.52072 16.7463 4.52072H20.313V7.92655H18.0906C18.0906 7.92655 16.455 7.83779 16.4372 9.52587V12.0669H20.0326L19.5141 15.4097H16.4016V24.8242L18.2812 24.8242C21.75 24.8242 24 22.5742 24 19.1054V6.54297Z" fill="#F9B611"/>
</svg>
