<svg width="24" height="25" viewBox="0 0 24 25" fill="none" xmlns="http://www.w3.org/2000/svg">
<path d="M10.2 15.2242L15.2 12.7242L10.2 10.2242V15.2242Z" fill="#F9B611"/>
<path fill-rule="evenodd" clip-rule="evenodd" d="M24 6.54297C24 3.07422 21.75 0.824219 18.2812 0.824219H5.71875C2.25 0.824219 0 3.07422 0 6.54297V19.1054C0 22.5742 2.25 24.8242 5.71875 24.8242H18.2812C21.75 24.8242 24 22.5742 24 19.1054V6.54297ZM12.0859 6.42422C7.79279 6.42422 5.56781 6.6302 5.56781 6.6302C3.51611 6.83619 3.31255 8.59737 3.31255 8.59737C2.6093 13.0064 3.31255 17.0556 3.31255 17.0556C3.31255 17.0556 3.55377 18.6551 5.27091 18.9382C6.98805 19.2213 12.0859 19.2242 12.0859 19.2242C14.8706 19.2242 17.801 19.1051 18.7047 18.9969C19.6084 18.8888 20.0182 18.4921 20.0182 18.4921C20.0182 18.4921 20.6568 18.0954 20.946 16.7373C21.2352 15.379 21.1984 12.8242 21.1984 12.8242C21.1984 8.69737 20.5882 7.85097 20.5882 7.85097C19.9778 6.68446 18.4163 6.6302 18.4163 6.6302C18.4163 6.6302 16.379 6.42422 12.0859 6.42422Z" fill="#F9B611"/>
</svg>
