<svg width="24" height="25" viewBox="0 0 24 25" fill="none" xmlns="http://www.w3.org/2000/svg">
<path fill-rule="evenodd" clip-rule="evenodd" d="M24 6.54297C24 3.07422 21.75 0.824219 18.2812 0.824219H5.71875C2.25 0.824219 0 3.07422 0 6.54297V19.1054C0 22.5742 2.25 24.8242 5.71875 24.8242H18.2812C21.75 24.8242 24 22.5742 24 19.1054V6.54297ZM6.89274 21.7415C7.22317 21.7415 7.49101 21.4737 7.49101 21.1432V10.4676C7.49101 10.1372 7.22317 9.86933 6.89274 9.86933H4.34604C4.01561 9.86933 3.74777 10.1372 3.74777 10.4676V21.1432C3.74777 21.4737 4.01561 21.7415 4.34604 21.7415H6.89274ZM3.20001 6.44361C3.20001 7.77978 4.28321 8.86299 5.61939 8.86299C6.95562 8.86299 8.03877 7.77978 8.03877 6.44361C8.03877 5.10743 6.95556 4.02423 5.61939 4.02423C4.28321 4.02423 3.20001 5.10743 3.20001 6.44361ZM20.2499 21.7415C20.5537 21.7415 20.8 21.4952 20.8 21.1914L20.8 15.9865C20.8001 13.7324 20.8004 9.69019 16.4491 9.69019C14.473 9.69019 13.5449 10.4136 12.9204 11.3508V10.4194C12.9204 10.1156 12.6741 9.86933 12.3703 9.86933H9.72726C9.42349 9.86933 9.17718 10.1156 9.17718 10.4194V21.1914C9.17718 21.4952 9.42349 21.7415 9.72726 21.7415H12.3703C12.6742 21.7415 12.9204 21.4952 12.9204 21.1914V15.4158C12.989 14.6398 13.3306 12.9105 15.0148 12.9105C17.0262 12.9105 16.9863 15.0784 16.9695 15.9916C16.9682 16.0642 16.967 16.1289 16.967 16.184V21.1914C16.967 21.4952 17.2133 21.7415 17.5171 21.7415H20.2499Z" fill="#F9B611"/>
</svg>
