<svg width="24" height="25" viewBox="0 0 24 25" fill="none" xmlns="http://www.w3.org/2000/svg">
<path d="M12.0469 9.9414C10.3771 9.9414 9.02341 11.295 9.02341 12.9648C9.02341 14.6346 10.3771 15.9883 12.0469 15.9883C13.7166 15.9883 15.0703 14.6346 15.0703 12.9648C15.0703 11.295 13.7166 9.9414 12.0469 9.9414Z" fill="#F9B611"/>
<path fill-rule="evenodd" clip-rule="evenodd" d="M8.24998 5.72265C6.34719 5.72265 4.80468 7.26516 4.80468 9.16795V16.6211C4.80468 18.5239 6.34719 20.0664 8.24998 20.0664H15.7969C17.6996 20.0664 19.2422 18.5239 19.2422 16.6211V9.16795C19.2422 7.26516 17.6996 5.72265 15.7969 5.72265H8.24998ZM7.38279 12.9648C7.38279 10.3889 9.47098 8.30078 12.0469 8.30078C14.6227 8.30078 16.7109 10.3889 16.7109 12.9648C16.7109 15.5407 14.6227 17.6289 12.0469 17.6289C9.47097 17.6289 7.38279 15.5407 7.38279 12.9648ZM17.8828 8.18359C17.8828 8.80491 17.3791 9.30859 16.7578 9.30859C16.1365 9.30859 15.6328 8.80491 15.6328 8.18359C15.6328 7.56227 16.1365 7.05859 16.7578 7.05859C17.3791 7.05859 17.8828 7.56227 17.8828 8.18359Z" fill="#F9B611"/>
<path fill-rule="evenodd" clip-rule="evenodd" d="M24 6.54297C24 3.07422 21.75 0.824219 18.2812 0.824219H5.71875C2.25 0.824219 0 3.07422 0 6.54297V19.1054C0 22.5742 2.25 24.8242 5.71875 24.8242H18.2812C21.75 24.8242 24 22.5742 24 19.1054V6.54297ZM3.16406 9.16795C3.16406 6.35907 5.4411 4.08203 8.24998 4.08203H15.7969C18.6057 4.08203 20.8828 6.35907 20.8828 9.16795V16.6211C20.8828 19.43 18.6057 21.707 15.7969 21.707H8.24998C5.4411 21.707 3.16406 19.43 3.16406 16.6211V9.16795Z" fill="#F9B611"/>
</svg>
