<svg width="24" height="25" viewBox="0 0 24 25" fill="none" xmlns="http://www.w3.org/2000/svg">
<path fill-rule="evenodd" clip-rule="evenodd" d="M24 6.54297C24 3.07422 21.75 0.824219 18.2812 0.824219H5.71875C2.25 0.824219 0 3.07422 0 6.54297V19.1054C0 22.5742 2.25 24.8242 5.71875 24.8242H18.2812C21.75 24.8242 24 22.5742 24 19.1054V6.54297ZM12.2076 10.5773C8.05878 10.3737 5.33539 6.98851 5.33539 6.98851C3.85979 9.9313 6.29998 11.4385 6.29998 11.4385C5.72518 11.5183 4.84699 11.0713 4.84699 11.0713C5.32599 14.2965 7.48158 14.2807 7.48158 14.2807C7.06638 14.6159 6.04458 14.4403 6.04458 14.4403C7.05058 16.8513 9.09418 16.6597 9.09418 16.6597C7.46558 18.3681 4.39999 18.0489 4.39999 18.0489C7.28998 20.3161 11.3936 19.3901 11.3936 19.3901C19.1534 17.6497 18.7124 9.6981 18.7124 9.6981C20.1618 8.96811 20.331 7.96311 20.331 7.96311C19.4424 8.54511 18.6596 8.60851 18.6596 8.60851C20.0666 7.43431 19.9078 6.70431 19.9078 6.70431C18.8288 7.49771 17.9336 7.54111 17.9336 7.54111C15.9488 5.58511 13.8922 6.79311 13.8922 6.79311C11.3608 8.33211 12.2076 10.5773 12.2076 10.5773Z" fill="#F9B611"/>
</svg>
