<svg width="24" height="24" viewBox="0 0 24 24" fill="none" xmlns="http://www.w3.org/2000/svg">
<path fill-rule="evenodd" clip-rule="evenodd" d="M21 7.28907C21 4.6875 19.3125 3 16.7109 3H7.28907C4.6875 3 3 4.6875 3 7.28907V16.7109C3 19.3125 4.6875 21 7.28907 21H16.7109C19.3125 21 21 19.3125 21 16.7109V7.28907ZM8.16956 18.688C8.41738 18.688 8.61826 18.4871 8.61826 18.2393V10.2325C8.61826 9.98472 8.41738 9.78384 8.16956 9.78384H6.25953C6.01171 9.78384 5.81083 9.98472 5.81083 10.2325V18.2393C5.81083 18.4871 6.01171 18.688 6.25953 18.688H8.16956ZM5.40001 7.21455C5.40001 8.21668 6.21241 9.02908 7.21455 9.02908C8.21672 9.02908 9.02908 8.21668 9.02908 7.21455C9.02908 6.21241 8.21668 5.40001 7.21455 5.40001C6.21241 5.40001 5.40001 6.21241 5.40001 7.21455ZM18.1874 18.688C18.4153 18.688 18.6 18.5033 18.6 18.2754L18.6 14.3717C18.6001 12.6812 18.6003 9.64949 15.3369 9.64949C13.8548 9.64949 13.1587 10.192 12.6903 10.8949V10.1964C12.6903 9.96857 12.5056 9.78384 12.2778 9.78384H10.2955C10.0676 9.78384 9.8829 9.96857 9.8829 10.1964V18.2754C9.8829 18.5033 10.0676 18.688 10.2955 18.688H12.2778C12.5056 18.688 12.6903 18.5033 12.6903 18.2754V13.9437C12.7418 13.3617 12.998 12.0648 14.2612 12.0648C15.7697 12.0648 15.7398 13.6907 15.7272 14.3756C15.7262 14.43 15.7253 14.4785 15.7253 14.5198V18.2754C15.7253 18.5033 15.91 18.688 16.1378 18.688H18.1874Z" fill="#151210"/>
</svg>
