<svg width="24" height="24" viewBox="0 0 24 24" fill="none" xmlns="http://www.w3.org/2000/svg">
<path d="M21 7.28907C21 4.6875 19.3125 3 16.7109 3H7.28907C4.6875 3 3 4.6875 3 7.28907V16.7109C3 19.3125 4.6875 21 7.28907 21L12.4158 21V13.9391H10.1509V11.432H12.4158V9.59363C12.4158 9.59363 12.2529 5.77238 15.5598 5.77238H18.2348V8.32676H16.5679C16.5679 8.32676 15.3412 8.26019 15.3279 9.52625V11.432H18.0245L17.6356 13.9391H15.3012V21L16.7109 21C19.3125 21 21 19.3125 21 16.7109V7.28907Z" fill="#151210"/>
</svg>
