<svg width="24" height="24" viewBox="0 0 24 24" fill="none" xmlns="http://www.w3.org/2000/svg">
<path fill-rule="evenodd" clip-rule="evenodd" d="M21 7.28907C21 4.6875 19.3125 3 16.7109 3H7.28907C4.6875 3 3 4.6875 3 7.28907V16.7109C3 19.3125 4.6875 21 7.28907 21H16.7109C19.3125 21 21 19.3125 21 16.7109V7.28907ZM12.1557 10.3148C9.0441 10.1621 7.00155 7.62322 7.00155 7.62322C5.89485 9.83032 7.725 10.9607 7.725 10.9607C7.2939 11.0206 6.63525 10.6853 6.63525 10.6853C6.9945 13.1042 8.6112 13.0924 8.6112 13.0924C8.2998 13.3438 7.53345 13.2121 7.53345 13.2121C8.28795 15.0203 9.82065 14.8766 9.82065 14.8766C8.5992 16.1579 6.3 15.9185 6.3 15.9185C8.4675 17.6189 11.5452 16.9244 11.5452 16.9244C17.365 15.6191 17.0343 9.65542 17.0343 9.65542C18.1213 9.10792 18.2482 8.35417 18.2482 8.35417C17.5818 8.79067 16.9947 8.83822 16.9947 8.83822C18.0499 7.95757 17.9308 7.41007 17.9308 7.41007C17.1216 8.00512 16.4502 8.03767 16.4502 8.03767C14.9616 6.57067 13.4191 7.47667 13.4191 7.47667C11.5206 8.63092 12.1557 10.3148 12.1557 10.3148Z" fill="#151210"/>
</svg>
