<svg width="172" height="27" viewBox="0 0 172 27" fill="none" xmlns="http://www.w3.org/2000/svg">
<path d="M64.9953 14.9448C64.9953 12.1465 64.9953 9.3311 64.9953 6.53282C64.9953 4.66158 65.579 4.06072 67.4674 4.09506C70.1283 4.12939 72.8064 3.97489 75.433 4.2839C79.6047 4.76458 82.0596 7.78604 82.0596 11.992C82.0596 13.9663 81.991 15.9405 82.0768 17.9148C82.2657 22.5843 78.9008 25.5543 74.6777 25.8289C72.0854 26.0006 69.476 25.9148 66.8665 25.8804C65.5961 25.8633 65.0125 25.1422 64.9953 23.7002C64.9953 20.7817 64.9953 17.8633 64.9953 14.9448ZM70.0597 14.9277C70.0597 16.9019 70.0768 18.8762 70.0597 20.8332C70.0597 21.3826 70.2142 21.7259 70.815 21.7088C71.9309 21.6916 73.0468 21.7431 74.1455 21.6229C75.9481 21.4169 77.0124 20.1809 77.0296 18.3783C77.0468 16.1294 77.0468 13.8633 77.0296 11.6144C77.0124 9.67445 75.8107 8.40406 73.8536 8.28389C72.8923 8.23239 71.9137 8.28389 70.9352 8.24956C70.2657 8.23239 70.0253 8.50707 70.0425 9.15943C70.0768 11.0993 70.0597 13.0049 70.0597 14.9277Z" fill="#151210"/>
<path d="M21.9911 14.9277C21.9911 13.9491 22.0426 12.9877 21.9739 12.0092C21.7164 7.94054 24.549 4.19806 29.4417 3.63154C34.0769 3.08218 38.2142 5.9148 38.9009 10.2581C39.0897 11.4084 39.0039 12.5929 39.0211 13.7603C39.0382 15.2195 39.0211 16.6787 39.0211 18.138C39.0211 22.6015 36.0168 25.9319 31.5533 26.3268C28.2056 26.6186 25.3215 25.6573 23.2958 22.8075C22.4374 21.5886 21.9911 20.198 21.9911 18.7045C21.9739 17.4341 21.9911 16.1809 21.9911 14.9277ZM34.0082 14.962C34.0082 13.8461 34.0254 12.7302 34.0082 11.6144C33.9739 9.48561 32.4803 7.99205 30.4717 8.00921C28.4803 8.02638 27.0211 9.53711 27.0039 11.5972C26.9868 13.8633 26.9868 16.1122 27.0039 18.3783C27.0211 20.4555 28.4975 21.9319 30.5061 21.9319C32.5146 21.9319 33.9739 20.4727 34.0082 18.3955C34.0254 17.2453 33.991 16.1122 34.0082 14.962Z" fill="#151210"/>
<path d="M168.223 15.0135C168.223 16.5242 168.377 18.0521 168.188 19.5457C167.742 23.168 164.909 25.7774 161.012 26.3096C157.115 26.8418 153.442 25.0221 151.982 21.6916C151.519 20.6444 151.347 19.4427 151.278 18.2925C151.175 16.2152 151.33 14.1208 151.227 12.0264C150.987 6.58432 155.639 2.96201 160.978 3.66587C164.944 4.18089 167.708 6.756 168.171 10.3955C168.377 11.9062 168.223 13.4684 168.223 15.0135ZM163.296 15.0307C163.296 13.8633 163.33 12.6787 163.296 11.5114C163.227 9.45127 161.716 7.97488 159.725 8.00921C157.733 8.04355 156.291 9.55428 156.274 11.6144C156.257 13.8461 156.257 16.0779 156.274 18.3096C156.291 20.404 157.716 21.8976 159.708 21.9319C161.751 21.9663 163.244 20.4899 163.296 18.3783C163.313 17.2624 163.296 16.1465 163.296 15.0307Z" fill="#151210"/>
<path d="M9.21854 26.3955C5.87091 26.3096 3.12413 24.713 1.11555 21.7774C0.566193 20.9877 0.669197 20.5242 1.47606 19.992C2.16276 19.5285 2.83228 18.9277 3.60482 18.756C4.56619 18.55 4.85803 19.683 5.45889 20.198C6.98678 21.4513 8.61768 22.344 10.6434 21.7603C11.2786 21.5714 11.9653 21.1422 12.3773 20.6272C13.4589 19.3053 12.9439 17.5886 11.3473 17.0221C10.6949 16.7817 9.93957 16.7989 9.25288 16.6444C7.81082 16.3182 6.28292 16.1809 4.96104 15.5972C0.617695 13.6058 0.171344 7.90621 4.034 5.1251C7.4503 2.67017 12.8924 3.16802 15.7936 6.20664C16.755 7.20235 16.6692 7.58003 15.6048 8.47273C14.2829 9.58861 13.1499 10.1723 11.5533 8.71308C10.4203 7.68303 8.85803 7.71737 7.43314 8.4384C6.72927 8.79891 6.24859 9.3826 6.28292 10.2066C6.31726 11.0478 6.83228 11.6144 7.57048 11.8547C8.24 12.0779 8.96103 12.1294 9.64773 12.2839C11.0383 12.5757 12.4975 12.6959 13.8022 13.1938C19.3988 15.3225 18.6263 22.0521 15.3645 24.5242C13.6306 25.8633 11.622 26.3439 9.21854 26.3955Z" fill="#151210"/>
<path d="M117.579 26.3783C113.991 26.3268 111.227 24.7646 109.201 21.8118C108.635 20.9706 108.721 20.5242 109.562 19.9577C109.957 19.683 110.369 19.4083 110.763 19.1508C111.776 18.4813 111.914 18.6015 112.789 19.3912C113.716 20.2495 114.763 21.0221 115.879 21.6229C116.909 22.1894 118.111 22.0864 119.21 21.6229C120.36 21.1422 121.012 20.095 120.944 18.9105C120.875 17.8804 120.154 17.1079 118.849 16.8504C117.751 16.6444 116.635 16.6272 115.536 16.4212C114.678 16.2495 113.802 15.992 113.012 15.6315C108.772 13.6401 108.206 8.09505 111.931 5.26244C115.347 2.653 121.064 3.16802 123.965 6.34398C124.772 7.23668 124.738 7.6487 123.793 8.35256C123.725 8.40406 123.656 8.45557 123.587 8.50707C122.317 9.70878 121.15 10.1036 119.622 8.71308C118.506 7.7002 116.961 7.71737 115.57 8.40406C114.849 8.76458 114.317 9.3311 114.351 10.2238C114.386 11.1165 114.952 11.6487 115.725 11.9062C116.36 12.1294 117.064 12.1637 117.733 12.3011C118.969 12.5414 120.24 12.6444 121.424 13.0221C124.137 13.9148 125.854 15.7517 125.974 18.7216C126.094 21.6744 124.858 23.9405 122.214 25.3311C120.772 26.0864 119.21 26.3783 117.579 26.3783Z" fill="#151210"/>
<path d="M135.965 14.962C135.965 16.1294 135.948 17.3139 135.965 18.4813C135.999 20.0092 136.721 21.1079 138.111 21.6916C139.467 22.2753 141.03 21.9319 142.042 20.8161C142.506 20.3182 142.866 19.7345 143.244 19.1508C143.639 18.55 144.137 18.4641 144.703 18.8075C145.339 19.1852 145.939 19.6487 146.575 20.0092C147.364 20.4555 147.467 21.0564 147.124 21.8289C146.094 24.095 144.291 25.4341 141.922 26.0521C138.077 27.065 134.128 25.6916 132.137 22.653C131.296 21.3654 130.918 19.9577 130.901 18.4298C130.884 16.2839 130.901 14.138 130.901 11.992C130.901 7.32252 133.905 4.00922 138.575 3.61437C141.493 3.37403 144.085 4.14656 146.06 6.42982C146.454 6.87617 146.763 7.40836 147.038 7.94055C147.553 8.98775 147.433 9.3826 146.472 10.0006C145.905 10.3783 145.321 10.756 144.738 11.1165C144.12 11.5114 143.622 11.4084 143.21 10.7732C142.866 10.241 142.523 9.70878 142.128 9.24526C141.098 8.07788 139.57 7.71737 138.145 8.24956C136.806 8.76458 135.965 9.98346 135.948 11.5285C135.948 12.6616 135.965 13.8118 135.965 14.962Z" fill="#151210"/>
<path d="M96.051 8.26672C94.1283 8.26672 92.2227 8.26672 90.3 8.26672C89.1498 8.26672 88.9438 8.04355 88.9266 6.92767C88.9266 6.32681 88.9266 5.72596 88.9266 5.1251C88.9266 4.47274 89.2184 4.09506 89.9051 4.09506C93.991 4.09506 98.0768 4.09506 102.163 4.09506C102.832 4.09506 103.141 4.47274 103.158 5.1251C103.175 5.77746 103.175 6.44699 103.158 7.09934C103.141 7.99205 102.884 8.26673 101.957 8.28389C99.9995 8.26673 98.0253 8.26672 96.051 8.26672Z" fill="#151210"/>
<path d="M52.5318 4.07789C54.506 4.07789 56.4803 4.07789 58.4374 4.07789C59.3816 4.07789 59.6219 4.31823 59.6391 5.2281C59.6562 5.8633 59.6562 6.48132 59.6391 7.11651C59.6219 7.99205 59.3644 8.24956 58.403 8.24956C56.1713 8.26673 53.9395 8.24956 51.7249 8.24956C50.1284 8.24956 48.5318 8.24956 46.9352 8.24956C45.6133 8.24956 45.4245 8.04355 45.4245 6.68733C45.4245 6.17231 45.4245 5.65729 45.4245 5.14227C45.4245 4.40407 45.785 4.06072 46.5404 4.06072C48.549 4.07789 50.5404 4.07789 52.5318 4.07789Z" fill="#151210"/>
<path d="M52.5833 21.7259C54.5232 21.7259 56.4631 21.7259 58.403 21.7259C59.4159 21.7259 59.6219 21.9319 59.6391 22.9276C59.6562 23.5285 59.6562 24.1294 59.6391 24.7302C59.6219 25.6573 59.3987 25.8804 58.4374 25.8976C55.6906 25.9148 52.961 25.8976 50.2142 25.8976C49.064 25.8976 47.9309 25.8976 46.7807 25.8976C45.6133 25.8976 45.4073 25.6744 45.4073 24.4727C45.4073 24.0092 45.4073 23.5628 45.4073 23.0993C45.4245 21.9663 45.6305 21.7259 46.7464 21.7259C48.7035 21.7259 50.6434 21.7259 52.5833 21.7259Z" fill="#151210"/>
<path d="M96.1025 25.8976C94.197 25.8976 92.2742 25.8976 90.3687 25.8976C89.0983 25.8976 88.9609 25.7259 88.9437 24.4384C88.9437 23.9234 88.9266 23.4083 88.9437 22.8933C88.9609 21.9663 89.1841 21.7259 90.1283 21.7259C92.7206 21.7088 95.33 21.7259 97.9223 21.7259C99.2613 21.7259 100.6 21.7088 101.957 21.7259C102.918 21.7431 103.158 22.0006 103.175 22.962C103.193 23.5285 103.193 24.1122 103.175 24.6787C103.158 25.6229 102.901 25.8804 101.922 25.8804C99.9824 25.8976 98.0424 25.8804 96.1025 25.8976Z" fill="#151210"/>
<path d="M50.8837 17.0736C49.476 17.0736 48.0854 17.0736 46.6777 17.0736C45.7163 17.0736 45.4417 16.7989 45.4245 15.8547C45.4073 15.2195 45.4245 14.6015 45.4245 13.9663C45.4245 13.2796 45.7678 12.8847 46.4717 12.8676C49.3902 12.8504 52.3086 12.8504 55.2271 12.8676C55.8794 12.8676 56.2399 13.2109 56.2571 13.8804C56.2743 14.5671 56.2743 15.2538 56.2743 15.9405C56.2743 16.7131 55.8966 17.0907 55.1069 17.0736C53.682 17.0736 52.2743 17.0736 50.8837 17.0736Z" fill="#151210"/>
<path d="M94.3171 17.0736C92.9438 17.0736 91.5704 17.0736 90.197 17.0736C89.1841 17.0736 88.9437 16.8161 88.9437 15.786C88.9437 15.1852 88.9609 14.5843 88.9437 13.9835C88.9266 13.2796 89.2699 12.8847 89.9566 12.8847C92.8751 12.8676 95.7935 12.8676 98.712 12.8847C99.3987 12.8847 99.7764 13.2453 99.7592 13.9663C99.7592 14.6186 99.742 15.2882 99.7592 15.9405C99.7764 16.7302 99.3815 17.0907 98.609 17.0907C97.1669 17.0736 95.742 17.0736 94.3171 17.0736Z" fill="#151210"/>
<path d="M167.072 2.92768C167.072 1.65729 167.845 0.850428 169.047 0.833261C170.283 0.816093 171.141 1.67446 171.124 2.94485C171.107 4.18089 170.3 4.98776 169.081 4.98776C167.862 4.98776 167.09 4.19806 167.072 2.92768ZM167.381 2.92768C167.381 3.95772 168.068 4.69592 169.064 4.71308C170.077 4.73025 170.832 3.95772 170.815 2.91051C170.798 1.88047 170.111 1.14227 169.115 1.14227C168.085 1.10794 167.381 1.84613 167.381 2.92768Z" fill="#151210"/>
<path d="M168.411 2.92768C168.411 2.72167 168.411 2.49849 168.411 2.29249C168.411 2.10364 168.497 1.98347 168.686 1.96631C168.892 1.94914 169.098 1.9148 169.287 1.93197C169.716 2.00064 169.939 2.51566 169.682 2.85901C169.476 3.11652 169.527 3.32253 169.648 3.56287C169.699 3.64871 169.733 3.83755 169.648 3.88905C169.544 3.95772 169.407 3.78605 169.321 3.70021C169.235 3.5972 169.201 3.42553 169.115 3.30536C169.081 3.25386 169.012 3.20236 168.926 3.20236C168.892 3.20236 168.841 3.30536 168.823 3.37403C168.806 3.47703 168.841 3.58004 168.806 3.68304C168.772 3.76888 168.72 3.90622 168.635 3.90622C168.532 3.90622 168.446 3.76888 168.446 3.68304C168.394 3.42553 168.411 3.16802 168.411 2.92768ZM168.789 2.53283C168.789 2.80751 168.858 2.84184 169.047 2.84184C169.373 2.84184 169.39 2.84184 169.39 2.53283C169.39 2.25815 169.39 2.22382 169.047 2.22382C168.755 2.22382 168.789 2.29249 168.789 2.53283Z" fill="#151210"/>
</svg>
