<svg width="101" height="46" viewBox="0 0 101 46" fill="none" xmlns="http://www.w3.org/2000/svg">
<path d="M34.3253 45.5349C34.2961 45.5166 34.2681 45.4941 34.237 45.4807C34.0581 45.404 33.9291 45.2713 33.8159 45.1174C33.6144 44.8429 33.4063 44.5732 33.2018 44.3012C33.1525 44.2354 33.1019 44.1703 33.0545 44.1034C32.9248 43.9214 32.7946 43.7406 32.6406 43.5775C32.5037 43.432 32.3825 43.2738 32.259 43.1162C32.161 42.9908 32.0703 42.8624 31.9912 42.7248C31.9559 42.6639 31.923 42.6006 31.881 42.5447C31.71 42.3195 31.5657 42.0772 31.4215 41.835C31.2553 41.5574 31.0709 41.2921 30.8701 41.0377C30.7976 40.9458 30.7295 40.849 30.6644 40.7516C30.3759 40.3225 30.0874 39.8934 29.8031 39.4613C29.6771 39.2702 29.5554 39.076 29.4416 38.877C29.3193 38.6622 29.189 38.4528 29.0387 38.2568C28.8774 38.0468 28.7332 37.8259 28.5974 37.5977C28.3126 37.1174 28.0265 36.6384 27.7368 36.1613C27.6425 36.0061 27.5366 35.857 27.4319 35.7078C27.2596 35.4626 27.0807 35.2221 26.9097 34.9757C26.7995 34.8162 26.6979 34.6512 26.595 34.4869C26.3923 34.1631 26.1964 33.8357 25.9882 33.5155C25.7831 33.2003 25.5768 32.8862 25.3966 32.5557C25.3601 32.4888 25.3175 32.4249 25.2737 32.3622C24.97 31.9282 24.69 31.4803 24.435 31.0165C24.3333 30.8314 24.2177 30.6531 24.113 30.4699C23.9852 30.2453 23.861 30.0189 23.7369 29.7919C23.5817 29.5089 23.4289 29.2246 23.2743 28.941C23.2603 28.9155 23.2408 28.8929 23.225 28.868C23.127 28.7146 23.0223 28.5655 22.9335 28.4066C22.7326 28.0482 22.5385 27.6854 22.3431 27.3233C22.2932 27.2301 22.2427 27.1364 22.2025 27.039C22.1276 26.8577 22.0114 26.7037 21.9 26.546C21.8434 26.5412 21.7904 26.5412 21.7399 26.5308C21.631 26.5083 21.5805 26.4322 21.6097 26.3221C21.6559 26.1468 21.6894 25.966 21.7947 25.812C21.8136 25.784 21.8245 25.7506 21.847 25.7043C21.8117 25.7019 21.791 25.6958 21.7728 25.6994C21.6809 25.7177 21.589 25.7378 21.4977 25.7585C21.4155 25.7773 21.3364 25.7712 21.2542 25.7499C21.1118 25.7134 20.9718 25.6763 20.8531 25.5801C20.7612 25.5053 20.7089 25.4091 20.6852 25.2989C20.6748 25.2509 20.6827 25.1906 20.7034 25.1462C20.7375 25.0725 20.7831 25.0025 20.8343 24.9392C20.9755 24.7664 21.1228 24.5978 21.267 24.4274C21.278 24.414 21.2853 24.3982 21.2944 24.3836C21.2597 24.347 21.2256 24.3677 21.2019 24.3896C21.1289 24.4578 21.054 24.5248 20.9919 24.6027C20.917 24.6964 20.8191 24.7603 20.7278 24.8339C20.5598 24.9697 20.2536 24.8619 20.2445 24.6094C20.2415 24.5205 20.2396 24.4341 20.2609 24.347C20.2719 24.3014 20.2792 24.2545 20.2944 24.2107C20.337 24.0859 20.3011 23.9922 20.1879 23.9283C20.0643 23.8589 20.0309 23.753 20.04 23.6161C20.0692 23.1827 20.1337 22.9806 20.3754 22.6112C20.4174 22.5473 20.4581 22.4828 20.4971 22.4171C20.5111 22.3933 20.5166 22.3647 20.5318 22.3221C20.4654 22.3221 20.4143 22.3233 20.3638 22.3221C20.2238 22.3172 20.0771 22.1894 20.0662 22.0488C20.0595 21.9624 20.0625 21.8705 20.0844 21.7871C20.1398 21.5771 20.2129 21.3745 20.3285 21.1858C20.4088 21.0549 20.502 20.9356 20.5914 20.8121C20.7466 20.5978 20.8927 20.3775 21.0424 20.1602C21.2122 19.9137 21.3833 19.6672 21.5531 19.4207C21.606 19.3434 21.6614 19.2674 21.7095 19.187C21.9298 18.8188 22.1617 18.4579 22.4173 18.1128C22.701 17.7299 22.9669 17.3355 23.2067 16.9235C23.3638 16.6539 23.5415 16.3982 23.7277 16.1487C23.9359 15.8706 24.1233 15.5796 24.2931 15.2771C24.4021 15.0824 24.5263 14.8961 24.6419 14.7056C24.7302 14.5602 24.8214 14.4153 24.9018 14.2656C25.0771 13.9388 25.2706 13.6229 25.4855 13.3216C25.7283 12.9808 25.9444 12.6259 26.1276 12.2492C26.2432 12.0118 26.3741 11.7811 26.4952 11.5468C26.5463 11.4476 26.5895 11.3447 26.6401 11.2449C26.7198 11.0879 26.8032 10.9333 26.8853 10.7775C26.9127 10.7258 26.9438 10.6759 26.9657 10.6217C27.0984 10.2948 27.2548 9.98018 27.4343 9.67647C27.5445 9.48962 27.6492 9.29912 27.7508 9.1074C27.7959 9.02219 27.847 8.94733 27.934 8.89985C28.0034 8.86212 28.049 8.80247 28.0843 8.73248C28.1781 8.54319 28.2724 8.35391 28.3698 8.16584C28.4483 8.0149 28.5238 7.86152 28.6126 7.71666C28.8007 7.41052 28.9602 7.08977 29.0989 6.75928C29.186 6.55295 29.2882 6.35575 29.402 6.16282C29.4708 6.04657 29.5311 5.92545 29.5962 5.80737C29.6242 5.75625 29.6534 5.70512 29.6863 5.65643C29.8202 5.45619 29.9553 5.25656 30.0904 5.05753C30.3381 4.69357 30.5858 4.329 30.836 3.96625C30.9127 3.85487 30.9985 3.75018 31.0782 3.64063C31.3868 3.21823 31.6948 2.79584 32.0027 2.37284C32.0581 2.29676 32.105 2.21885 32.1257 2.12269C32.1373 2.06913 32.178 2.01922 32.2127 1.97357C32.2432 1.9334 32.2572 1.89384 32.2523 1.84333C32.2474 1.79098 32.2444 1.73742 32.2456 1.68508C32.2492 1.55361 32.2912 1.44649 32.4215 1.38563C32.5566 1.32294 32.685 1.32294 32.8031 1.41424C32.8773 1.47084 32.9443 1.53779 33.0088 1.60596C33.0849 1.6863 33.1573 1.7709 33.2346 1.84333C33.287 1.83298 33.2937 1.80133 33.2961 1.7642C33.2997 1.70151 33.2675 1.6516 33.2395 1.60048C33.1658 1.46597 33.105 1.32598 33.0849 1.172C33.0812 1.14278 33.0739 1.11296 33.077 1.08496C33.1007 0.894461 33.2492 0.767256 33.4756 0.861595C33.5383 0.887766 33.5925 0.934631 33.6607 0.978453C33.6966 0.898722 33.6868 0.825686 33.6741 0.752041C33.6613 0.677178 33.6424 0.601707 33.6381 0.526237C33.6272 0.334516 33.7514 0.202442 33.9449 0.192095C34.0538 0.186618 34.1537 0.214006 34.2486 0.266957C34.3709 0.336342 34.4963 0.400249 34.6168 0.472677C34.6917 0.517716 34.7593 0.57371 34.8293 0.623618C34.8414 0.616315 34.8548 0.612663 34.8591 0.604142C34.8944 0.535975 34.926 0.461721 35.0137 0.449548C35.1129 0.43555 35.2096 0.433724 35.3016 0.495196C35.3758 0.545713 35.4379 0.599273 35.4817 0.68083C35.5347 0.778212 35.5943 0.876202 35.6704 0.955325C35.7781 1.06731 35.8572 1.19634 35.9382 1.32477C36.0952 1.57309 36.2535 1.82081 36.4044 2.07217C36.5012 2.23285 36.5846 2.40144 36.6783 2.56395C36.8688 2.89444 37.0502 3.2298 37.248 3.55664C37.5973 4.13484 37.9704 4.69844 38.2936 5.29307C38.4391 5.56087 38.618 5.81042 38.7781 6.0703C38.8548 6.19507 38.9272 6.3235 38.9954 6.45314C39.1627 6.77023 39.3356 7.08307 39.5462 7.37461C39.7659 7.67954 39.9844 7.9869 40.184 8.30521C40.4025 8.65275 40.6265 8.99845 40.8006 9.37215C40.8328 9.44093 40.8773 9.50362 40.9174 9.56814C41.0227 9.73794 41.1347 9.90349 41.2333 10.077C41.3903 10.3533 41.562 10.6199 41.7421 10.881C41.772 10.9242 41.8054 10.9662 41.8322 11.0118C42.0355 11.363 42.282 11.6868 42.4956 12.0313C42.7866 12.5005 43.1 12.9558 43.3635 13.4421C43.4421 13.587 43.5273 13.7282 43.6003 13.8755C43.8535 14.3873 44.1499 14.873 44.47 15.3453C44.5851 15.5151 44.6764 15.7001 44.7798 15.8779C44.8389 15.9795 44.8985 16.0805 44.9606 16.1797C45.1761 16.523 45.4031 16.8596 45.607 17.2096C45.7999 17.5394 45.9965 17.8651 46.2241 18.173C46.4585 18.4895 46.6776 18.817 46.9058 19.1377C47.1207 19.4396 47.3392 19.7384 47.5546 20.0391C47.6228 20.1347 47.6867 20.2333 47.7536 20.33C47.9703 20.6447 48.1864 20.9594 48.4043 21.2734C48.4511 21.341 48.5023 21.4055 48.5558 21.4682C48.6818 21.6155 48.8108 21.7597 48.9362 21.907C49.0135 21.9971 49.0312 22.1079 49.0257 22.2211C49.0214 22.3051 48.9612 22.3562 48.9052 22.3933C48.8887 22.5406 48.8741 22.68 48.8571 22.8188C48.8534 22.8474 48.8431 22.876 48.8309 22.9021C48.8041 22.9606 48.7573 22.9916 48.6922 22.9928C48.6088 22.994 48.5303 22.9758 48.4536 22.9399C48.3635 22.8979 48.271 22.8614 48.1529 22.8912C48.1699 22.9216 48.1791 22.9478 48.1961 22.9667C48.2722 23.0482 48.3513 23.1267 48.428 23.2083C48.4925 23.2771 48.498 23.3562 48.4542 23.4359C48.4262 23.487 48.3903 23.5345 48.3525 23.5789C48.2886 23.655 48.2065 23.6952 48.1054 23.6946C48.047 23.694 47.9886 23.6946 47.9247 23.6946C47.8991 23.7268 47.8741 23.7585 47.8498 23.7901C47.8248 23.823 47.8078 23.865 47.7762 23.8881C47.669 23.9648 47.621 24.0762 47.5869 24.1955C47.5473 24.3336 47.4858 24.4584 47.3824 24.5595C47.3446 24.596 47.3367 24.6398 47.3483 24.6885C47.3525 24.7055 47.3556 24.7232 47.3611 24.7396C47.4554 25.0293 47.2874 25.2819 47.0446 25.3872C46.9186 25.442 46.8553 25.526 46.7969 25.6386C46.6429 25.9356 46.4773 26.2271 46.3191 26.5217C46.2247 26.6976 46.1274 26.8723 46.044 27.0536C45.8894 27.3902 45.7178 27.7171 45.5498 28.0463C45.3495 28.4389 45.1657 28.8388 44.9655 29.2313C44.8425 29.4718 44.7032 29.7036 44.5711 29.9392C44.4853 30.0932 44.4001 30.2472 44.3136 30.4005C44.2412 30.5283 44.1682 30.6556 44.0945 30.7828C44.0799 30.8083 44.0623 30.8321 44.0489 30.8582C43.7926 31.3634 43.4475 31.8114 43.1377 32.2824C43.0957 32.3463 43.0562 32.4115 43.0203 32.479C42.708 33.0578 42.3964 33.6373 42.0842 34.2167C42.0787 34.227 42.0732 34.2374 42.0672 34.2471C41.7963 34.6604 41.576 35.1029 41.3228 35.5265C41.2686 35.6172 41.2193 35.7109 41.1676 35.8034C41.0757 35.9671 40.9886 36.1345 40.8907 36.2946C40.7616 36.5052 40.6436 36.7206 40.5419 36.9464C40.4695 37.1065 40.3721 37.2556 40.2954 37.4138C40.167 37.678 40.0434 37.944 39.9229 38.2124C39.786 38.5179 39.6515 38.8241 39.4993 39.1223C39.4354 39.2477 39.3831 39.3785 39.324 39.507C39.2997 39.5605 39.2759 39.6141 39.2479 39.6658C39.0331 40.0639 38.8158 40.4607 38.6016 40.8587C38.5346 40.9829 38.4719 41.1089 38.4129 41.2367C38.265 41.5562 38.0544 41.8277 37.7903 42.059C37.7422 42.101 37.699 42.1503 37.6588 42.2002C37.6174 42.2507 37.5937 42.3061 37.5943 42.3773C37.5943 42.4394 37.5754 42.5051 37.5505 42.5629C37.5042 42.6706 37.4446 42.7723 37.3965 42.8788C37.3301 43.0243 37.2845 43.1752 37.2912 43.3377C37.2942 43.415 37.29 43.4899 37.2486 43.5592C37.2005 43.6402 37.1372 43.6944 37.0386 43.6986C37.0149 43.6998 36.9917 43.6998 36.968 43.7029C36.8804 43.7145 36.814 43.7571 36.7726 43.8356C36.7641 43.8514 36.7592 43.8684 36.7501 43.8837C36.6898 43.9883 36.6004 44.0474 36.478 44.0504C36.402 44.0522 36.3253 44.051 36.2492 44.0504C36.1841 44.0498 36.1189 44.0468 36.0526 44.1028C36.0526 44.1253 36.052 44.1588 36.0526 44.1928C36.0538 44.2397 36.055 44.2866 36.0587 44.3334C36.0715 44.499 35.9948 44.583 35.7921 44.5653C35.7422 44.5611 35.688 44.5379 35.6473 44.5081C35.5292 44.4211 35.4208 44.3225 35.3295 44.205C35.153 43.978 34.9717 43.754 34.7897 43.5312C34.7653 43.5014 34.7264 43.482 34.6911 43.4631C34.6814 43.4576 34.6607 43.4716 34.6454 43.4771C34.6984 43.6256 34.8475 43.9068 34.9321 44.0011C35.0185 44.0979 35.094 44.202 35.161 44.3133C35.2243 44.4186 35.3028 44.5154 35.3679 44.6195C35.4081 44.684 35.4403 44.754 35.4677 44.8246C35.4835 44.8666 35.489 44.9159 35.4878 44.9615C35.4854 45.0486 35.4482 45.0875 35.3612 45.1034C35.3271 45.1094 35.2924 45.1094 35.2583 45.1119C35.2267 45.1764 35.2011 45.2354 35.1695 45.2908C35.1013 45.4119 35.0429 45.4332 34.909 45.404C34.8445 45.39 34.7873 45.3651 34.7307 45.3328C34.6801 45.3036 34.6308 45.3152 34.587 45.3578C34.5249 45.4186 34.4586 45.4758 34.3941 45.5343C34.3728 45.5349 34.349 45.5349 34.3253 45.5349ZM34.0715 6.68989C34.0435 6.71485 34.0325 6.72094 34.0265 6.73067C33.7757 7.12142 33.5249 7.51216 33.2748 7.90291C33.2371 7.96255 33.1993 8.0222 33.1652 8.08367C33.0514 8.28939 32.94 8.49633 32.8256 8.70144C32.7252 8.88099 32.6296 9.06297 32.5542 9.25469C32.4897 9.41902 32.4038 9.573 32.3119 9.72395C32.2085 9.89436 32.1159 10.0715 32.0186 10.2462C31.9814 10.3125 31.9504 10.3843 31.9048 10.444C31.8104 10.5669 31.7538 10.7087 31.6856 10.8444C31.6303 10.9546 31.5791 11.0672 31.5134 11.1707C31.4318 11.2997 31.3418 11.4239 31.2493 11.545C31.0454 11.8128 30.8725 12.0982 30.7216 12.3983C30.5919 12.6557 30.4544 12.9083 30.2949 13.1487C30.2395 13.2315 30.1914 13.3198 30.1415 13.4062C29.9656 13.7117 29.791 14.0179 29.6151 14.3228C29.5828 14.3788 29.5451 14.4311 29.5104 14.4859C29.4635 14.5602 29.416 14.635 29.3704 14.7099C29.2085 14.9753 29.0241 15.2266 28.8811 15.5042C28.8731 15.52 28.8604 15.5328 28.8512 15.5474C28.7928 15.6423 28.7319 15.7361 28.6765 15.8328C28.4276 16.2662 28.1811 16.7001 27.9328 17.1335C27.7575 17.439 27.5688 17.7379 27.4063 18.0501C27.1866 18.4725 26.9316 18.8748 26.7003 19.2905C26.6461 19.3879 26.581 19.4792 26.5214 19.5735C26.4398 19.7025 26.354 19.8291 26.2785 19.9612C26.1677 20.1554 26.0685 20.355 25.9584 20.5491C25.7606 20.8961 25.5628 21.243 25.3911 21.6045C25.3236 21.7469 25.2323 21.8784 25.1544 22.016C25.1026 22.1079 25.0576 22.2028 25.0065 22.2953C24.9584 22.3824 24.9748 22.4584 25.0217 22.5436C25.1227 22.7287 25.2122 22.921 25.3084 23.1085C25.3564 23.2022 25.4027 23.2984 25.4611 23.3854C25.5853 23.5716 25.6961 23.7646 25.7947 23.9654C26.046 24.4767 26.3029 24.9855 26.6273 25.4572C26.707 25.5728 26.774 25.6976 26.8446 25.8199C27.0265 26.1352 27.2018 26.4547 27.3911 26.7658C27.5311 26.9964 27.6796 27.2235 27.8415 27.4395C28.0393 27.7037 28.2176 27.9794 28.3893 28.26C28.5268 28.4858 28.6699 28.7085 28.8104 28.9319C28.979 29.2003 29.1495 29.4681 29.3174 29.7377C29.4045 29.8771 29.4873 30.0195 29.5731 30.1601C29.8123 30.5515 30.0484 30.944 30.2919 31.3324C30.4069 31.5162 30.5353 31.6921 30.6595 31.8704C30.7264 31.9666 30.7995 32.0591 30.8658 32.1558C30.9888 32.3354 31.105 32.5192 31.231 32.6963C31.5925 33.2045 31.8944 33.7505 32.2365 34.2709C32.3138 34.3883 32.3868 34.5088 32.4641 34.6269C32.6412 34.8971 32.8299 35.1607 32.9954 35.4376C33.2334 35.8357 33.4525 36.2453 33.685 36.647C33.797 36.8399 33.9193 37.0268 34.0398 37.2148C34.1415 37.3731 34.2547 37.524 34.3515 37.6853C34.503 37.9385 34.7008 38.1564 34.8664 38.3962C34.9309 38.3706 34.9418 38.3134 34.9656 38.2684C35.1013 38.0146 35.2322 37.7583 35.3685 37.5045C35.6716 36.9403 35.9777 36.3792 36.3137 35.8326C36.5687 35.4181 36.7799 34.9763 37.0003 34.5417C37.1226 34.3007 37.2431 34.0584 37.3922 33.8326C37.6198 33.4888 37.8103 33.1254 37.9905 32.7547C38.0392 32.6549 38.1037 32.563 38.1609 32.4675C38.1968 32.4072 38.2431 32.3506 38.2674 32.2861C38.3374 32.1017 38.4567 31.9477 38.5748 31.7949C38.7014 31.6312 38.8146 31.4614 38.9035 31.2751C38.9491 31.1796 38.9954 31.0846 39.0471 30.9927C39.195 30.7322 39.3478 30.4742 39.4951 30.2137C39.8304 29.6203 40.1518 29.0195 40.4202 28.392C40.4616 28.2947 40.4944 28.1936 40.5395 28.0981C40.6539 27.8534 40.7714 27.6099 40.89 27.3677C41.0842 26.9721 41.2638 26.5698 41.4908 26.1912C41.5419 26.106 41.5882 26.0165 41.6265 25.9246C41.8261 25.4401 42.0878 24.9867 42.3307 24.5242C42.5601 24.0872 42.8219 23.6684 43.0945 23.2564C43.1207 23.2174 43.1463 23.1778 43.1676 23.1359C43.3142 22.848 43.4189 22.5424 43.5413 22.2387C43.3842 21.9874 43.2284 21.7384 43.072 21.4901C43.0531 21.4603 43.0276 21.4353 43.0063 21.4073C42.7178 21.0367 42.4062 20.6824 42.1657 20.2759C42.142 20.2357 42.1116 20.1992 42.0848 20.1602C41.9156 19.9131 41.7555 19.6605 41.6222 19.3903C41.4664 19.0744 41.3228 18.7525 41.1384 18.4506C40.817 17.9235 40.5267 17.38 40.251 16.8279C40.2224 16.7707 40.1834 16.7178 40.1481 16.6636C40.0422 16.5011 39.9321 16.3416 39.831 16.1761C39.733 16.0154 39.6344 15.8566 39.5249 15.7032C39.4226 15.5602 39.3338 15.4068 39.2455 15.2546C39.1013 15.0057 38.9607 14.7543 38.8213 14.5023C38.713 14.307 38.6131 14.1073 38.503 13.9132C38.349 13.643 38.1993 13.3691 38.0282 13.1092C37.8828 12.8889 37.7349 12.6704 37.5943 12.4458C37.1676 11.7629 36.7331 11.0855 36.3015 10.4056C36.2857 10.3807 36.2717 10.3551 36.2577 10.3289C36.1701 10.1695 36.0843 10.0088 35.9948 9.84993C35.9662 9.79942 35.9333 9.7489 35.8944 9.70569C35.7556 9.55292 35.6381 9.38372 35.5286 9.20965C35.119 8.5578 34.7373 7.88952 34.363 7.21636C34.2669 7.04412 34.1707 6.87005 34.0715 6.68989ZM40.293 12.5018L40.3185 12.4762C40.2345 12.3283 40.1493 12.1816 40.0666 12.0331C39.8024 11.5614 39.5395 11.0891 39.2747 10.618C39.128 10.3569 38.9704 10.1013 38.8323 9.83594C38.7099 9.60039 38.5693 9.37763 38.422 9.15792C38.262 8.91872 38.1001 8.68014 37.9887 8.41234C37.9729 8.3746 37.9497 8.33991 37.9284 8.30461C37.761 8.02829 37.5955 7.75075 37.4251 7.47564C37.0197 6.82136 36.6284 6.15856 36.2522 5.48662C36.0313 5.09222 35.7939 4.70635 35.5633 4.31743C35.5468 4.29004 35.5383 4.25048 35.4951 4.24866C35.3764 4.37464 35.2352 4.58219 35.1664 4.73556C35.2023 4.80069 35.2376 4.87494 35.2809 4.94372C35.6034 5.45558 35.8852 5.99179 36.2212 6.49635C36.5407 6.97534 36.8359 7.46956 37.1433 7.95708C37.3125 8.22548 37.4738 8.49815 37.6101 8.78543C37.6527 8.87551 37.7014 8.96315 37.755 9.04714C37.9102 9.28938 38.0635 9.53405 38.2285 9.76959C38.3904 10.0003 38.5632 10.2236 38.7373 10.4446C38.8213 10.5517 38.9047 10.6588 38.9576 10.783C39.024 10.937 39.1244 11.0642 39.2346 11.1877C39.5596 11.5517 39.8791 11.9205 40.1554 12.324C40.1986 12.3867 40.2473 12.4433 40.293 12.5018ZM38.1865 36.5891C38.1743 36.5843 38.1628 36.5794 38.1506 36.5739C38.1159 36.6117 38.0788 36.6476 38.0471 36.6877C37.8225 36.9665 37.5998 37.2471 37.3746 37.5258C37.1488 37.8052 36.9631 38.1113 36.7799 38.4199C36.6661 38.6116 36.5486 38.8015 36.4294 38.9902C36.3417 39.129 36.2468 39.2635 36.1585 39.4017C36.0739 39.5349 35.993 39.6713 35.9114 39.807C35.9059 39.8161 35.9053 39.8289 35.9023 39.8399C35.9881 39.9586 36.0709 40.0791 36.1616 40.1941C36.2151 40.2617 36.2808 40.3201 36.3454 40.387C36.3673 40.3603 36.3849 40.345 36.3959 40.3256C36.4841 40.1667 36.573 40.0079 36.6582 39.8478C36.7215 39.7285 36.783 39.6086 36.842 39.4869C36.9108 39.3444 36.985 39.2032 37.0404 39.0553C37.0922 38.9172 37.15 38.7839 37.2181 38.6536C37.248 38.5964 37.2723 38.5362 37.3003 38.4784C37.4719 38.1247 37.646 37.7717 37.8164 37.4175C37.9363 37.1692 38.0526 36.919 38.1688 36.6689C38.1798 36.6439 38.1804 36.6153 38.1865 36.5891Z" fill="#151210"/>
<path d="M0.668938 37.7383C0.727368 37.664 0.727976 37.5745 0.732237 37.4869C0.746235 37.2166 0.756582 36.9464 0.771798 36.6768C0.782145 36.4948 0.793709 36.3134 0.810751 36.1321C0.853355 35.6701 0.903263 35.2081 0.941607 34.7456C0.965953 34.4467 0.973865 34.1473 0.990298 33.8478C0.998819 33.6957 1.0116 33.5435 1.02073 33.3908C1.0329 33.1796 1.04873 32.9684 1.05299 32.7572C1.05603 32.5977 1.07672 32.4413 1.09985 32.2843C1.11446 32.1857 1.12542 32.0858 1.12907 31.9866C1.1455 31.4991 1.15463 31.011 1.17411 30.5235C1.18445 30.2715 1.21062 30.0195 1.2301 29.7682C1.23193 29.7444 1.23558 29.7213 1.23619 29.6982C1.24836 29.3756 1.2581 29.0524 1.27331 28.7298C1.28244 28.5363 1.29827 28.3427 1.31348 28.1498C1.33113 27.9216 1.35974 27.6933 1.36826 27.4645C1.38043 27.1468 1.42243 26.8321 1.4553 26.5168C1.47599 26.3184 1.48573 26.1182 1.51129 25.9204C1.56242 25.5223 1.55755 25.1231 1.56424 24.7232C1.57215 24.2357 1.59346 23.7481 1.60867 23.26C1.6105 23.1955 1.61293 23.131 1.61354 23.0659C1.61719 22.7835 1.62145 22.5017 1.65006 22.2205C1.67015 22.022 1.67562 21.8218 1.68171 21.6222C1.69814 21.0927 1.75961 20.5674 1.82048 20.0422C1.84178 19.8553 1.85091 19.6672 1.86308 19.4798C1.88925 19.0927 1.91299 18.7056 1.94038 18.3185C1.94586 18.2369 1.96412 18.156 1.97264 18.0738C1.99577 17.8462 2.01707 17.618 2.03898 17.3897C2.07002 17.0623 2.10289 16.7348 2.13088 16.4068C2.16253 16.0325 2.22157 15.6606 2.2307 15.2832C2.23496 15.1134 2.26478 14.9442 2.27756 14.7744C2.294 14.5632 2.30374 14.352 2.31773 14.1408C2.3433 13.7537 2.37069 13.3666 2.39503 12.9795C2.40294 12.8505 2.40477 12.7215 2.40903 12.5924C2.41268 12.475 2.41694 12.3575 2.42059 12.24C2.42668 12.052 2.42972 11.8639 2.43824 11.6765C2.44981 11.4117 2.47476 11.1488 2.53623 10.8901C2.53745 10.8846 2.53867 10.8785 2.53989 10.8731C2.58188 10.7227 2.61536 10.6905 2.77847 10.6466C2.79004 10.5931 2.80586 10.5371 2.81316 10.4799C2.83081 10.346 2.84603 10.2115 2.8582 10.077C2.88377 9.80307 2.98845 9.56814 3.18687 9.37581C3.31529 9.25104 3.45284 9.24373 3.59344 9.35816C3.61169 9.37276 3.62569 9.39224 3.64334 9.40806C3.65978 9.42328 3.67804 9.43606 3.69143 9.44702C3.75229 9.43363 3.75412 9.38615 3.76264 9.34964C3.80098 9.18348 3.83567 9.01671 3.87036 8.84994C3.90019 8.70631 3.92027 8.56023 3.95862 8.41903C4.00609 8.24374 4.06817 8.07211 4.12477 7.89986C4.1972 7.68075 4.34388 7.50912 4.50882 7.35939C4.69263 7.19263 4.916 7.29062 4.98965 7.43852C5.06025 7.58033 5.11624 7.72884 5.17832 7.87491C5.2191 7.97168 5.25988 8.06846 5.30127 8.16705C5.38952 8.10315 5.41813 8.06541 5.48447 7.9516C5.58185 7.78361 5.68106 7.61746 5.77966 7.45069C5.78879 7.43547 5.79792 7.42026 5.80644 7.40504C5.85148 7.32592 5.92086 7.28027 6.01033 7.2961C6.11015 7.31375 6.20388 7.35513 6.23613 7.46651C6.25378 7.52859 6.26413 7.5925 6.27813 7.6558C6.29091 7.7124 6.30247 7.76962 6.36151 7.82074C6.37795 7.78057 6.39194 7.75197 6.40168 7.72153C6.42785 7.6418 6.46498 7.56755 6.53923 7.52312C6.58366 7.49573 6.60497 7.45678 6.61775 7.41174C6.66096 7.25958 6.70661 7.10742 6.74191 6.95343C6.80521 6.67224 6.8679 6.39227 7.01641 6.13908C7.06631 6.05387 7.11987 5.98083 7.21847 5.95649C7.26838 5.94432 7.30003 5.91328 7.33046 5.87676C7.34568 5.8585 7.36515 5.84328 7.37611 5.8232C7.47106 5.65095 7.77963 5.74651 7.82224 5.93093C7.83989 6.00701 7.8691 6.07396 7.90075 6.14334C7.92692 6.20055 7.94397 6.26568 7.94884 6.32897C7.97075 6.59799 7.99448 6.86762 8.00361 7.13724C8.01274 7.40139 8.00483 7.66615 8.00483 7.9309C8.00483 7.99481 8.00666 8.05872 8.00787 8.12628C8.03587 8.12202 8.05291 8.1208 8.06995 8.11593C8.2002 8.08063 8.28967 8.14332 8.34871 8.2474C8.38827 8.31739 8.41444 8.39834 8.42966 8.47807C8.44853 8.57545 8.45522 8.67648 8.45765 8.7763C8.468 9.27173 8.53008 9.75925 8.66094 10.2382C8.69685 10.3679 8.7145 10.503 8.74006 10.6357C8.77901 10.8384 8.83014 11.0362 8.91413 11.2261C9.01212 11.4476 9.06142 11.6844 9.12472 11.9163C9.21967 12.262 9.30366 12.6095 9.37 12.9619C9.40226 13.1347 9.46008 13.3027 9.49416 13.475C9.5672 13.8444 9.68953 14.2005 9.77961 14.565C9.93786 15.2041 10.1204 15.8353 10.3548 16.4512C10.3882 16.5388 10.4108 16.6307 10.4375 16.7208C10.4625 16.8054 10.4808 16.8919 10.5112 16.9746C10.6658 17.3946 10.7674 17.8292 10.877 18.2619C10.9823 18.677 11.0876 19.0927 11.2495 19.4919C11.289 19.5893 11.3158 19.6928 11.3469 19.7932C11.4832 20.2363 11.6183 20.68 11.754 21.1231C11.7674 21.1669 11.7863 21.2095 11.8009 21.2485C11.8545 21.2667 11.8709 21.2296 11.8879 21.2016C11.981 21.0519 12.0803 20.9058 12.1636 20.75C12.3268 20.4445 12.4905 20.1389 12.6171 19.8151C12.6682 19.6849 12.7473 19.5656 12.81 19.4396C12.9117 19.2345 13.0163 19.0306 13.1089 18.8218C13.2464 18.5102 13.3742 18.1949 13.5069 17.8809C13.5684 17.7348 13.6268 17.5869 13.6944 17.4439C13.8404 17.1359 13.95 16.8127 14.093 16.5042C14.3426 15.9655 14.5793 15.4226 14.7917 14.8681C14.8629 14.6825 14.9634 14.5078 15.0595 14.3331C15.1758 14.1213 15.2652 13.898 15.3529 13.6734C15.5434 13.1859 15.7716 12.716 15.9987 12.2449C16.121 11.9911 16.2348 11.7331 16.3565 11.4786C16.4527 11.2772 16.5519 11.0776 16.6542 10.8797C16.729 10.7349 16.8544 10.6345 16.9816 10.5395C17.0918 10.4574 17.2232 10.4537 17.3535 10.4726C17.4235 10.4829 17.46 10.5346 17.4904 10.5967C17.5361 10.6905 17.5915 10.7087 17.6688 10.6466C17.7406 10.5888 17.8057 10.5182 17.8605 10.4434C17.9439 10.3301 18.0169 10.209 18.0924 10.0903C18.1173 10.0508 18.1411 10.01 18.1605 9.9674C18.289 9.69047 18.4156 9.41293 18.5434 9.1354C18.5604 9.09827 18.5768 9.05992 18.5969 9.02401C18.6614 8.90837 18.7527 8.83412 18.8939 8.84325C18.9116 8.84447 18.9292 8.84264 18.9469 8.84142C18.9524 8.84081 18.9578 8.83777 18.9676 8.83412C18.9755 8.82316 18.9901 8.81038 18.9938 8.79456C19.0339 8.62536 19.1313 8.48415 19.2141 8.33565C19.2585 8.25652 19.3267 8.20236 19.4003 8.15184C19.4898 8.09098 19.5762 8.09341 19.662 8.15488C19.7046 8.18531 19.7503 8.21514 19.7856 8.25348C19.8477 8.32104 19.9347 8.318 20.0114 8.34112C20.0345 8.34782 20.0686 8.33017 20.093 8.31556C20.1386 8.28878 20.1794 8.25531 20.2244 8.22731C20.3547 8.14636 20.5251 8.15427 20.6328 8.25713C20.7235 8.34356 20.7917 8.44764 20.7813 8.58275C20.7716 8.7057 20.76 8.82864 20.7509 8.95159C20.7478 8.99054 20.7503 9.0301 20.7503 9.06784C20.7911 9.08366 20.8118 9.05932 20.8324 9.03984C20.9377 8.93759 21.0479 8.83899 21.1453 8.72883C21.2189 8.64605 21.281 8.55171 21.3376 8.45616C21.3954 8.35817 21.4648 8.27235 21.5525 8.20236C21.6894 8.09341 21.8257 8.12628 21.9183 8.27904C21.9742 8.37156 21.987 8.45859 21.9542 8.56328C21.9201 8.66918 21.9055 8.78056 21.8817 8.88951C21.7904 9.29851 21.6389 9.68682 21.4739 10.0703C21.4533 10.1183 21.4307 10.1658 21.4064 10.2188C21.4216 10.2443 21.4326 10.2723 21.4514 10.293C21.603 10.4622 21.5926 10.6625 21.5421 10.8591C21.5135 10.9698 21.4612 11.0769 21.3906 11.1749C21.3224 11.2693 21.2743 11.3782 21.2189 11.4817C21.1702 11.5724 21.1611 11.6722 21.1611 11.7726C21.1611 11.9783 21.1562 12.1841 21.1635 12.3898C21.1721 12.6265 21.1422 12.8572 21.1082 13.0909C21.0753 13.3167 21.0698 13.5474 21.0601 13.7762C21.0443 14.1694 21.0333 14.5632 21.0236 14.957C21.0181 15.1743 21.0242 15.3922 21.015 15.6095C20.9962 16.0623 21.0449 16.5139 21.0394 16.9667C21.0357 17.2607 21.029 17.5547 21.0254 17.848C21.0217 18.1475 21.0175 18.4475 21.0181 18.747C21.0181 18.8584 20.987 18.9533 20.917 19.0397C20.8172 19.1627 20.7192 19.2881 20.6237 19.414C20.5385 19.526 20.452 19.638 20.3754 19.7561C20.1514 20.1018 19.9213 20.442 19.662 20.7628C19.5811 20.8632 19.5093 20.9715 19.4301 21.0738C19.3638 21.1596 19.3218 21.257 19.3011 21.3605C19.2628 21.5504 19.2372 21.7427 19.253 21.9381C19.2597 22.0202 19.2579 22.1024 19.2628 22.1846C19.2719 22.3367 19.2841 22.4889 19.2926 22.641C19.3054 22.8711 19.2896 23.0987 19.25 23.3257C19.2171 23.512 19.2135 23.6988 19.2512 23.8863C19.2731 23.9952 19.2835 24.1072 19.2993 24.2174C19.3261 24.3988 19.3875 24.5704 19.449 24.7414C19.4691 24.7968 19.4971 24.8492 19.5117 24.9058C19.564 25.1109 19.6931 25.2703 19.8142 25.4365C19.8866 25.5357 19.9524 25.6404 20.0132 25.7469C20.1057 25.91 20.1842 26.0823 20.2828 26.2417C20.3595 26.3665 20.4551 26.4791 20.5458 26.5947C20.6584 26.7378 20.7838 26.8723 20.8866 27.0214C20.9657 27.1364 21.0211 27.2679 21.082 27.3945C21.096 27.4243 21.0935 27.4639 21.0923 27.4986C21.0862 27.7098 21.0765 27.9216 21.0722 28.1328C21.068 28.35 21.0631 28.5679 21.0674 28.7852C21.0759 29.2082 21.0875 29.6312 21.0686 30.0548C21.0503 30.4717 21.0558 30.8893 21.0485 31.3062C21.0424 31.6531 21.0296 31.9994 21.0272 32.3463C21.026 32.4985 21.0412 32.6513 21.0491 32.8034C21.0516 32.8448 21.0546 32.8856 21.0564 32.9264C21.0716 33.2611 21.0875 33.5953 21.1002 33.93C21.1045 34.0298 21.0996 34.1297 21.1015 34.2301C21.11 34.6592 21.1215 35.0883 21.1289 35.5167C21.1313 35.6695 21.1246 35.8223 21.1252 35.975C21.1252 36.0785 21.1009 36.1728 21.0406 36.2568C21.0339 36.2666 21.0278 36.2769 21.0211 36.286C20.903 36.4492 20.816 36.6269 20.7515 36.818C20.7296 36.8837 20.6919 36.9452 20.6559 37.0048C20.5713 37.1448 20.3455 37.1813 20.2378 37.0268C20.1916 36.9598 20.1337 36.9008 20.0826 36.8399C20.0668 36.8399 20.0528 36.8356 20.0443 36.8405C19.939 36.905 19.8349 36.902 19.7266 36.846C19.687 36.8253 19.6407 36.8186 19.5884 36.8028C19.5707 36.8643 19.55 36.9129 19.5427 36.9641C19.5251 37.0882 19.4764 37.2014 19.4277 37.3146C19.404 37.3688 19.3784 37.4193 19.3127 37.4382C19.2908 37.4449 19.2719 37.4771 19.2597 37.5015C19.2415 37.538 19.2299 37.5782 19.2159 37.6165C19.1678 37.7468 19.0656 37.8253 18.9505 37.8874C18.8483 37.9421 18.7193 37.9038 18.6566 37.8052C18.6152 37.7401 18.5884 37.6689 18.5823 37.591C18.561 37.3274 18.5367 37.0639 18.519 36.8003C18.5099 36.661 18.505 36.521 18.4801 36.3761C18.4642 36.3907 18.4515 36.3974 18.4502 36.4047C18.4192 36.6196 18.3784 36.8338 18.3784 37.0523C18.3784 37.3347 18.3687 37.6165 18.3729 37.8989C18.3754 38.073 18.3316 38.2245 18.2098 38.3493C18.1362 38.4254 18.1003 38.5106 18.0997 38.6177C18.0997 38.681 18.0814 38.7455 18.0632 38.807C18.0522 38.8454 18.0309 38.8825 18.0065 38.9141C17.9652 38.9671 17.9055 38.9866 17.8495 38.9549C17.7534 38.9001 17.656 38.8496 17.5555 38.8034C17.5002 38.7778 17.4716 38.7267 17.4509 38.6682C17.4034 38.5343 17.376 38.3968 17.3614 38.2562C17.345 38.0986 17.3273 37.9415 17.3078 37.7577C17.2841 37.7997 17.2634 37.8204 17.2598 37.8442C17.2281 38.0529 17.1806 38.2592 17.1715 38.4717C17.1636 38.6536 17.1234 38.832 17.0626 39.0048C17.0175 39.132 16.9676 39.2586 16.9335 39.3889C16.8982 39.5246 16.824 39.636 16.74 39.7407C16.6176 39.8934 16.449 39.8934 16.3212 39.7461C16.2945 39.7151 16.2719 39.6853 16.233 39.6646C16.1253 39.6074 16.0741 39.513 16.0741 39.3907C16.0747 39.1442 16.0778 38.8971 16.0766 38.6506C16.0753 38.4449 16.0741 38.2392 16.0656 38.034C16.0437 37.5344 16.0388 37.0347 16.0668 36.5356C16.0954 36.031 16.1271 35.5265 16.1593 35.0219C16.1672 34.8929 16.1825 34.7645 16.1922 34.6354C16.2129 34.3658 16.2336 34.0962 16.2531 33.8265C16.2567 33.7736 16.2592 33.7206 16.2592 33.6683C16.2598 33.2508 16.2598 32.8333 16.261 32.4163C16.2616 32.3104 16.2689 32.2051 16.2713 32.0992C16.2725 32.0347 16.2725 31.9702 16.2707 31.9057C16.2677 31.7943 16.2598 31.6823 16.2598 31.5709C16.2604 31.0597 16.2634 30.5478 16.2658 30.0366C16.2658 30.0128 16.2646 29.9891 16.2677 29.966C16.3127 29.591 16.2744 29.2143 16.2938 28.8388C16.3048 28.6276 16.3139 28.4164 16.3212 28.2046C16.3255 28.0755 16.331 27.9459 16.3267 27.8169C16.3164 27.5174 16.3005 27.218 16.2853 26.9185C16.2817 26.8479 16.2744 26.7779 16.2652 26.7079C16.2342 26.4681 16.236 26.2271 16.2287 25.9861C16.219 25.6453 16.1959 25.305 16.1806 24.9648C16.1721 24.7713 16.1618 24.5771 16.1624 24.3836C16.166 23.7488 16.1758 23.1133 16.152 22.4791C16.1435 22.2503 16.1161 22.0227 16.0991 21.7938C16.0893 21.6593 16.0833 21.5242 16.0741 21.3891C16.0723 21.3623 16.0632 21.3361 16.0559 21.3026C15.9877 21.3367 15.967 21.3945 15.9384 21.4432C15.7996 21.6818 15.6615 21.921 15.5257 22.1614C15.3985 22.3866 15.2738 22.613 15.1502 22.8401C15.0973 22.938 15.0516 23.0403 15.0023 23.1401C14.7972 23.5564 14.6049 23.9794 14.3827 24.3866C14.1746 24.7688 13.9877 25.1608 13.7863 25.5454C13.4966 26.0975 13.1758 26.6313 12.8484 27.1614C12.7802 27.2715 12.7205 27.3866 12.6524 27.4961C12.5842 27.6057 12.5093 27.711 12.4381 27.8187C12.3961 27.8826 12.3584 27.9489 12.3158 28.0116C12.2598 28.0938 12.2026 28.1754 12.1429 28.2551C12.0778 28.3427 11.9865 28.3939 11.8904 28.4413C11.8021 28.4852 11.7126 28.5065 11.6177 28.4845C11.5301 28.4645 11.4588 28.4888 11.3834 28.5308C11.3122 28.5704 11.2361 28.6093 11.1576 28.6251C11.0048 28.6562 10.8654 28.6166 10.7559 28.4992C10.6834 28.4219 10.6116 28.344 10.5441 28.263C10.4424 28.1407 10.3463 28.0147 10.3116 27.8534C10.3055 27.8254 10.2909 27.798 10.275 27.7737C10.1539 27.5838 10.0778 27.3738 9.99324 27.1675C9.83074 26.7706 9.66702 26.3744 9.50877 25.9764C9.4266 25.7688 9.35478 25.5576 9.2781 25.3482C9.21175 25.1663 9.1448 24.9849 9.07786 24.8029C9.0176 24.6374 8.95004 24.4742 8.89831 24.3057C8.79423 23.9685 8.64207 23.6502 8.51608 23.3215C8.45522 23.1626 8.38888 23.0056 8.32497 22.848C8.26533 22.7013 8.20629 22.554 8.14482 22.4079C8.02857 22.1316 7.91536 21.8553 7.83441 21.5656C7.77355 21.3452 7.68895 21.1316 7.62322 20.9119C7.51549 20.5522 7.41445 20.1901 7.30977 19.8291C7.29516 19.7786 7.28177 19.7269 7.2629 19.6782C7.17587 19.4536 7.09005 19.229 7.03527 18.9935C7.02858 18.9661 7.01214 18.9411 6.99936 18.915C6.99815 18.9119 6.99023 18.9125 6.98293 18.9107C6.93911 18.9442 6.95189 18.9953 6.94945 19.0391C6.93789 19.2741 6.93424 19.509 6.92024 19.7439C6.90137 20.0616 6.92085 20.3781 6.9318 20.6952C6.95311 21.3002 6.98354 21.9058 6.94641 22.5108C6.93728 22.6575 6.92085 22.8035 6.90928 22.9502C6.87885 23.3251 6.8466 23.7001 6.81982 24.075C6.80825 24.2332 6.80643 24.3921 6.80399 24.5509C6.80217 24.7037 6.80217 24.8571 6.80764 25.0092C6.81738 25.2868 6.7833 25.5601 6.7486 25.8345C6.68957 26.3008 6.61653 26.7658 6.62444 27.2387C6.62566 27.3263 6.61531 27.4146 6.60801 27.5028C6.59279 27.7018 6.57758 27.9009 6.55932 28.0999C6.5508 28.1936 6.53132 28.2855 6.5228 28.3793C6.49785 28.672 6.47594 28.9648 6.45281 29.2581C6.44611 29.3403 6.43759 29.4218 6.4309 29.504C6.42359 29.5917 6.41142 29.6799 6.41264 29.7676C6.41629 30.1035 6.39255 30.4371 6.35177 30.77C6.3463 30.8168 6.34508 30.8637 6.34386 30.9106C6.33412 31.2222 6.32682 31.5332 6.31404 31.8448C6.30856 31.9854 6.29091 32.1254 6.28056 32.266C6.26291 32.5003 6.23735 32.7347 6.23187 32.9696C6.21848 33.5338 6.21848 34.098 6.2057 34.6622C6.19414 35.1674 6.18136 35.6725 6.10771 36.1741C6.09919 36.2319 6.09919 36.2915 6.0998 36.35C6.10162 36.5106 6.05293 36.6506 5.93364 36.7614C5.87886 36.8125 5.85634 36.8776 5.83809 36.9464C5.80887 37.0578 5.74436 37.1454 5.66523 37.2282C5.58124 37.3165 5.44978 37.3585 5.30309 37.2386C5.25379 37.1984 5.21362 37.1467 5.16189 37.0925C5.13937 37.1126 5.11624 37.1278 5.0992 37.1485C5.01704 37.2446 4.91296 37.311 4.79732 37.356C4.64394 37.4151 4.52708 37.5076 4.43396 37.647C4.3591 37.7583 4.24711 37.8423 4.12477 37.9032C4.07365 37.9287 4.01339 37.9415 3.95618 37.9452C3.80281 37.9543 3.6969 37.8697 3.66951 37.7188C3.64882 37.6031 3.63482 37.4869 3.62022 37.3706C3.60926 37.2836 3.5977 37.1972 3.5417 37.1114C3.52162 37.1418 3.50275 37.1637 3.49118 37.1886C3.46623 37.2416 3.44249 37.2958 3.42363 37.3512C3.37798 37.4826 3.29764 37.5757 3.14913 37.6031C3.13452 37.6543 3.11261 37.7036 3.10714 37.7547C3.09618 37.8569 3.05479 37.947 3.00732 38.0353C2.92515 38.1899 2.73769 38.1996 2.6397 38.0523C2.6111 38.0097 2.59284 37.9574 2.57884 37.9074C2.56606 37.8624 2.55328 37.821 2.51798 37.7863C2.42972 37.8521 2.4212 37.9507 2.39686 38.0395C2.35912 38.1752 2.32747 38.3122 2.29339 38.4491C2.28913 38.4662 2.28669 38.4838 2.28122 38.5003C2.224 38.6658 2.10228 38.7121 1.9489 38.6214C1.85091 38.5636 1.77726 38.4832 1.72979 38.3761C1.63667 38.1655 1.58676 37.9434 1.54963 37.7182C1.50216 37.706 1.4979 37.7413 1.49242 37.765C1.46321 37.891 1.4346 38.017 1.41087 38.1442C1.37861 38.3189 1.32931 38.4863 1.2441 38.6427C1.19906 38.7248 1.16498 38.8131 1.12724 38.8989C1.08281 39.0012 1.03229 39.0419 0.948911 39.0383C0.847269 39.0334 0.756582 38.9586 0.73954 38.8563C0.727976 38.7869 0.725542 38.7157 0.723716 38.6457C0.720673 38.5343 0.724324 38.4224 0.721281 38.3104C0.718238 38.2045 0.711543 38.0992 0.701196 37.9939C0.697544 37.9543 0.678068 37.916 0.666504 37.8776C0.668938 37.832 0.668938 37.7851 0.668938 37.7383ZM18.3249 29.994C18.2926 30.2033 18.2555 30.3817 18.2384 30.5618C18.2025 30.9355 18.1764 31.3104 18.1478 31.6848C18.1271 31.9605 18.1216 32.2362 18.1441 32.5119C18.1861 33.0207 18.2305 33.5295 18.2762 34.0377C18.2859 34.143 18.3023 34.2471 18.32 34.3512C18.3297 34.4102 18.3608 34.4236 18.4241 34.4041C18.4405 34.3993 18.4545 34.3877 18.4837 34.3707C18.4947 34.2995 18.5105 34.2191 18.5178 34.1382C18.5403 33.8984 18.5616 33.6586 18.5787 33.4188C18.5957 33.179 18.6334 32.941 18.6225 32.6987C18.5927 32.042 18.5945 31.3841 18.5476 30.728C18.5306 30.4918 18.4582 30.2679 18.3973 30.042C18.3949 30.0274 18.3656 30.0195 18.3249 29.994Z" fill="#151210"/>
<path d="M67.765 21.3239C67.7893 21.3264 67.8076 21.3312 67.824 21.3288C67.9993 21.299 68.101 21.3994 68.1789 21.5333C68.3182 21.7737 68.3012 22.0068 68.1253 22.2223C68.0437 22.3221 67.9506 22.4116 67.8484 22.4925C67.7248 22.5905 67.6092 22.7001 67.4972 22.8121C67.426 22.8833 67.3779 22.9709 67.3888 23.0811C67.3968 23.1553 67.3639 23.2192 67.3195 23.2758C67.16 23.4803 66.9859 23.6696 66.7644 23.8102C66.7394 23.826 66.7175 23.8455 66.6944 23.8638C66.5763 23.9606 66.4637 24.064 66.3402 24.1535C66.0346 24.375 65.765 24.6386 65.4771 24.8796C65.1485 25.1553 64.818 25.4292 64.4905 25.7061C64.3919 25.7895 64.2976 25.8784 64.2045 25.9678C63.9793 26.1833 63.7553 26.4 63.5331 26.6179C63.4029 26.7457 63.2769 26.8765 63.1491 27.0068C63.0998 27.0573 63.056 27.1139 63.0018 27.1583C62.6695 27.4316 62.3938 27.7627 62.0901 28.0646C61.9525 28.2015 61.807 28.3281 61.6476 28.4401C61.4942 28.5478 61.3548 28.675 61.2112 28.7968C61.1035 28.8881 60.9982 28.9812 60.8935 29.0761C60.6981 29.2539 60.504 29.434 60.3098 29.613C60.2106 29.7043 60.1114 29.7968 60.0122 29.8881C59.8436 30.0433 59.6744 30.1979 59.5064 30.3537C59.3689 30.4815 59.221 30.5971 59.1077 30.7505C59.0597 30.815 58.986 30.8607 58.9264 30.9173C58.8028 31.0341 58.6774 31.1504 58.5575 31.2709C58.3713 31.4583 58.1881 31.6488 58.0049 31.84C57.899 31.9501 57.7858 32.0548 57.6939 32.1759C57.3658 32.6093 56.9787 32.9866 56.5868 33.3597C56.3397 33.5947 56.092 33.829 55.8418 34.0609C55.6604 34.2282 55.4748 34.3908 55.2904 34.5551C54.759 35.0274 54.2417 35.5167 53.6489 35.9148C53.4687 36.0359 53.3081 36.1808 53.1608 36.3433C52.9234 36.6038 52.6775 36.8576 52.4225 37.101C52.0263 37.4784 51.6465 37.8715 51.2795 38.2763C51.0141 38.569 50.7147 38.8253 50.4225 39.0894C50.2929 39.2063 50.1419 39.3024 49.9934 39.3968C49.8011 39.5197 49.6002 39.6299 49.4055 39.7498C49.2205 39.8636 49.033 39.9744 48.8571 40.101C48.7147 40.2032 48.585 40.325 48.4548 40.443C48.3233 40.5623 48.1742 40.6561 48.0227 40.7455C47.9734 40.7747 47.9149 40.7936 47.8583 40.8033C47.7524 40.821 47.6556 40.8599 47.5625 40.9111C47.5266 40.9305 47.4889 40.9464 47.4511 40.9628C47.3878 40.9902 47.3239 40.9872 47.2625 40.9598C47.114 40.894 47.0068 40.793 46.9941 40.6195C46.9843 40.4905 46.9788 40.3615 46.9673 40.2324C46.9618 40.1685 46.9515 40.1046 46.9375 40.0419C46.9216 39.9719 46.8754 39.9251 46.8005 39.9287C46.652 39.9354 46.5875 39.8405 46.554 39.7218C46.5212 39.6062 46.5205 39.4875 46.6246 39.3974C46.7269 39.3085 46.8285 39.2203 46.9429 39.1205C46.9344 38.9975 46.9271 38.8642 46.9149 38.7309C46.9119 38.6993 46.8815 38.681 46.8498 38.6847C46.8157 38.6889 46.781 38.6993 46.7494 38.7133C46.638 38.7632 46.5205 38.7644 46.4031 38.7541C46.2229 38.7382 46.1298 38.6232 46.1481 38.4431C46.1645 38.2781 46.2187 38.1339 46.3757 38.0493C46.4171 38.0267 46.4566 38.0018 46.4956 37.975C46.5297 37.9519 46.5631 37.9275 46.593 37.8995C46.6179 37.8764 46.6368 37.8466 46.6605 37.8168C46.5924 37.7364 46.5266 37.6628 46.4652 37.5861C46.3002 37.3804 46.3337 37.146 46.5528 36.9945C46.6082 36.9562 46.6502 36.9142 46.6721 36.849C46.6843 36.8119 46.7086 36.7772 46.733 36.745C46.7756 36.689 46.8218 36.636 46.8662 36.5825C46.8589 36.3445 46.8504 36.1101 46.8449 35.8752C46.834 35.4406 46.8194 35.0055 46.8163 34.5709C46.8127 33.9598 46.8133 33.3482 46.8218 32.7365C46.8291 32.2124 46.7829 31.6908 46.7683 31.168C46.761 30.9094 46.7543 30.6513 46.7476 30.3926C46.7463 30.3512 46.7482 30.3098 46.7439 30.2691C46.705 29.8534 46.7141 29.4352 46.6806 29.0195C46.6605 28.7736 46.7117 28.5405 46.7713 28.3068C46.8048 28.176 46.8437 28.0463 46.8906 27.9197C46.9228 27.8321 46.9691 27.7487 47.0166 27.6684C47.1067 27.5168 47.2004 27.3677 47.2594 27.2003C47.2673 27.1784 47.2783 27.1571 47.2892 27.1364C47.456 26.8132 47.6276 26.4925 47.7877 26.1656C47.8778 25.9818 47.9527 25.7895 48.0245 25.5972C48.0926 25.4152 48.1602 25.2344 48.2673 25.0707C48.2929 25.0318 48.3142 24.9891 48.3343 24.9465C48.3805 24.8492 48.4475 24.77 48.5339 24.7043C48.5942 24.6581 48.6453 24.6002 48.7013 24.5485C48.7743 24.4809 48.8449 24.4097 48.9228 24.3476C49.0306 24.2612 49.1115 24.1535 49.1803 24.0378C49.2971 23.8413 49.4128 23.6428 49.5193 23.4402C49.6313 23.2278 49.7542 23.0196 49.84 22.7944C49.8693 22.7177 49.8991 22.641 49.9253 22.5631C49.991 22.3671 49.9812 22.1724 49.9283 21.974C49.8936 21.8437 49.8668 21.7129 49.8102 21.5887C49.7591 21.4755 49.7025 21.3672 49.6301 21.2667C49.5236 21.1188 49.4146 20.9728 49.3105 20.8236C49.2466 20.7323 49.1785 20.6417 49.131 20.5412C48.9715 20.2053 48.7621 19.8997 48.5601 19.5905C48.3391 19.2509 48.1103 18.9162 47.8711 18.5893C47.7634 18.442 47.6703 18.2868 47.5692 18.1353C47.5011 18.033 47.4262 17.9351 47.3538 17.8352C47.2917 17.75 47.2253 17.6673 47.1675 17.5796C47.1462 17.5474 47.1371 17.5035 47.1304 17.464C47.0927 17.2315 47.0641 16.9978 47.0823 16.7622C47.1036 16.4865 47.1091 16.2114 47.0963 15.9345C47.0823 15.6417 47.0957 15.3471 47.0981 15.0532C47.1006 14.7592 47.0975 14.4664 47.1322 14.1731C47.1553 13.9759 47.1395 13.7738 47.1395 13.5742C47.1401 13.0861 47.1413 12.5985 47.1401 12.1104C47.1395 11.7458 47.1328 11.3819 47.134 11.0173C47.1347 10.9327 47.1085 10.8718 47.0428 10.8207C46.9082 10.7166 46.7816 10.601 46.6417 10.5048C46.3799 10.3253 46.3872 10.0173 46.5114 9.78177C46.5437 9.72029 46.5997 9.69047 46.6636 9.67099C46.8023 9.629 46.9429 9.63874 47.0823 9.66369C47.1401 9.67404 47.1949 9.69473 47.2533 9.67586C47.2862 9.63995 47.2692 9.6077 47.2442 9.58213C47.159 9.49327 47.0701 9.40685 46.9849 9.31798C46.8839 9.21208 46.7816 9.10618 46.6861 8.9948C46.6058 8.90168 46.5388 8.79699 46.4414 8.71848C46.4104 8.69352 46.3824 8.65944 46.3647 8.62353C46.3063 8.50241 46.2515 8.37886 46.1992 8.2547C46.1834 8.21757 46.1712 8.17497 46.1712 8.13541C46.17 7.83474 46.229 7.7471 46.5108 7.74405C46.6563 7.74223 46.8023 7.75866 46.9624 7.76779C46.9685 7.75379 46.9849 7.73005 46.9904 7.70388C47.0062 7.63267 47.0367 7.56937 47.0896 7.52068C47.1487 7.46651 47.1541 7.402 47.1499 7.32835C47.1438 7.22306 47.145 7.11716 47.1444 7.01125C47.1444 6.97595 47.1462 6.94065 47.1511 6.90596C47.1706 6.76537 47.2399 6.70207 47.383 6.69294C47.5151 6.68442 47.6423 6.71181 47.7561 6.77571C48.0427 6.93578 48.3325 7.09281 48.5692 7.32835C48.6605 7.41904 48.7634 7.49938 48.865 7.57911C49.257 7.88891 49.669 8.17071 50.0859 8.44642C50.1103 8.46285 50.1352 8.47868 50.1614 8.49207C50.484 8.6497 50.778 8.85603 51.0871 9.0368C51.1024 9.04593 51.1188 9.05323 51.1322 9.06418C51.4992 9.34842 51.9033 9.58031 52.2575 9.8828C52.5077 10.0964 52.7651 10.3009 53.0098 10.5219C53.1924 10.6868 53.3939 10.8323 53.5947 10.9753C53.753 11.0879 53.9076 11.2041 54.0475 11.3387C54.179 11.4659 54.3251 11.5736 54.4803 11.671C54.8485 11.9023 55.2155 12.1354 55.5789 12.3739C55.7304 12.4738 55.871 12.5906 56.0177 12.699C56.0646 12.7337 56.112 12.7683 56.1613 12.8C56.28 12.8761 56.4036 12.9442 56.518 13.0258C56.9014 13.2985 57.2922 13.559 57.6933 13.8042C57.8582 13.9047 58.0104 14.027 58.165 14.1433C58.2727 14.2248 58.3749 14.3137 58.4802 14.3983C58.5764 14.4762 58.6756 14.545 58.7925 14.5936C58.8886 14.6332 58.9726 14.7026 59.0615 14.7598C59.1996 14.8493 59.3415 14.9333 59.4735 15.0306C59.6738 15.1792 59.8996 15.2765 60.1205 15.3855C60.2203 15.4348 60.3153 15.4938 60.4114 15.5504C60.72 15.7324 61.028 15.9144 61.336 16.0976C61.3865 16.1274 61.4333 16.1633 61.4802 16.1986C61.5788 16.2729 61.6774 16.3471 61.773 16.425C61.9933 16.6028 62.2459 16.7318 62.4796 16.8888C62.552 16.9375 62.6336 16.974 62.7139 17.0099C62.8223 17.058 62.9202 17.1201 63.0146 17.1919C63.1923 17.327 63.3706 17.4615 63.5544 17.5881C63.6506 17.6545 63.7559 17.7086 63.8624 17.7579C63.9854 17.8152 64.1028 17.8809 64.213 17.9594C64.3085 18.0276 64.4071 18.0915 64.5045 18.1572C64.5386 18.1803 64.5751 18.201 64.6056 18.2278C64.8612 18.453 65.1448 18.6429 65.4108 18.8547C65.6865 19.0744 65.9665 19.2893 66.2537 19.4932C66.3663 19.5729 66.5057 19.6155 66.6329 19.6758C66.7334 19.7232 66.835 19.7677 66.9342 19.8188C67.0231 19.8644 67.1083 19.9156 67.1947 19.9655C67.2836 20.0166 67.3529 20.0848 67.3858 20.1864C67.4022 20.2363 67.4333 20.282 67.4467 20.3325C67.4741 20.4353 67.5507 20.4846 67.6384 20.5224C67.7997 20.5924 67.8301 20.6435 67.8173 20.8182C67.8106 20.9143 67.7808 21.0038 67.7364 21.086C67.6901 21.1718 67.6986 21.243 67.765 21.3239ZM51.3653 32.2563C51.4998 32.1491 51.6075 32.0591 51.7189 31.9745C52.0908 31.6927 52.4243 31.3713 52.7262 31.0159C52.8753 30.8406 53.0463 30.6878 53.2338 30.5545C53.406 30.4322 53.5771 30.3074 53.7524 30.1881C53.9039 30.0847 54.0415 29.9666 54.1638 29.8302C54.3488 29.6239 54.56 29.4468 54.7785 29.2764C55.0981 29.0268 55.4127 28.7712 55.7286 28.5168C55.8339 28.4322 55.938 28.3458 56.0402 28.2569C56.1066 28.1991 56.1723 28.1407 56.2307 28.0749C56.3944 27.8899 56.5636 27.711 56.7499 27.5472C56.944 27.3762 57.1364 27.2034 57.3184 27.0202C57.4888 26.8491 57.6647 26.6854 57.846 26.5266C58.1552 26.2551 58.4589 25.9776 58.7681 25.7061C59.1698 25.3531 59.5813 25.0111 59.9757 24.6501C60.2763 24.375 60.5959 24.1279 60.9318 23.9003C61.0146 23.8443 61.0986 23.7895 61.1789 23.7311C61.2404 23.6861 61.3013 23.6392 61.3567 23.5869C61.8344 23.134 62.3189 22.6885 62.8429 22.2874C62.8685 22.2679 62.888 22.2393 62.9142 22.2107C62.7912 22.1097 62.6774 22.0178 62.5654 21.9241C62.2501 21.6593 61.9215 21.4122 61.5679 21.1998C61.462 21.1365 61.3573 21.0701 61.2593 20.9959C60.8448 20.6849 60.3944 20.4305 59.9592 20.1517C59.7267 20.0032 59.4924 19.8571 59.266 19.6989C58.9477 19.4767 58.6251 19.2631 58.2843 19.0756C58.1917 19.0245 58.0992 18.9722 58.0122 18.9131C57.6038 18.6368 57.1978 18.3562 56.7669 18.114C56.6336 18.0391 56.5034 17.9594 56.3731 17.8809C56.2125 17.7835 56.0506 17.6886 55.8929 17.5857C55.6714 17.4408 55.4553 17.2887 55.235 17.1426C55.1516 17.0878 55.0646 17.0385 54.9751 16.9947C54.8114 16.9138 54.6574 16.8176 54.5083 16.7129C54.3348 16.5918 54.1595 16.4737 53.983 16.3575C53.7621 16.212 53.5381 16.072 53.3178 15.9253C53.0689 15.7592 52.8187 15.593 52.5759 15.4177C52.3568 15.2595 52.1468 15.0891 51.9319 14.9247C51.9106 14.9089 51.8851 14.8992 51.8504 14.8803C51.8224 14.9673 51.8224 15.0434 51.8242 15.1177C51.8327 15.4597 51.809 15.7987 51.7579 16.1365C51.7293 16.3234 51.7238 16.5108 51.739 16.6989C51.7451 16.775 51.7451 16.8517 51.7402 16.9278C51.7165 17.3088 51.6909 17.6898 51.6647 18.0714C51.6501 18.282 51.6306 18.4926 51.6185 18.7038C51.6063 18.9204 51.6027 19.1383 51.5935 19.355C51.5807 19.6605 51.5503 19.9661 51.557 20.2704C51.5619 20.4998 51.554 20.7281 51.5473 20.9569C51.5369 21.2978 51.5375 21.6386 51.5126 21.9788C51.4864 22.3367 51.4986 22.6952 51.4974 23.0543C51.4955 23.5479 51.4797 24.0415 51.4688 24.5351C51.4681 24.5759 51.4645 24.6173 51.4584 24.6581C51.4006 25.0427 51.3872 25.4304 51.3805 25.8181C51.3714 26.347 51.3689 26.8759 51.3665 27.4048C51.3659 27.599 51.3708 27.7925 51.3769 27.9867C51.3817 28.1449 51.4 28.3038 51.3975 28.462C51.3902 28.8497 51.3981 29.2374 51.4012 29.6251C51.4042 30.0828 51.3732 30.5411 51.3568 30.9988C51.3555 31.028 51.3507 31.0572 51.3476 31.0865C51.3318 31.2551 51.302 31.4218 51.3288 31.5941C51.3446 31.6975 51.333 31.8053 51.3349 31.9112C51.3361 31.9879 51.3373 32.0639 51.3415 32.14C51.3415 32.1704 51.3519 32.1978 51.3653 32.2563ZM65.3323 20.4177C65.297 20.3915 65.2714 20.3684 65.2422 20.3513C64.6427 19.9965 64.0426 19.6429 63.4425 19.2887C63.4272 19.2795 63.4108 19.2734 63.3938 19.2686C63.3591 19.2582 63.3384 19.2728 63.3286 19.31C63.8003 19.8669 64.3152 20.383 64.8661 20.8644C65.0553 20.7427 65.1972 20.5911 65.3323 20.4177Z" fill="#151210"/>
<path d="M69.6031 8.94368C69.6877 8.79334 69.7564 8.66553 69.8307 8.54076C69.8818 8.45555 69.9384 8.37277 69.9981 8.29304C70.0644 8.20357 70.1344 8.11593 70.2087 8.03315C70.2592 7.97655 70.317 7.92543 70.3773 7.87978C70.4302 7.83961 70.471 7.79396 70.5032 7.73614C70.5714 7.61259 70.6438 7.49208 70.7163 7.37096C70.7863 7.25349 70.8703 7.22428 70.9981 7.28027C71.0675 7.3107 71.1332 7.35148 71.1959 7.3947C71.2786 7.4513 71.3139 7.53772 71.3298 7.63389C71.3499 7.75562 71.3699 7.87734 71.3882 7.99907C71.3943 8.03985 71.3992 8.08063 71.3998 8.12202C71.4028 8.35695 71.4034 8.59249 71.4071 8.82743C71.4089 8.92115 71.4241 9.01488 71.4211 9.10801C71.4174 9.21269 71.401 9.31738 71.3876 9.42206C71.3742 9.52675 71.348 9.63083 71.3438 9.73612C71.331 10.0191 71.2805 10.2961 71.2421 10.5754C71.2348 10.6272 71.236 10.6801 71.2391 10.7325C71.2452 10.8438 71.2604 10.9546 71.2616 11.066C71.2659 11.4013 71.2628 11.7361 71.2665 12.0715C71.2689 12.3125 71.2786 12.5529 71.2817 12.7939C71.2829 12.9053 71.2835 13.0173 71.2738 13.1287C71.2452 13.4525 71.2555 13.7744 71.3139 14.0946C71.3243 14.1518 71.3279 14.2114 71.3292 14.2698C71.3322 14.4226 71.3328 14.5754 71.3334 14.7282C71.3334 14.7811 71.334 14.8347 71.3279 14.8864C71.278 15.2838 71.2805 15.6837 71.2707 16.083C71.2665 16.2534 71.2506 16.4232 71.2403 16.593C71.2354 16.6752 71.2257 16.7573 71.2257 16.8395C71.2257 17.128 71.202 17.4147 71.1697 17.7013C71.1612 17.7768 71.163 17.8541 71.1697 17.9302C71.1959 18.2418 71.1928 18.5522 71.1685 18.8638C71.1405 19.2211 71.1216 19.5796 71.107 19.9375C71.1021 20.0537 71.1101 20.1742 71.1368 20.2874C71.1953 20.5309 71.1947 20.7774 71.2013 21.0239C71.2117 21.4061 71.1855 21.7877 71.1435 22.1675C71.1259 22.3264 71.1326 22.484 71.1387 22.6429C71.1435 22.7719 71.1454 22.9015 71.135 23.0299C71.0954 23.5169 71.0705 24.0032 71.1064 24.4919C71.1198 24.6787 71.1119 24.868 71.1101 25.0561C71.107 25.3263 71.0954 25.5966 71.0961 25.8668C71.0967 26.1906 71.0741 26.5126 71.0328 26.8339C71.0188 26.9441 71.0157 27.0567 71.0169 27.1681C71.02 27.4267 71.0072 27.6842 70.9902 27.9429C70.9688 28.2648 70.9701 28.5892 70.9737 28.9124C70.9786 29.3129 70.9482 29.7103 70.922 30.1096C70.8989 30.4663 70.9208 30.826 70.925 31.1845C70.9268 31.308 70.9354 31.431 70.9415 31.5545C70.9585 31.9069 70.9749 32.2593 70.9932 32.6111C70.9956 32.6622 71.0066 32.7134 71.0145 32.7663C71.0431 32.7627 71.062 32.7651 71.0766 32.7578C71.2933 32.6531 71.5154 32.5618 71.7211 32.434C71.8769 32.3372 72.0534 32.2861 72.2366 32.2721C72.3815 32.2611 72.5117 32.2173 72.6323 32.1394C72.7558 32.0597 72.8788 31.9799 73.0053 31.9051C73.1569 31.8156 73.3133 31.7341 73.4655 31.6452C73.6584 31.5326 73.8489 31.4163 74.04 31.3019C74.0552 31.2928 74.0698 31.2831 74.0851 31.2745C74.421 31.0901 74.7339 30.8734 75.0303 30.6306C75.1344 30.5454 75.2506 30.4736 75.3669 30.4066C75.6833 30.224 75.9749 30.0049 76.267 29.7876C76.7198 29.4511 77.1769 29.12 77.5939 28.7377C77.7363 28.6069 77.8976 28.4973 78.0534 28.3756C78.0558 28.3464 78.0619 28.3172 78.0589 28.2892C78.0266 27.9782 78.0327 27.6671 78.0582 27.3561C78.0631 27.2922 78.0643 27.2265 78.0589 27.1626C78.0102 26.6173 78.0029 26.0713 78.0223 25.5241C78.0351 25.1657 78.0363 24.8072 78.0327 24.4481C78.0278 23.977 78.0674 23.5083 78.0911 23.0385C78.0936 22.9916 78.0966 22.9447 78.0984 22.8979C78.1173 22.4104 78.1428 21.9228 78.152 21.4353C78.1605 20.9947 78.1495 20.5534 78.1508 20.1128C78.1514 19.9423 78.1599 19.7725 78.166 19.6021C78.1733 19.408 78.1879 19.2144 78.1885 19.0209C78.1891 18.6027 78.2165 18.187 78.2743 17.7732C78.2974 17.6046 78.3139 17.4335 78.3127 17.2637C78.3102 16.8986 78.3486 16.5364 78.3729 16.1724C78.3887 15.932 78.3851 15.6904 78.3881 15.4494C78.3936 14.9911 78.3997 14.5322 78.4003 14.0739C78.4009 13.9035 78.3857 13.7336 78.3802 13.5632C78.3753 13.4165 78.3699 13.2693 78.3705 13.1226C78.3711 12.9284 78.379 12.7349 78.3808 12.5407C78.3833 12.3173 78.3826 12.0946 78.421 11.8724C78.4411 11.7574 78.4453 11.6387 78.4478 11.5212C78.4514 11.3533 78.5062 11.2115 78.6377 11.1037C78.6809 11.0684 78.704 11.0246 78.7131 10.9692C78.7259 10.8937 78.7454 10.8201 78.7618 10.7452C78.7868 10.6326 78.8458 10.5377 78.9219 10.4549C79.0771 10.2857 79.351 10.3466 79.4149 10.5669C79.4502 10.6899 79.4849 10.8152 79.48 10.9473C79.4776 11.0112 79.4843 11.0769 79.4958 11.1402C79.5141 11.2437 79.5397 11.346 79.5634 11.4561C79.676 11.4354 79.732 11.366 79.771 11.279C79.7831 11.2528 79.7892 11.223 79.7929 11.1938C79.8093 11.0715 79.8318 10.9491 79.8355 10.8268C79.8397 10.6953 79.8677 10.5712 79.9012 10.4464C79.9395 10.304 79.9639 10.1603 79.9529 10.0118C79.945 9.90897 79.9742 9.81342 80.0174 9.72273C80.088 9.57422 80.1593 9.42632 80.2335 9.27964C80.2572 9.23278 80.2932 9.19261 80.3187 9.14696C80.3735 9.04897 80.4611 9.01854 80.5664 9.00515C80.6492 8.9948 80.704 9.02036 80.7454 9.08549C80.7642 9.1147 80.7813 9.14696 80.7922 9.17982C80.8488 9.34598 80.9389 9.50058 80.956 9.67952C80.9578 9.69595 80.9663 9.71177 80.9767 9.74464C81.0278 9.67221 81.0375 9.60222 81.0375 9.52979C81.0369 9.41232 81.0418 9.29425 81.032 9.17739C81.0138 8.95706 81.1124 8.80369 81.2956 8.69961C81.3759 8.65396 81.4137 8.59249 81.4234 8.50424C81.4502 8.26809 81.5165 8.04533 81.6437 7.84143C81.7198 7.71971 81.8208 7.62172 81.9206 7.52312C81.9888 7.45556 82.0832 7.45495 82.169 7.48903C82.2025 7.50242 82.2365 7.54138 82.2493 7.57607C82.2755 7.64728 82.2901 7.72275 82.3035 7.79761C82.3126 7.84935 82.3132 7.90291 82.315 7.95586C82.3181 8.05872 82.3497 8.14028 82.4605 8.16949C82.5135 8.18349 82.5335 8.23035 82.5421 8.276C82.5695 8.42633 82.592 8.57728 82.6157 8.72761C82.6455 8.91507 82.6181 9.10314 82.6157 9.2906C82.6139 9.45493 82.6066 9.61987 82.6115 9.7842C82.6169 9.97349 82.5895 10.1585 82.5676 10.3454C82.5445 10.5432 82.5305 10.7434 82.5281 10.9424C82.5256 11.1378 82.5055 11.3295 82.469 11.52C82.4069 11.8438 82.3723 12.1701 82.3631 12.4999C82.3479 13.0641 82.3144 13.6277 82.2615 14.1895C82.2414 14.4001 82.2067 14.6089 82.1793 14.8188C82.1726 14.8712 82.1647 14.9241 82.1641 14.9765C82.1611 15.2765 82.1294 15.5748 82.099 15.873C82.0929 15.9314 82.0929 15.9905 82.0892 16.0489C82.0752 16.2656 82.06 16.4829 82.0466 16.6995C82.0363 16.8639 82.0162 17.0282 82.0211 17.1919C82.0296 17.481 82.0071 17.7671 81.9718 18.0531C81.9693 18.0708 81.9663 18.0878 81.9651 18.1055C81.9365 18.5157 81.9091 18.9265 81.8799 19.3367C81.8683 19.5011 81.8488 19.6642 81.8397 19.8285C81.8135 20.2801 81.7782 20.7311 81.774 21.184C81.7715 21.4597 81.7466 21.7354 81.735 22.0117C81.7295 22.1353 81.7265 22.2588 81.7301 22.3818C81.7393 22.641 81.7088 22.8985 81.6906 23.1559C81.6821 23.2789 81.665 23.4024 81.6681 23.5254C81.6814 24.0318 81.6431 24.5357 81.6151 25.0403C81.6005 25.3099 81.5774 25.5795 81.5682 25.8498C81.5622 26.0196 81.5725 26.1906 81.5786 26.3604C81.5829 26.4894 81.5926 26.6185 81.5999 26.7475C81.6078 26.8942 81.6163 27.0409 81.6248 27.1875C81.6273 27.2283 81.6297 27.2697 81.6309 27.3111C81.6388 27.6933 81.6468 28.0749 81.6535 28.4572C81.6553 28.5509 81.6547 28.6452 81.6498 28.7396C81.6413 28.8984 81.6528 29.0561 81.6638 29.2143C81.6888 29.5545 81.6869 29.8954 81.6614 30.2362C81.6559 30.3123 81.6571 30.3884 81.6577 30.4644C81.6632 30.8759 81.6875 31.2867 81.6656 31.6988C81.6571 31.8594 81.6297 32.0128 81.5396 32.1504C81.5171 32.1844 81.5007 32.2228 81.4843 32.2599C81.4088 32.4328 81.2767 32.5563 81.1276 32.6647C81.099 32.6854 81.0692 32.7036 81.0393 32.7231C80.9657 32.77 80.9274 32.8333 80.9182 32.9245C80.8969 33.1266 80.8208 33.3098 80.7046 33.4778C80.6115 33.6129 80.5257 33.7505 80.4648 33.9063C80.4301 33.9945 80.3534 34.0712 80.2816 34.1382C80.2049 34.2094 80.1033 34.1966 80.0162 34.1546C79.9432 34.1199 79.8799 34.0639 79.8142 34.0158C79.7862 33.9951 79.7636 33.9671 79.735 33.9471C79.7034 33.9251 79.6413 33.9519 79.6376 33.9903C79.6328 34.0365 79.6352 34.084 79.6364 34.1309C79.6383 34.2191 79.6425 34.3068 79.6437 34.395C79.645 34.4674 79.6206 34.5338 79.5835 34.5953C79.5488 34.6537 79.4995 34.6908 79.4301 34.7005C79.3607 34.7103 79.2919 34.7243 79.211 34.7389C79.1824 34.804 79.1532 34.874 79.1209 34.9416C79.0266 35.1388 78.7716 35.1868 78.6036 35.0438C78.4837 34.9416 78.3912 34.8259 78.3705 34.6628C78.365 34.6178 78.3461 34.5746 78.3297 34.5186C78.2956 34.5283 78.2676 34.532 78.2433 34.5435C78.2007 34.5636 78.1605 34.588 78.1197 34.6117C77.8257 34.7845 77.5196 34.933 77.2098 35.0761C76.8422 35.2459 76.4788 35.426 76.1136 35.6007C75.7533 35.773 75.3924 35.9434 75.0321 36.1156C74.9244 36.1674 74.8142 36.2039 74.6925 36.1881C74.6383 36.1814 74.5896 36.1935 74.5409 36.2203C74.2744 36.3694 73.9938 36.4905 73.7211 36.6263C73.3748 36.7991 73.0425 37.0012 72.7041 37.1899C72.4119 37.353 72.1186 37.5143 71.8264 37.6774C71.5805 37.8149 71.3334 37.9513 71.09 38.0931C70.6031 38.3773 70.1168 38.6634 69.6329 38.9531C69.4266 39.0766 69.2269 39.213 69.0224 39.3396C68.953 39.3828 68.8782 39.4181 68.8033 39.4522C68.7102 39.4948 68.6146 39.513 68.513 39.4765C68.443 39.4516 68.3736 39.465 68.3109 39.507C68.2233 39.566 68.1381 39.6287 68.0492 39.6853C67.919 39.7681 67.7839 39.7401 67.6962 39.6135C67.6731 39.58 67.6512 39.5435 67.6378 39.5051C67.6183 39.4503 67.6037 39.3925 67.594 39.3353C67.586 39.2878 67.5787 39.2428 67.5325 39.2032C67.5088 39.227 67.4734 39.2465 67.4643 39.2751C67.4418 39.3414 67.4284 39.4108 67.4175 39.4802C67.401 39.5842 67.3931 39.6901 67.3742 39.7936C67.3499 39.9251 67.2793 40.0328 67.1813 40.1223C67.1034 40.1935 67.031 40.199 66.9415 40.1466C66.863 40.1004 66.8015 40.0413 66.7729 39.9519C66.762 39.9184 66.7455 39.8873 66.7273 39.8466C66.7017 39.835 66.6707 39.8204 66.639 39.8064C66.5562 39.7699 66.5149 39.7066 66.5033 39.6165C66.482 39.4479 66.4503 39.2818 66.4156 39.115C66.3688 38.8916 66.3481 38.6622 66.325 38.4345C66.2988 38.1771 66.2738 37.9196 66.2647 37.6616C66.2513 37.2976 66.2458 36.933 66.2507 36.5685C66.255 36.2806 66.255 35.9939 66.2337 35.7054C66.2136 35.4303 66.2239 35.1534 66.2264 34.8771C66.2282 34.6245 66.2397 34.3719 66.2422 34.1193C66.2434 33.9903 66.2385 33.8606 66.23 33.7316C66.2093 33.4151 66.1813 33.0986 66.1643 32.7815C66.1527 32.5588 66.1582 32.3348 66.1503 32.1114C66.1399 31.8059 66.1363 31.5003 66.1564 31.1948C66.1631 31.0956 66.1576 30.9952 66.1533 30.8954C66.1424 30.6367 66.1509 30.3786 66.1679 30.12C66.1905 29.7858 66.1953 29.4505 66.2051 29.1157C66.2118 28.8862 66.2093 28.6568 66.2184 28.4279C66.2276 28.1869 66.2458 27.9471 66.2592 27.7061C66.2629 27.6416 66.2647 27.5771 66.2629 27.5126C66.2519 27.0603 66.2416 26.6075 66.2264 26.1553C66.2197 25.9532 66.2872 25.7895 66.4418 25.6586C66.5222 25.5905 66.5976 25.5156 66.6688 25.4371C67.031 25.036 67.4168 24.6556 67.7406 24.2204C67.9092 23.994 68.09 23.7774 68.2622 23.554C68.3085 23.4943 68.3499 23.4286 68.3828 23.361C68.499 23.1212 68.6341 22.8954 68.8264 22.7086C68.9524 22.5863 69.0285 22.4341 69.0742 22.2685C69.1259 22.0823 69.1715 21.8936 69.2099 21.7037C69.233 21.5881 69.2245 21.47 69.177 21.3574C69.09 21.1505 68.9877 20.9551 68.8344 20.7865C68.7005 20.6386 68.5775 20.4804 68.4527 20.3246C68.4235 20.2887 68.4041 20.2448 68.3828 20.2028C68.3694 20.1767 68.3627 20.1474 68.3523 20.1201C68.2769 19.9253 68.1734 19.7537 67.9963 19.6289C67.8283 19.5108 67.6713 19.3775 67.51 19.2497C67.4363 19.1913 67.3609 19.1347 67.2921 19.0702C67.0906 18.8803 66.8715 18.7123 66.6536 18.5431C66.5288 18.4463 66.4114 18.3361 66.3103 18.215C66.2397 18.1304 66.2148 18.0142 66.2184 17.8998C66.2245 17.7001 66.2373 17.5005 66.241 17.3009C66.244 17.131 66.2379 16.9606 66.2355 16.7902C66.2349 16.7665 66.2318 16.7433 66.2318 16.7196C66.2288 16.2905 66.2239 15.862 66.2227 15.433C66.2215 14.9978 66.2245 14.5632 66.2257 14.128C66.227 13.8164 66.2233 13.5048 66.2318 13.1938C66.2434 12.7477 66.2416 12.3003 66.3018 11.8566C66.3097 11.7988 66.3097 11.7391 66.3103 11.6807C66.3116 11.4726 66.3542 11.2723 66.4327 11.08C66.4595 11.0155 66.4948 10.9534 66.5325 10.8944C66.5928 10.8006 66.6585 10.7112 66.723 10.6199C66.8478 10.4427 67.0888 10.4379 67.2136 10.615C67.2775 10.7057 67.328 10.8061 67.387 10.9004C67.3943 10.912 67.4181 10.9211 67.4308 10.9187C67.4442 10.9157 67.4613 10.8986 67.4649 10.8846C67.4704 10.8627 67.4668 10.839 67.4661 10.8152C67.4637 10.7069 67.4893 10.6089 67.5477 10.5146C67.5934 10.4409 67.6244 10.3563 67.6506 10.2729C67.7315 10.0155 67.807 9.7562 67.8855 9.49753C67.9549 9.26929 68.1095 9.13053 68.3389 9.07453C68.3895 9.06236 68.4436 9.05871 68.496 9.05871C68.5727 9.0581 68.6256 9.03254 68.6694 8.96315C68.7382 8.8536 68.8271 8.75987 68.9269 8.67587C69.0504 8.5718 69.1825 8.56936 69.3207 8.63631C69.4235 8.68561 69.5124 8.75074 69.5544 8.86394C69.5635 8.88403 69.5781 8.90229 69.6031 8.94368ZM67.5781 37.7273C67.5867 37.7048 67.5934 37.6944 67.5946 37.6835C67.6506 37.2051 67.7066 36.7273 67.7613 36.2489C67.8021 35.8923 67.8106 35.5338 67.7966 35.1753C67.7784 34.706 67.7297 34.2374 67.7333 33.7669C67.7339 33.6963 67.7266 33.6263 67.7224 33.5557C67.7035 33.2276 67.6846 32.899 67.6652 32.5709C67.6633 32.5417 67.6603 32.5125 67.6585 32.4833C67.6487 32.3372 67.6396 32.1905 67.6293 32.0445C67.6268 32.0055 67.6201 31.9672 67.6134 31.9118C67.5824 31.9294 67.5538 31.9361 67.5489 31.9507C67.5361 31.9891 67.5319 32.0305 67.5282 32.0712C67.5203 32.1589 67.5179 32.2471 67.5081 32.3348C67.4826 32.5624 67.4473 32.7888 67.4491 33.0189C67.4497 33.0658 67.4412 33.1126 67.4388 33.1595C67.4284 33.3354 67.4126 33.5107 67.4095 33.6866C67.4053 33.9391 67.4114 34.1917 67.4108 34.4443C67.4108 34.5088 67.4035 34.5733 67.3998 34.6379C67.3931 34.7432 67.3815 34.8484 67.3809 34.9543C67.3791 35.4066 67.3846 35.8588 67.4028 36.311C67.4193 36.7103 67.4223 37.1095 67.4534 37.5082C67.4582 37.5721 67.4716 37.6354 67.4862 37.6975C67.4978 37.7413 67.5343 37.7413 67.5781 37.7273ZM79.718 16.4786C79.7302 16.4786 79.7417 16.478 79.7539 16.478C79.7843 16.2997 79.8215 16.1219 79.8434 15.9424C79.8708 15.7214 79.8848 15.4987 79.9067 15.2765C79.9188 15.1542 79.9438 15.0325 79.9487 14.9095C79.9602 14.6107 79.9633 14.3112 79.9706 14.0118C79.9748 13.8475 79.9785 13.6831 79.987 13.5194C79.998 13.3143 80.0168 13.1098 80.0254 12.9047C80.029 12.8231 80.0205 12.7397 80.0071 12.6594C79.9943 12.5833 79.9286 12.559 79.8616 12.601C79.802 12.6381 79.746 12.6819 79.6857 12.7178C79.6127 12.761 79.5823 12.8274 79.5701 12.9053C79.5628 12.9515 79.5591 12.999 79.5585 13.0459C79.5512 13.3922 79.5311 13.7385 79.5421 14.0842C79.561 14.6995 79.5585 15.3167 79.631 15.9296C79.6504 16.0927 79.673 16.2552 79.6961 16.4177C79.6985 16.4396 79.7101 16.4591 79.718 16.4786Z" fill="#151210"/>
<path d="M96.1944 9.49936C96.2571 9.51823 96.296 9.53223 96.3356 9.54196C96.422 9.56266 96.4597 9.62352 96.4756 9.70447C96.4902 9.77751 96.4744 9.84507 96.4378 9.90775C96.3867 9.9954 96.3179 10.0666 96.2358 10.1263C96.1792 10.1676 96.1268 10.2151 96.0696 10.2559C96.0124 10.2961 95.9534 10.335 95.8913 10.3679C95.6789 10.4811 95.4646 10.5913 95.2516 10.7026C95.226 10.716 95.2011 10.7318 95.1694 10.7501C95.1658 10.7939 95.1627 10.8396 95.1591 10.8852C95.1506 10.9869 95.1068 11.0642 95.0088 11.1049C94.9923 11.1116 94.9777 11.1214 94.9613 11.1287C94.531 11.3167 94.1177 11.5413 93.6783 11.7087C93.2559 11.8694 92.842 12.0508 92.4379 12.2534C92.2809 12.3326 92.1317 12.4269 91.9753 12.5072C91.4787 12.7629 91.0039 13.055 90.5255 13.3423C90.4854 13.366 90.4428 13.3867 90.3989 13.4032C90.1165 13.5084 89.8585 13.6582 89.6065 13.8219C89.4142 13.9461 89.2158 14.0605 89.0204 14.1804C88.9553 14.2199 88.8889 14.2583 88.8268 14.3033C88.5694 14.4902 88.2894 14.6411 88.0149 14.7988C87.7958 14.9247 87.5804 15.0562 87.3704 15.1968C87.2188 15.2984 87.0776 15.4123 86.9626 15.5608C87.0794 15.7056 87.1902 15.8499 87.3083 15.988C87.6863 16.4305 88.0685 16.8687 88.4732 17.2881C88.8202 17.6472 89.1579 18.0154 89.5134 18.3672C89.7264 18.5778 89.9145 18.8127 90.1202 19.0306C90.4677 19.3982 90.8366 19.7439 91.223 20.0708C91.3125 20.1468 91.3959 20.2296 91.4823 20.3093C91.5949 20.4128 91.7069 20.5163 91.8201 20.6198C91.842 20.6398 91.8658 20.6569 91.8865 20.6776C92.2784 21.0774 92.73 21.4079 93.1567 21.7682C93.3545 21.935 93.5419 22.114 93.7373 22.2832C93.8749 22.4024 94.0173 22.5163 94.1597 22.6295C94.3064 22.7469 94.4585 22.8577 94.6034 22.9776C94.9382 23.2551 95.2687 23.5376 95.604 23.8145C95.7397 23.9265 95.887 24.0257 96.0228 24.1377C96.2991 24.3659 96.5699 24.6014 96.8462 24.8297C97.0592 25.0056 97.2784 25.1736 97.4932 25.3476C97.5979 25.4328 97.7032 25.5187 97.8 25.6118C97.87 25.6793 97.943 25.7317 98.0392 25.7499C98.1524 25.7719 98.2418 25.8321 98.3252 25.9118C98.5242 26.103 98.7245 26.2941 98.9351 26.4724C99.0732 26.5893 99.2297 26.6854 99.3806 26.7877C99.649 26.969 99.7872 27.2192 99.7872 27.5436C99.7872 27.6337 99.7665 27.7183 99.7251 27.798C99.7007 27.8449 99.6752 27.8905 99.6514 27.9337C99.6685 28.0049 99.7299 28.0226 99.7744 28.0585C99.8292 28.1023 99.887 28.1419 99.915 28.2125C99.9393 28.2721 99.9405 28.3233 99.901 28.3774C99.7726 28.5527 99.6484 28.731 99.5206 28.9063C99.4293 29.0311 99.3124 29.1279 99.1852 29.2149C98.9959 29.3439 98.8109 29.4791 98.6253 29.6136C98.5881 29.6403 98.5559 29.675 98.5163 29.7103C98.5565 29.7749 98.5961 29.8333 98.6301 29.8935C98.7032 30.0226 98.6916 30.0834 98.5894 30.1912C98.4932 30.2928 98.3733 30.3506 98.2461 30.3981C98.1353 30.4401 98.0246 30.4194 97.918 30.3878C97.831 30.3622 97.7464 30.3561 97.6466 30.3646C97.6423 30.3975 97.6308 30.431 97.6356 30.462C97.6417 30.5016 97.6539 30.5442 97.6758 30.577C97.7312 30.661 97.7202 30.7414 97.6813 30.8272C97.6399 30.9191 97.5766 30.9775 97.4786 31.0073C97.2948 31.0627 97.1207 31.0627 96.9594 30.9416C96.9272 30.9173 96.8895 30.9002 96.8572 30.8807C96.7142 30.9611 96.5857 31.0512 96.4774 31.1686C96.4202 31.2307 96.3514 31.2691 96.2626 31.2745C96.2193 31.277 96.1755 31.305 96.1372 31.3293C96.1031 31.3512 96.0733 31.381 96.0453 31.4115C95.6746 31.8156 95.2534 32.1644 94.831 32.5119C94.8085 32.5308 94.7854 32.549 94.7629 32.5679C94.4622 32.8223 94.1621 33.0767 93.8615 33.3311C93.8213 33.3652 93.7799 33.3987 93.7422 33.4358C93.45 33.7182 93.1342 33.9726 92.8201 34.2295C92.6473 34.3707 92.4659 34.5009 92.2906 34.6397C92.1713 34.7346 92.0587 34.8387 91.9388 34.933C91.7495 35.0822 91.5584 35.2288 91.3649 35.3725C91.1999 35.4948 91.0301 35.6117 90.8627 35.731C90.8341 35.7517 90.8025 35.7693 90.7775 35.7937C90.654 35.9136 90.5079 36.0012 90.3679 36.098C90.0094 36.3451 89.6698 36.6159 89.3363 36.8953C89.2511 36.9665 89.1622 37.0359 89.0679 37.0943C88.6929 37.328 88.3399 37.5904 88.0009 37.8728C87.8926 37.9628 87.7788 38.0468 87.668 38.1333C87.6217 38.1692 87.5712 38.2008 87.5292 38.2416C87.3625 38.4004 87.1732 38.5295 86.9833 38.6585C86.682 38.863 86.382 39.0693 86.0813 39.2751C86.0618 39.2884 86.0405 39.2994 86.0241 39.3158C85.8695 39.4716 85.6778 39.5775 85.5025 39.706C85.4696 39.7303 85.4355 39.7541 85.399 39.7729C85.2468 39.8527 85.1123 39.9561 84.9815 40.0657C84.8464 40.1789 84.7106 40.2909 84.5554 40.3773C84.4556 40.4327 84.3528 40.4333 84.2481 40.4175C84.1653 40.4047 84.1239 40.3359 84.0819 40.2653C83.9912 40.2805 83.9188 40.331 83.8482 40.3803C83.8013 40.4132 83.7526 40.4217 83.6997 40.4254C83.6218 40.4302 83.5628 40.3986 83.5232 40.3323C83.494 40.283 83.4672 40.2324 83.4343 40.1746C83.3935 40.1935 83.3564 40.2087 83.3217 40.2282C83.2657 40.2598 83.2128 40.2976 83.1556 40.3274C83.0016 40.4077 82.8135 40.3949 82.7003 40.2696C82.5975 40.1558 82.5488 40.0066 82.5524 39.849C82.553 39.8113 82.5774 39.7699 82.5999 39.7364C82.6589 39.6488 82.6729 39.5544 82.6626 39.451C82.6571 39.3931 82.6644 39.3341 82.6699 39.2757C82.6875 39.0846 82.7904 38.9354 82.9133 38.7979C82.9681 38.737 83.032 38.6841 83.088 38.6238C83.203 38.5003 83.3156 38.3737 83.4258 38.2519C83.4039 38.2112 83.3802 38.2203 83.3643 38.2367C83.2852 38.3183 83.1848 38.3682 83.0929 38.4303C82.9565 38.5222 82.8232 38.6189 82.6954 38.7218C82.5841 38.8113 82.4593 38.874 82.3321 38.9336C82.2688 38.9634 82.2079 38.9981 82.1458 39.031C82.0679 39.0718 81.9919 39.1162 81.9121 39.1527C81.816 39.1965 81.7174 39.1862 81.6206 39.1497C81.4897 39.1004 81.4483 38.9866 81.5214 38.8679C81.5396 38.8381 81.5646 38.8125 81.5896 38.7875C81.7198 38.6561 81.8117 38.4978 81.8841 38.3311C81.9413 38.1996 82.0077 38.0791 82.1118 37.9799C82.172 37.9227 82.2049 37.8502 82.2292 37.7529C82.1939 37.7577 82.172 37.7565 82.1544 37.7644C82.0692 37.8046 81.9906 37.8527 81.9225 37.9214C81.8823 37.9622 81.8287 37.9921 81.7764 38.0176C81.6236 38.0919 81.4666 38.1588 81.3144 38.2343C81.2012 38.2909 81.0844 38.2732 80.9693 38.258C80.9079 38.2501 80.8708 38.1966 80.858 38.1345C80.8361 38.028 80.8294 37.9215 80.9036 37.832C80.9675 37.7553 80.9651 37.6792 80.9426 37.5861C80.8829 37.3439 80.8914 37.3274 81.0539 37.1424C81.0771 37.1156 81.1026 37.0913 81.1246 37.0633C81.1544 37.0249 81.169 36.986 81.1525 36.933C81.1227 36.8356 81.1312 36.7358 81.158 36.6372C81.169 36.5983 81.1726 36.5563 81.1745 36.5155C81.1787 36.4145 81.2225 36.3347 81.3017 36.2751C81.3485 36.2398 81.3972 36.2075 81.4471 36.1753C81.5853 36.0864 81.7247 35.9988 81.8634 35.9105C81.9133 35.8795 81.9633 35.849 82.0138 35.8192C82.3412 35.6226 82.6735 35.4346 82.9943 35.2282C83.4142 34.958 83.8251 34.6744 84.259 34.4254C84.3753 34.3585 84.4861 34.2782 84.5877 34.1905C84.8415 33.9708 85.1093 33.7693 85.3899 33.5867C85.6802 33.3975 85.9742 33.2136 86.2687 33.0317C86.4246 32.9355 86.5694 32.826 86.7051 32.7036C86.9717 32.4632 87.2517 32.2398 87.5548 32.0457C87.6339 31.9952 87.7063 31.9343 87.7824 31.8795C87.9583 31.7523 88.1354 31.6251 88.3113 31.4979C88.3971 31.4358 88.4824 31.3737 88.5682 31.3111C88.7435 31.1826 88.9193 31.0548 89.094 30.9258C89.231 30.8248 89.3698 30.7255 89.5024 30.6178C89.699 30.4584 89.9041 30.3117 90.1171 30.1753C90.2657 30.0804 90.4081 29.9769 90.5541 29.8777C90.7094 29.7718 90.8658 29.6671 91.021 29.5612C91.1567 29.4681 91.2906 29.3725 91.4263 29.28C91.6442 29.1309 91.8615 28.9806 92.0818 28.8345C92.2577 28.7177 92.4367 28.6051 92.6168 28.4943C92.7069 28.4389 92.7964 28.3835 92.8712 28.3056C92.8615 28.2886 92.8554 28.2715 92.8438 28.26C92.6113 28.0269 92.3831 27.7889 92.1232 27.5856C91.9376 27.4401 91.7672 27.2788 91.6034 27.109C91.5304 27.0329 91.4488 26.9648 91.3703 26.8948C91.335 26.8637 91.2955 26.8376 91.2614 26.8053C91.0471 26.6026 90.8031 26.4383 90.5712 26.2582C90.1908 25.9624 89.811 25.6653 89.4385 25.3598C89.2754 25.2259 89.1257 25.0744 88.9802 24.921C88.7009 24.6258 88.4069 24.3476 88.0928 24.0896C87.9388 23.963 87.7982 23.8193 87.6534 23.6824C87.3333 23.3793 87.0155 23.0738 86.693 22.7737C86.5944 22.6818 86.4824 22.6045 86.3795 22.5169C86.2365 22.3951 86.0947 22.2716 85.9553 22.1456C85.7459 21.9569 85.5433 21.7603 85.3296 21.5759C84.8044 21.1219 84.2949 20.6514 83.8141 20.1511C83.5853 19.9131 83.3917 19.6478 83.2457 19.3489C83.1641 19.1822 83.1732 19.0081 83.1824 18.8322C83.2603 18.6599 83.3412 18.4895 83.5421 18.4256C83.6035 18.4061 83.6638 18.3848 83.7374 18.3599C83.7234 18.3313 83.7131 18.2996 83.6948 18.2747C83.6668 18.2369 83.6352 18.2016 83.6017 18.1694C83.4191 17.9935 83.2609 17.7969 83.0996 17.6021C83.0162 17.5017 82.9748 17.3934 82.9578 17.2686C82.9395 17.1317 82.9529 16.9947 82.9967 16.8687C83.0698 16.6587 83.1964 16.4938 83.4404 16.4956C83.5141 16.4329 83.5567 16.3654 83.5567 16.2765C83.5567 16.1633 83.5427 16.0519 83.4696 15.96C83.4136 15.8894 83.3789 15.8121 83.3516 15.7269C83.3071 15.59 83.3418 15.4725 83.4191 15.3617C83.4489 15.3185 83.4848 15.2796 83.5244 15.2309C83.5001 15.1755 83.4751 15.1183 83.4495 15.0605C83.4264 15.0069 83.4088 14.9497 83.3795 14.8998C83.3199 14.7969 83.3181 14.6995 83.3905 14.604C83.4435 14.534 83.4398 14.4652 83.399 14.3904C83.3765 14.3496 83.3643 14.3033 83.3473 14.2595C83.3047 14.1487 83.3321 14.0507 83.4069 13.9655C83.4453 13.9217 83.4915 13.884 83.5366 13.8468C83.5774 13.8134 83.6187 13.7787 83.665 13.7537C83.7636 13.6996 83.7916 13.6119 83.7027 13.4841C83.6766 13.4464 83.6364 13.4178 83.6041 13.3843C83.5135 13.2899 83.4721 13.181 83.497 13.0477C83.5293 12.8749 83.5956 12.7245 83.7338 12.6089C83.9681 12.4129 84.1957 12.2084 84.4337 12.0167C84.5706 11.9065 84.7149 11.8012 84.8689 11.7178C85.4854 11.3825 86.0508 10.9717 86.6126 10.5553C86.8774 10.3594 87.1482 10.1737 87.427 9.99844C87.9741 9.65517 88.5274 9.32103 89.0587 8.9522C89.2858 8.79456 89.5116 8.6357 89.7422 8.48415C89.9382 8.35512 90.136 8.2267 90.3411 8.11289C90.7672 7.87613 91.1969 7.64606 91.629 7.42087C91.842 7.30949 92.0605 7.20724 92.2827 7.11594C92.6649 6.95952 93.0185 6.75015 93.3776 6.55113C93.5158 6.47444 93.66 6.4081 93.8006 6.33506C93.9309 6.2675 94.0605 6.19812 94.1889 6.12751C94.2687 6.08369 94.3472 6.05691 94.4409 6.08674C94.5316 6.11595 94.6131 6.06909 94.6947 6.03805C94.7604 6.01309 94.8231 5.98022 94.8901 5.95771C95.1013 5.88649 95.2352 6.04231 95.2455 6.24742C95.2473 6.28393 95.2224 6.32654 95.1999 6.35941C95.0976 6.50913 95.0057 6.66616 94.8603 6.78362C94.7836 6.84571 94.7227 6.92848 94.6594 7.00517C94.6077 7.06786 94.562 7.13542 94.5188 7.19385C94.5322 7.25532 94.5681 7.27114 94.6119 7.27114C94.7178 7.27114 94.8237 7.27236 94.929 7.2681C95.0441 7.26323 95.1506 7.28818 95.2504 7.34418C95.3825 7.41782 95.4159 7.50486 95.3825 7.65397C95.3228 7.92177 95.178 8.13845 94.9838 8.32469C94.9071 8.39834 94.8365 8.47502 94.7817 8.56754C94.6947 8.71239 94.6886 8.72943 94.7057 8.94428C94.7714 8.96376 94.8383 8.96254 94.9053 8.93333C95.0075 8.8889 95.1104 8.84568 95.212 8.80004C95.3295 8.74709 95.4452 8.68926 95.5638 8.63875C95.7568 8.55719 95.9625 8.54319 96.1676 8.53954C96.2297 8.53832 96.293 8.56571 96.3538 8.58519C96.4031 8.60101 96.4488 8.6284 96.4981 8.64544C96.5967 8.67953 96.6539 8.74708 96.6709 8.84812C96.7044 9.04167 96.6296 9.19382 96.4792 9.31007C96.3958 9.36911 96.3058 9.42389 96.1944 9.49936ZM93.7604 28.9861C93.6892 29.0396 93.6326 29.081 93.5766 29.1236C93.1433 29.4553 92.7142 29.7919 92.2955 30.1431C92.0118 30.3811 91.7306 30.6196 91.4635 30.8765C91.3198 31.0146 91.1658 31.1425 91.0167 31.2745C90.9772 31.3092 90.9358 31.3421 90.8968 31.3786C90.8603 31.4133 90.8116 31.437 90.7848 31.4821C90.8384 31.5204 90.8384 31.5204 90.8755 31.4985C91.108 31.3622 91.3387 31.2222 91.5742 31.0907C91.8609 30.9307 92.15 30.7755 92.4409 30.6221C92.587 30.5454 92.7239 30.4565 92.853 30.3543C92.9814 30.2526 93.1062 30.1443 93.2547 30.0707C93.4872 29.9556 93.6953 29.8022 93.9065 29.6543C93.9546 29.6209 93.9984 29.5813 94.041 29.5417C94.0824 29.5028 94.1202 29.4596 94.1664 29.4115C94.0295 29.2679 93.901 29.1334 93.7604 28.9861Z" fill="#151210"/>
<path d="M99.8888 7.73918C99.7543 7.74588 99.6271 7.75318 99.4883 7.73127C99.3702 7.26019 99.2516 6.78971 99.1298 6.30402C99.086 6.33932 99.0976 6.37523 99.0976 6.40444C99.0957 6.78606 99.0958 7.16828 99.0945 7.5499C99.0945 7.60711 99.0897 7.66493 99.0872 7.71971C99.0233 7.75744 98.9637 7.74162 98.9065 7.74405C98.8486 7.74649 98.7902 7.74466 98.7251 7.74466C98.716 7.70753 98.7038 7.68075 98.7038 7.65397C98.7032 7.02525 98.7032 6.39653 98.7038 5.76781C98.7038 5.75077 98.7105 5.73434 98.7135 5.71851C98.8334 5.67895 99.1597 5.67469 99.3289 5.71242C99.4524 6.13117 99.551 6.56269 99.6837 7.0143C99.7579 6.89379 99.7646 6.78119 99.7963 6.67772C99.8292 6.57121 99.8517 6.46166 99.8803 6.35393C99.9083 6.2462 99.9381 6.13847 99.9673 6.03074C99.9959 5.92362 100.025 5.81589 100.052 5.71364C100.186 5.68078 100.452 5.67652 100.647 5.7033C100.653 5.73251 100.665 5.76538 100.665 5.79824C100.667 6.40931 100.667 7.02038 100.666 7.63145C100.666 7.66006 100.659 7.68867 100.654 7.72275C100.544 7.75988 100.434 7.74223 100.33 7.73797C100.28 7.69049 100.296 7.6345 100.296 7.58398C100.294 7.21393 100.294 6.84388 100.293 6.47322V6.28333C100.243 6.32958 100.236 6.37523 100.225 6.41966C100.132 6.7958 100.039 7.17133 99.9442 7.54685C99.9278 7.60954 99.9089 7.67041 99.8888 7.73918Z" fill="#151210"/>
<path d="M97.3995 6.05387C97.2072 6.02161 97.0124 6.06422 96.8225 6.02831C96.8012 5.91997 96.8091 5.82198 96.8146 5.72825C96.8663 5.67043 96.929 5.68869 96.985 5.68808C97.3374 5.68625 97.6898 5.68747 98.0416 5.68747C98.1353 5.68747 98.2297 5.68625 98.3234 5.68808C98.3575 5.68869 98.3922 5.6966 98.4299 5.70147C98.4622 5.80798 98.4524 5.91084 98.4384 6.01857C98.3392 6.06117 98.2388 6.03378 98.1414 6.04109C98.0489 6.04778 97.954 6.02831 97.8639 6.05752C97.8255 6.12021 97.8414 6.18655 97.8407 6.24985C97.8395 6.67833 97.8401 7.10681 97.8395 7.5359C97.8395 7.5992 97.8493 7.66432 97.8207 7.72884C97.7574 7.75623 97.6922 7.74284 97.6289 7.74405C97.5656 7.74527 97.5011 7.75196 97.4439 7.73431C97.4019 7.66676 97.4171 7.60041 97.4171 7.53772C97.4159 7.10924 97.4165 6.68077 97.4159 6.25168C97.4159 6.18899 97.4244 6.12386 97.3995 6.05387Z" fill="#151210"/>
</svg>
