<svg width="16" height="16" viewBox="0 0 16 16" fill="none" xmlns="http://www.w3.org/2000/svg">
<path d="M6.42649 14.7203H4.09972C3.35378 14.7203 2.64206 14.426 2.11512 13.8922C1.58133 13.3653 1.28706 12.6604 1.28706 11.9076V4.10607C1.28706 3.36014 1.58133 2.64842 2.11512 2.12147C2.64206 1.58768 3.34694 1.30026 4.09972 1.30026H6.42649V14.7203ZM7.59672 0H4.09972C1.83453 0 0.000488281 1.83405 0.000488281 4.09923V11.9008C0.000488281 14.166 1.83453 16 4.09972 16H7.59672C7.66516 16 7.71991 15.9521 7.71991 15.8837V0.116339C7.71991 0.0479042 7.65831 0 7.59672 0ZM2.48466 4.79726C2.48466 5.62532 3.16216 6.30282 3.99022 6.30282C4.81828 6.30282 5.49578 5.62532 5.49578 4.79726C5.49578 3.9692 4.81828 3.2917 3.99022 3.2917C3.16216 3.2917 2.48466 3.9692 2.48466 4.79726ZM12.483 7.18563C13.3726 7.18563 14.098 7.91104 14.098 8.80068C14.098 9.69718 13.3726 10.4226 12.483 10.4226C11.5865 10.4226 10.8611 9.69718 10.8611 8.80068C10.8611 7.91104 11.5865 7.18563 12.483 7.18563ZM9.43077 16H11.9013C14.1664 16 16.0005 14.166 16.0005 11.9008V4.09923C16.0005 1.83405 14.1664 0 11.9013 0H9.42393C9.36918 0 9.31443 0.0410607 9.31443 0.0958084V15.8837C9.31443 15.9521 9.36234 16 9.43077 16Z" fill="#F9B611"/>
</svg>
