<svg width="20" height="16" viewBox="0 0 20 16" fill="none" xmlns="http://www.w3.org/2000/svg">
<path d="M7.50294 0.319824V14.654L10.7572 15.7V3.69028C10.7572 3.10917 10.9896 2.7605 11.4158 2.87672C11.9581 3.03169 12.0356 3.53532 12.0356 4.11643V8.92031C14.0502 9.88883 15.6385 8.92031 15.6385 6.36341C15.6385 3.72903 14.7088 2.52806 11.9581 1.59827C10.9121 1.17212 8.89762 0.591011 7.50294 0.319824Z" fill="#F9B611"/>
<path d="M11.377 13.5692L16.6071 11.7097C17.1882 11.5159 17.3044 11.206 16.8008 11.0511C16.3359 10.8961 15.4448 10.9348 14.8637 11.1673L11.377 12.407V10.4699L11.5707 10.3925C11.5707 10.3925 12.578 10.0438 13.9727 9.88883C15.3674 9.73387 17.1107 9.92757 18.4666 10.4312C19.9775 10.8961 20.1712 11.6322 19.7838 12.1358C19.3964 12.6394 18.4279 12.9881 18.4279 12.9881L11.3383 15.545V13.5692H11.377Z" fill="#F9B611"/>
<path d="M1.57558 13.3755C-0.012797 12.9494 -0.245243 12.0196 0.452094 11.4772C1.11069 10.9736 2.23418 10.6249 2.23418 10.6249L6.88309 8.95905V10.8574L3.55137 12.0583C2.97025 12.2908 2.85403 12.562 3.35766 12.7169C3.82255 12.8719 4.7136 12.8331 5.29471 12.6007L6.88309 12.0196V13.6854C6.76686 13.6854 6.65064 13.7242 6.57316 13.7242C4.94604 14.0341 3.24144 13.9566 1.57558 13.3755Z" fill="#F9B611"/>
</svg>
