<svg width="16" height="17" viewBox="0 0 16 17" fill="none" xmlns="http://www.w3.org/2000/svg">
<path d="M2.37993 2.30734V2.30818C1.62509 3.05137 1.02588 3.9375 0.617296 4.91484C0.208714 5.89217 -0.0010507 6.94111 0.000251566 8.00041C-0.00213864 9.75158 0.572577 11.4547 1.6355 12.8464C1.64643 12.8599 1.66325 12.8674 1.6784 12.8599C1.6927 12.8515 1.69354 12.8338 1.68765 12.8187C1.0778 10.9327 4.19519 6.3618 5.80604 4.44561C5.81109 4.43888 5.81782 4.43131 5.81782 4.42206C5.81782 4.41112 5.81025 4.40271 5.80267 4.39598C3.09325 1.69917 2.36984 2.31575 2.37993 2.30734ZM13.6138 2.30061L13.6214 2.30734V2.30818C14.3762 3.05138 14.9753 3.93754 15.3837 4.91488C15.7922 5.89222 16.0017 6.94116 16.0002 8.00041C16.0026 9.75158 15.4279 11.4547 14.365 12.8464C14.3549 12.8599 14.3372 12.8674 14.3221 12.8599C14.3086 12.8515 14.3078 12.8338 14.3128 12.8187C14.9227 10.9327 11.8078 6.35844 10.1978 4.4414C10.1919 4.43467 10.186 4.4271 10.186 4.41869C10.186 4.40691 10.1928 4.3985 10.2012 4.39177C12.9114 1.69497 13.6298 2.31575 13.6206 2.30734L13.6138 2.30061ZM8.00066 0C9.61488 0 10.9431 0.442458 12.1678 1.17092C12.183 1.17849 12.1872 1.19531 12.1813 1.21045C12.1754 1.22475 12.1586 1.22811 12.1426 1.22391C10.594 0.889122 8.23956 2.22743 8.01749 2.36118C8.01244 2.36454 8.00739 2.36791 8.00066 2.36791C7.99309 2.36791 7.98805 2.36454 7.983 2.36118C7.39249 2.02218 5.21638 0.881551 3.8461 1.23232C3.83096 1.23569 3.81414 1.23316 3.80741 1.21802C3.80454 1.21091 3.80432 1.20301 3.80679 1.19575C3.80926 1.18849 3.81426 1.18237 3.82087 1.17849C5.04562 0.442458 6.39066 0 8.00066 0ZM8.00066 6.41648C8.00992 6.41648 8.02001 6.42405 8.0259 6.4291C10.4199 8.2494 14.5172 12.7497 13.2664 14.0224L13.2681 14.0207L13.2673 14.0224H13.2656C11.8094 15.3005 9.93736 16.0042 7.99982 16.0017C6.06207 16.004 4.18982 15.3004 2.73323 14.0224C1.48492 12.7497 5.58144 8.2494 7.9729 6.4291C7.97963 6.42405 7.99057 6.41648 8.00066 6.41648Z" fill="#F9B611"/>
</svg>
